<?xml version="1.0" encoding="utf-8"?>
<!-- Generator: Adobe Illustrator 16.0.0, SVG Export Plug-In . SVG Version: 6.00 Build 0)  -->
<!DOCTYPE svg PUBLIC "-//W3C//DTD SVG 1.1//EN" "http://www.w3.org/Graphics/SVG/1.1/DTD/svg11.dtd">
<svg version="1.1" id="Ebene_1" xmlns="http://www.w3.org/2000/svg" xmlns:xlink="http://www.w3.org/1999/xlink" x="0px" y="0px"
	 width="540px" height="540px" viewBox="0 0 540 540" enable-background="new 0 0 540 540" xml:space="preserve">
<g>
	<g>
		<g>
			<g enable-background="new    ">
				<rect x="379.055" y="253.629" fill="#333333" width="38.083" height="18.584"/>
			</g>
		</g>
		<g>
			<g>
				<g>
					<g>
						<defs>
							<path id="SVGID_1_" d="M93.028,204.421c0,3.487,16.679,6.313,37.25,6.313c20.572,0,37.25-2.826,37.25-6.313
								c0-3.487-16.678-6.313-37.25-6.313C109.706,198.108,93.028,200.934,93.028,204.421"/>
						</defs>
						<clipPath id="SVGID_2_">
							<use xlink:href="#SVGID_1_"  overflow="visible"/>
						</clipPath>
						<g clip-path="url(#SVGID_2_)">
							<rect x="93.028" y="198.108" fill="#CCCCCC" width="74.5" height="12.626"/>
						</g>
					</g>
				</g>
				<g>
					<g>
						<g>
							<g enable-background="new    ">
								<rect x="114.319" y="253.629" fill="#333333" width="38.083" height="18.584"/>
							</g>
							<g>
								<path fill="#CCCCCC" d="M112.153,239.879H88.07h-2.5H67.82c-6.6,0-12,5.4-12,12c0,6.602,5.875,18.584,6.166,25.25
									c0.292,6.668,5.4,12,12,12H85.57h2.5h17.916c6.603,0,11.709-5.332,12-12c0.292-6.666,6.167-18.648,6.167-25.25
									C124.153,245.279,118.753,239.879,112.153,239.879"/>
							</g>
						</g>
						<g>
							<g>
								<polygon fill="#CCCCCC" points="340.675,151.546 320.07,131.421 317.212,160.987 341.376,228.079 371.424,236.921 
									371.424,236.921 								"/>
							</g>
						</g>
						<g>
							<g>
								<path fill="#CCCCCC" d="M296.143,205.109l-4.876,2.664l6.152,16.606l22.341-0.006l-30.106-81.244
									c0,0-10.042,5.605-12.417,11.792c-2.375,6.188-0.691,13.126-0.691,13.126l4.703,12.686h5.863L296.143,205.109z"/>
							</g>
						</g>
						<g>
							<g>
								<g>
									<g>
										<path fill="#333333" d="M232.737,225.296h-6v-18.812h-9.099c-5.617,0-10.188-4.57-10.188-10.188
											s4.569-10.188,10.188-10.188h23.506c2.31,0,4.188-1.878,4.188-4.187s-1.878-4.188-4.188-4.188v-6
											c5.617,0,10.188,4.57,10.188,10.188c0,5.617-4.57,10.187-10.188,10.187h-23.506c-2.309,0-4.188,1.879-4.188,4.188
											s1.878,4.188,4.188,4.188h15.099V225.296z"/>
									</g>
									<path fill="#CCCCCC" d="M345.615,223.716l-16.521-0.02c-0.021,0-0.043-0.001-0.065-0.001H188.688
										c-21.135,0-38.268,17.133-38.268,38.268s17.133,38.268,38.268,38.268H329.03c0.168,0,0.334-0.011,0.502-0.013h16.083
										v-0.009c20.745-0.448,37.43-17.393,37.43-38.246C383.043,241.11,366.36,224.165,345.615,223.716z"/>
									<path fill="#333333" d="M339.924,249.004c-7.156,0-12.958,5.803-12.958,12.959c0,7.156,5.802,12.958,12.958,12.958
										c7.155,0,12.959-5.802,12.959-12.958C352.883,254.807,347.079,249.004,339.924,249.004z M339.924,269.379
										c-4.098,0-7.416-3.32-7.416-7.416c0-4.097,3.318-7.417,7.416-7.417c4.097,0,7.417,3.32,7.417,7.417
										C347.341,266.059,344.021,269.379,339.924,269.379z"/>
									<g enable-background="new    ">
										<polygon fill="#333333" points="352.543,184.5 320.036,168.834 322.455,175.549 354.962,191.214 										"/>
									</g>
									<g enable-background="new    ">
										<polygon fill="#333333" points="358.24,200.323 325.737,184.658 328.156,191.373 360.659,207.038 										"/>
									</g>
									<g enable-background="new    ">
										<polygon fill="#333333" points="364.072,216.51 331.567,200.845 333.986,207.561 366.49,223.225 										"/>
									</g>
								</g>
								<g>
									<g>
										<g>
											<g>
												<path fill="#CCCCCC" d="M94.998,211.837h-9.897c-3.884,0-7.062-3.178-7.062-7.062v-0.709
													c0-3.884,3.178-7.062,7.062-7.062h9.897c3.885,0,7.062,3.178,7.062,7.062v0.709
													C102.06,208.659,98.882,211.837,94.998,211.837"/>
											</g>
											<g enable-background="new    ">
												<path fill="#333333" d="M95.542,211.837h-5.498h-0.303h-5.498c0,11.947-6.279,22.384-15.634,28.042h21.132h0.303h21.13
													C101.821,234.221,95.542,223.784,95.542,211.837"/>
											</g>
										</g>
										<g>
											<g>
												<g>
													<g>
														<defs>
															<path id="SVGID_3_" d="M12.361,204.421c0,3.487,16.68,6.313,37.25,6.313c20.572,0,37.25-2.826,37.25-6.313
																c0-3.487-16.678-6.313-37.25-6.313C29.039,198.108,12.361,200.934,12.361,204.421"/>
														</defs>
														<clipPath id="SVGID_4_">
															<use xlink:href="#SVGID_3_"  overflow="visible"/>
														</clipPath>
														<g clip-path="url(#SVGID_4_)">
															<rect x="12.361" y="198.108" fill="#CCCCCC" width="74.5" height="12.626"/>
														</g>
													</g>
												</g>
												<g>
													<g>
														<g>
															<g>
																<defs>
																	<path id="SVGID_5_" d="M445.138,204.421c0,3.487,16.678,6.313,37.25,6.313c20.573,0,37.25-2.826,37.25-6.313
																		c0-3.487-16.677-6.313-37.25-6.313S445.138,200.934,445.138,204.421"/>
																</defs>
																<clipPath id="SVGID_6_">
																	<use xlink:href="#SVGID_5_"  overflow="visible"/>
																</clipPath>
																<rect x="445.138" y="198.108" clip-path="url(#SVGID_6_)" fill="#CCCCCC" width="74.5" height="12.626"/>
															</g>
														</g>
														<g>
															<g>
																<g>
																	<g>
																		<path fill="#CCCCCC" d="M464.263,239.879H440.18h-2.5h-17.75c-6.603,0-12,5.4-12,12
																			c0,6.602,5.875,18.584,6.167,25.25c0.291,6.668,5.397,12,12,12h11.583h2.5h17.917c6.6,0,11.708-5.332,12-12
																			c0.291-6.666,6.166-18.648,6.166-25.25C476.263,245.279,470.863,239.879,464.263,239.879"/>
																	</g>
																</g>
																<g>
																	<g>
																		<g>
																			<path fill="#CCCCCC" d="M447.107,197.004h-9.896c-3.886,0-7.063,3.178-7.063,7.062v0.709
																				c0,3.884,3.178,7.062,7.063,7.062h9.896c3.884,0,7.063-3.178,7.063-7.062v-0.709
																				C454.17,200.182,450.99,197.004,447.107,197.004z"/>
																			<g enable-background="new    ">
																				<path fill="#333333" d="M447.652,211.837h-5.498h-0.303h-5.499c0,11.947-6.279,22.384-15.631,28.042h21.13
																					h0.303h21.13C453.932,234.221,447.652,223.784,447.652,211.837"/>
																			</g>
																		</g>
																		<g>
																			<g>
																				<g>
																					<g>
																						<defs>
																							<path id="SVGID_7_" d="M364.473,204.421c0,3.487,16.676,6.313,37.249,6.313
																								c20.572,0,37.25-2.826,37.25-6.313c0-3.487-16.678-6.313-37.25-6.313
																								C381.148,198.108,364.473,200.934,364.473,204.421"/>
																						</defs>
																						<clipPath id="SVGID_8_">
																							<use xlink:href="#SVGID_7_"  overflow="visible"/>
																						</clipPath>
																						<g clip-path="url(#SVGID_8_)">
																							<rect x="364.473" y="198.108" fill="#CCCCCC" width="74.499" height="12.626"/>
																						</g>
																					</g>
																				</g>
																				<g>
																					<g>
																						<g>
																							<g>
																								<path fill="#CCCCCC" d="M328.108,335.798c-1.039-0.144-1.943-0.25-2.713-0.321
																									c-0.771-0.072-1.477-0.106-2.121-0.106c-4.188,0-7.995,1.013-11.414,3.034
																									c-3.42,2.023-6.273,4.934-8.564,8.729l1.88-10.313h-17.402l-10.525,60.156h17.349l4.939-27.713
																									c1.003-5.945,2.962-10.492,5.881-13.646c2.92-3.149,6.6-4.728,11.039-4.728c1.646,0,3.194,0.196,4.646,0.59
																									c1.45,0.396,2.784,0.969,4.002,1.721L328.108,335.798z M229.916,338.591
																									c-4.458,2.148-8.298,5.3-11.521,9.453c-2.793,3.582-4.923,7.529-6.391,11.845
																									c-1.469,4.314-2.202,8.729-2.202,13.239c0,7.843,2.291,14.036,6.875,18.584
																									c4.583,4.547,10.849,6.821,18.798,6.821c5.514,0,10.521-1.074,15.013-3.225
																									c4.493-2.146,8.369-5.334,11.63-9.56c2.793-3.546,4.913-7.458,6.363-11.735
																									c1.45-4.279,2.177-8.693,2.177-13.24c0-7.842-2.311-14.037-6.931-18.584
																									c-4.619-4.547-10.957-6.821-19.013-6.821C239.307,335.368,234.374,336.441,229.916,338.591
																									 M250.165,352.072c1.558,1.969,2.337,4.835,2.337,8.594c0,7.02-1.45,12.793-4.353,17.322
																									c-2.898,4.529-6.589,6.795-11.063,6.795c-3.008,0-5.291-0.994-6.85-2.981
																									c-1.558-1.987-2.337-4.879-2.337-8.674c0-6.981,1.45-12.729,4.353-17.241
																									c2.898-4.513,6.588-6.769,11.063-6.769C246.325,349.118,248.607,350.104,250.165,352.072 M196.767,375.438
																									c-4.548,2.793-8.646,4.845-12.3,6.149c-3.652,1.308-7.108,1.961-10.366,1.961
																									c-5.441,0-9.713-1.755-12.81-5.264c-3.1-3.511-4.646-8.345-4.646-14.503c0-9.563,2.517-17.527,7.546-23.901
																									c5.031-6.373,11.271-9.562,18.721-9.562c3.58,0,6.928,0.608,10.044,1.826
																									c3.113,1.219,6.229,3.135,9.345,5.748l3.008-16.599c-3.903-2.005-7.744-3.499-11.521-4.483
																									c-3.778-0.983-7.529-1.479-11.252-1.479c-6.875,0-13.286,1.484-19.229,4.457
																									c-5.944,2.974-11.029,7.217-15.254,12.729c-3.581,4.691-6.284,9.875-8.11,15.551
																									c-1.824,5.677-2.737,11.719-2.737,18.127c0,9.74,2.898,17.563,8.699,23.474
																									c5.803,5.908,13.554,8.862,23.259,8.862c3.65,0,7.525-0.448,11.628-1.344c4.1-0.896,8.37-2.222,12.81-3.976
																									L196.767,375.438z"/>
																							</g>
																							<g enable-background="new    ">
																								<path fill="#333333" d="M386.259,375.438c-4.548,2.793-8.647,4.845-12.3,6.149
																									c-3.652,1.308-7.108,1.961-10.366,1.961c-5.443,0-9.714-1.755-12.813-5.264
																									c-3.097-3.511-4.645-8.345-4.645-14.503c0-9.563,2.515-17.527,7.546-23.901
																									c5.03-6.373,11.271-9.562,18.719-9.562c3.58,0,6.929,0.608,10.044,1.826
																									c3.115,1.219,6.23,3.135,9.348,5.748l3.008-16.599c-3.903-2.005-7.744-3.499-11.521-4.483
																									c-3.776-0.983-7.526-1.479-11.252-1.479c-6.875,0-13.285,1.484-19.229,4.457
																									c-5.944,2.974-11.029,7.217-15.254,12.729c-3.581,4.691-6.284,9.875-8.11,15.551
																									c-1.826,5.677-2.739,11.719-2.739,18.127c0,9.74,2.9,17.563,8.701,23.474s13.552,8.862,23.257,8.862
																									c3.652,0,7.527-0.448,11.628-1.344c4.102-0.896,8.37-2.222,12.813-3.976L386.259,375.438z"/>
																							</g>
																						</g>
																						<g>
																							<g>
																								<g>
																									<g>
																										<defs>
																											<path id="SVGID_9_" d="M208.579,85.123c-2.569-0.033-4.701,2.042-4.734,4.613l-4.989,88.745l56.32,0.732
																												l-2.68-88.844c0.032-2.571-2.042-4.701-4.612-4.734L208.579,85.123z"/>
																										</defs>
																										<clipPath id="SVGID_10_">
																											<use xlink:href="#SVGID_9_"  overflow="visible"/>
																										</clipPath>
																										<g clip-path="url(#SVGID_10_)">
																											
																												<rect x="198.86" y="85.016" transform="matrix(0.9999 0.013 -0.013 0.9999 1.737 -2.9484)" fill="#CCCCCC" width="57.533" height="94.198"/>
																										</g>
																									</g>
																								</g>
																								<g id="Ebene_1_1_">
																									<g>
																										<g>
																											<g enable-background="new    ">
																												<path fill="#333333" d="M236.978,163.87c0-2.184,1.021-3.955,2.277-3.955
																													c1.258,0,2.275,1.771,2.275,3.955s-1.019,3.955-2.275,3.955S236.978,166.054,236.978,163.87"/>
																											</g>
																											<g enable-background="new    ">
																												<path fill="#333333" d="M215.465,163.331c0-0.728,0.403-1.318,0.897-1.318
																													c0.497,0,0.899,0.59,0.899,1.318c0,0.729-0.402,1.318-0.899,1.318
																													C215.868,164.648,215.465,164.06,215.465,163.331"/>
																											</g>
																											<g enable-background="new    ">
																												<path fill="#333333" d="M213.574,174.667c0.522,0.64,1.902,0.376,3.079-0.589
																													c1.179-0.966,1.706-2.267,1.183-2.907c-0.524-0.639-1.904-0.376-3.081,0.59
																													C213.578,172.726,213.049,174.026,213.574,174.667"/>
																											</g>
																											<g enable-background="new    ">
																												<path fill="#333333" d="M226.671,166.566c0-1.357,0.644-2.457,1.438-2.457s1.438,1.1,1.438,2.457
																													s-0.646,2.457-1.438,2.457S226.671,167.923,226.671,166.566"/>
																											</g>
																											<g enable-background="new    ">
																												<path fill="#333333" d="M225.81,151.539c0.22-0.642,1.166-0.899,2.113-0.575
																													c0.947,0.324,1.537,1.107,1.317,1.749c-0.222,0.641-1.165,0.899-2.113,0.575
																													C226.18,152.964,225.59,152.181,225.81,151.539"/>
																											</g>
																											<g enable-background="new    ">
																												<path fill="#333333" d="M214.866,149.668c0-0.529,0.83-0.958,1.856-0.958s1.857,0.429,1.857,0.958
																													c0,0.53-0.831,0.959-1.857,0.959S214.866,150.199,214.866,149.668"/>
																											</g>
																											<g enable-background="new    ">
																												<path fill="#333333" d="M238.649,147.448c0.163-0.325,0.729-0.373,1.262-0.106
																													c0.53,0.267,0.832,0.747,0.669,1.072c-0.163,0.326-0.729,0.373-1.262,0.106
																													C238.787,148.254,238.486,147.774,238.649,147.448"/>
																											</g>
																											<g enable-background="new    ">
																												<path fill="#333333" d="M237.577,126.419c0-0.761,1.02-1.378,2.275-1.378
																													c1.258,0,2.277,0.617,2.277,1.378c0,0.761-1.021,1.378-2.277,1.378
																													C238.597,127.797,237.577,127.18,237.577,126.419"/>
																											</g>
																											<g enable-background="new    ">
																												<path fill="#333333" d="M236.204,139.86c0.467,0.642,2.073,0.269,3.592-0.834
																													c1.516-1.103,2.366-2.519,1.897-3.161c-0.467-0.642-2.073-0.269-3.591,0.834
																													C236.586,137.803,235.737,139.217,236.204,139.86"/>
																											</g>
																											<g enable-background="new    ">
																												<path fill="#333333" d="M214.672,138.044c-0.813-1.404-0.818-2.918-0.015-3.382
																													c0.802-0.463,2.108,0.3,2.921,1.704c0.811,1.405,0.815,2.919,0.015,3.382
																													S215.483,139.448,214.672,138.044"/>
																											</g>
																											<g enable-background="new    ">
																												<path fill="#333333" d="M203.827,130.583c-0.979-1.691-0.771-3.638,0.463-4.35
																													c1.232-0.712,3.021,0.082,3.999,1.773c0.977,1.691,0.769,3.639-0.463,4.35
																													C206.594,133.068,204.803,132.274,203.827,130.583"/>
																											</g>
																											<g enable-background="new    ">
																												<path fill="#333333" d="M214.147,115.094c0-1.655,0.887-2.996,1.979-2.996s1.978,1.341,1.978,2.996
																													c0,1.655-0.886,2.996-1.978,2.996S214.147,116.749,214.147,115.094"/>
																											</g>
																											<g enable-background="new    ">
																												<path fill="#333333" d="M203.901,103.769c0-1.092,0.483-1.977,1.079-1.977
																													c0.597,0,1.078,0.885,1.078,1.977c0,1.092-0.481,1.978-1.078,1.978
																													C204.384,105.747,203.901,104.86,203.901,103.769"/>
																											</g>
																											<g enable-background="new    ">
																												<path fill="#333333" d="M237.577,109.94c0-1.919,1.02-3.475,2.275-3.475
																													c1.258,0,2.277,1.556,2.277,3.475s-1.021,3.476-2.277,3.476
																													C238.597,113.417,237.577,111.859,237.577,109.94"/>
																											</g>
																											<g enable-background="new    ">
																												<path fill="#333333" d="M226.072,104.308c0-1.854,0.912-3.355,2.037-3.355
																													c1.126,0,2.038,1.501,2.038,3.355c0,1.853-0.912,3.355-2.038,3.355
																													C226.984,107.663,226.072,106.161,226.072,104.308"/>
																											</g>
																											<g enable-background="new    ">
																												<path fill="#333333" d="M223.555,94.601c0-1.588,1.824-2.876,4.075-2.876
																													c2.25,0,4.074,1.288,4.074,2.876s-1.824,2.876-4.074,2.876
																													C225.379,97.477,223.555,96.188,223.555,94.601"/>
																											</g>
																											<g enable-background="new    ">
																												<path fill="#333333" d="M205.137,91.452c0.333-0.758,1.37-1.035,2.316-0.62
																													c0.946,0.416,1.444,1.367,1.111,2.124c-0.332,0.758-1.369,1.036-2.314,0.62
																													C205.303,93.16,204.804,92.208,205.137,91.452"/>
																											</g>
																											<g enable-background="new    ">
																												<path fill="#333333" d="M213.091,97.896c-0.761-1.318,0.248-3.326,2.254-4.484
																													c2.007-1.159,4.25-1.029,5.011,0.289c0.763,1.319-0.248,3.326-2.254,4.485
																													C216.095,99.345,213.853,99.214,213.091,97.896"/>
																											</g>
																											<g enable-background="new    ">
																												<path fill="#333333" d="M237.588,95.233c-0.093-0.889,0.738-1.705,1.855-1.822
																													c1.119-0.117,2.104,0.508,2.195,1.397c0.094,0.888-0.738,1.704-1.855,1.821
																													C238.664,96.747,237.681,96.122,237.588,95.233"/>
																											</g>
																											<g enable-background="new    ">
																												<path fill="#333333" d="M201.25,174.842c0.3-1.255,2.214-1.874,4.271-1.38
																													c2.062,0.492,3.487,1.909,3.188,3.165c-0.3,1.255-2.213,1.873-4.273,1.38
																													C202.376,177.514,200.95,176.097,201.25,174.842"/>
																											</g>
																											<g enable-background="new    ">
																												<path fill="#333333" d="M202.462,162.013c0-2.416,1.127-4.375,2.517-4.375
																													c1.392,0,2.519,1.959,2.519,4.375s-1.127,4.374-2.519,4.374
																													C203.589,166.387,202.462,164.429,202.462,162.013"/>
																											</g>
																											<g enable-background="new    ">
																												<path fill="#333333" d="M202.964,142.816c0.883-1.03,2.982-0.678,4.69,0.786
																													c1.711,1.465,2.38,3.487,1.495,4.517c-0.883,1.03-2.982,0.678-4.69-0.786
																													C202.75,145.868,202.082,143.846,202.964,142.816"/>
																											</g>
																											<g enable-background="new    ">
																												<path fill="#333333" d="M226.072,127.318c0-0.497,0.912-0.899,2.037-0.899
																													c1.126,0,2.038,0.402,2.038,0.899s-0.912,0.899-2.038,0.899
																													C226.984,128.217,226.072,127.815,226.072,127.318"/>
																											</g>
																										</g>
																										<g>
																											<g enable-background="new    ">
																												<path fill="#333333" d="M249.966,147.831c-0.313-0.749-0.155-1.525,0.35-1.735
																													c0.504-0.21,1.165,0.227,1.478,0.976c0.311,0.749,0.152,1.526-0.352,1.735
																													C250.938,149.017,250.277,148.58,249.966,147.831"/>
																											</g>
																											<g enable-background="new    ">
																												<path fill="#333333" d="M247.104,136.006c0-1.754,1.046-3.176,2.337-3.176s2.337,1.422,2.337,3.176
																													s-1.046,3.176-2.337,3.176S247.104,137.76,247.104,136.006"/>
																											</g>
																											<g enable-background="new    ">
																												<path fill="#333333" d="M248.968,170.515c1.508-1.759,3.585-2.451,4.641-1.547
																													c1.057,0.905,0.689,3.064-0.817,4.823s-3.586,2.451-4.643,1.547
																													C247.094,174.433,247.461,172.273,248.968,170.515"/>
																											</g>
																											<g enable-background="new    ">
																												<path fill="#333333" d="M249.441,120.606c0-1.39,0.646-2.517,1.438-2.517s1.438,1.127,1.438,2.517
																													s-0.644,2.517-1.438,2.517S249.441,121.997,249.441,120.606"/>
																											</g>
																											<g enable-background="new    ">
																												<path fill="#333333" d="M244.887,89.807c0-0.993,1.288-1.798,2.876-1.798s2.876,0.805,2.876,1.798
																													c0,0.993-1.288,1.797-2.876,1.797S244.887,90.8,244.887,89.807"/>
																											</g>
																											<g enable-background="new    ">
																												<path fill="#333333" d="M247.494,99.874c0-1.324,1.071-2.397,2.396-2.397s2.397,1.073,2.397,2.397
																													s-1.073,2.396-2.397,2.396S247.494,101.198,247.494,99.874"/>
																											</g>
																										</g>
																									</g>
																								</g>
																							</g>
																						</g>
																					</g>
																				</g>
																			</g>
																		</g>
																	</g>
																</g>
															</g>
														</g>
													</g>
												</g>
											</g>
										</g>
									</g>
								</g>
							</g>
						</g>
					</g>
				</g>
			</g>
		</g>
	</g>
</g>
</svg>
