<?xml version="1.0" encoding="utf-8"?>
<!-- Generator: Adobe Illustrator 14.0.0, SVG Export Plug-In . SVG Version: 6.00 Build 43363)  -->
<!DOCTYPE svg PUBLIC "-//W3C//DTD SVG 1.1//EN" "http://www.w3.org/Graphics/SVG/1.1/DTD/svg11.dtd">
<svg version="1.1" id="Layer_1" xmlns="http://www.w3.org/2000/svg" xmlns:xlink="http://www.w3.org/1999/xlink" x="0px" y="0px"
	 width="640.517px" height="124.951px" viewBox="0 0 640.517 124.951" enable-background="new 0 0 640.517 124.951"
	 xml:space="preserve">
<g>
	<g>
		<g>
			<path fill="#231F20" d="M226.957,45.444h-3.944v5.66h-1.156V37.526h4.411c1.448,0,2.58,0.35,3.395,1.053
				c0.814,0.701,1.222,1.682,1.222,2.943c0,0.869-0.255,1.635-0.765,2.301c-0.51,0.664-1.194,1.123-2.052,1.379l3.395,5.781v0.121
				h-1.222L226.957,45.444z M223.012,44.474h3.516c0.964,0,1.738-0.273,2.322-0.822c0.584-0.547,0.877-1.258,0.877-2.129
				c0-0.959-0.305-1.703-0.914-2.232s-1.464-0.795-2.564-0.795h-3.236V44.474z"/>
			<path fill="#231F20" d="M237.546,51.292c-0.857,0-1.634-0.213-2.326-0.635c-0.693-0.424-1.233-1.012-1.618-1.768
				c-0.386-0.756-0.579-1.604-0.579-2.541v-0.402c0-0.969,0.188-1.842,0.564-2.619s0.9-1.389,1.571-1.834
				c0.672-0.443,1.399-0.666,2.183-0.666c1.225,0,2.196,0.418,2.915,1.254c0.718,0.836,1.077,1.979,1.077,3.428v0.625h-7.2v0.215
				c0,1.145,0.328,2.096,0.983,2.857c0.656,0.762,1.481,1.143,2.477,1.143c0.597,0,1.124-0.107,1.581-0.326
				c0.457-0.217,0.872-0.566,1.245-1.045l0.699,0.531C240.298,50.698,239.107,51.292,237.546,51.292z M237.341,41.778
				c-0.839,0-1.547,0.309-2.121,0.924c-0.575,0.615-0.926,1.441-1.05,2.48h6.053v-0.121c-0.031-0.971-0.308-1.76-0.83-2.369
				S238.187,41.778,237.341,41.778z"/>
			<path fill="#231F20" d="M249.589,48.54c0-0.553-0.223-0.998-0.667-1.334s-1.114-0.598-2.01-0.787
				c-0.895-0.191-1.59-0.408-2.084-0.654c-0.494-0.244-0.861-0.545-1.101-0.898c-0.239-0.355-0.359-0.785-0.359-1.287
				c0-0.797,0.333-1.455,0.998-1.973c0.665-0.52,1.518-0.779,2.556-0.779c1.125,0,2.028,0.277,2.709,0.834s1.021,1.283,1.021,2.178
				h-1.119c0-0.59-0.247-1.082-0.741-1.473c-0.494-0.393-1.118-0.588-1.87-0.588c-0.733,0-1.323,0.164-1.768,0.49
				s-0.667,0.75-0.667,1.271c0,0.504,0.186,0.895,0.556,1.172c0.369,0.275,1.044,0.529,2.023,0.76s1.713,0.475,2.201,0.736
				c0.487,0.262,0.85,0.576,1.086,0.941c0.236,0.367,0.354,0.813,0.354,1.334c0,0.852-0.344,1.533-1.03,2.043
				c-0.688,0.51-1.584,0.766-2.69,0.766c-1.176,0-2.128-0.285-2.858-0.854c-0.731-0.57-1.096-1.289-1.096-2.16h1.119
				c0.043,0.652,0.318,1.162,0.825,1.525s1.177,0.545,2.01,0.545c0.777,0,1.405-0.17,1.884-0.512S249.589,49.062,249.589,48.54z"/>
			<path fill="#231F20" d="M257.15,51.292c-0.857,0-1.634-0.213-2.326-0.635c-0.693-0.424-1.233-1.012-1.618-1.768
				c-0.386-0.756-0.579-1.604-0.579-2.541v-0.402c0-0.969,0.188-1.842,0.564-2.619s0.9-1.389,1.571-1.834
				c0.672-0.443,1.399-0.666,2.183-0.666c1.225,0,2.196,0.418,2.915,1.254c0.718,0.836,1.077,1.979,1.077,3.428v0.625h-7.2v0.215
				c0,1.145,0.328,2.096,0.983,2.857c0.656,0.762,1.481,1.143,2.477,1.143c0.597,0,1.124-0.107,1.581-0.326
				c0.457-0.217,0.872-0.566,1.245-1.045l0.699,0.531C259.902,50.698,258.71,51.292,257.15,51.292z M256.945,41.778
				c-0.839,0-1.547,0.309-2.121,0.924c-0.575,0.615-0.926,1.441-1.05,2.48h6.053v-0.121c-0.031-0.971-0.308-1.76-0.83-2.369
				S257.791,41.778,256.945,41.778z"/>
			<path fill="#231F20" d="M269.549,51.104c-0.111-0.316-0.183-0.787-0.214-1.408c-0.392,0.51-0.891,0.902-1.497,1.18
				s-1.248,0.416-1.926,0.416c-0.97,0-1.755-0.271-2.354-0.813c-0.601-0.541-0.9-1.225-0.9-2.051c0-0.982,0.409-1.76,1.227-2.332
				s1.957-0.857,3.418-0.857h2.023v-1.148c0-0.721-0.222-1.287-0.667-1.701c-0.444-0.414-1.093-0.621-1.944-0.621
				c-0.777,0-1.421,0.199-1.931,0.598s-0.765,0.877-0.765,1.436l-1.119-0.01c0-0.801,0.373-1.496,1.119-2.084
				s1.663-0.881,2.752-0.881c1.125,0,2.013,0.281,2.662,0.844s0.984,1.348,1.003,2.355v4.775c0,0.975,0.103,1.705,0.308,2.191v0.111
				H269.549z M266.043,50.302c0.746,0,1.412-0.18,2-0.541c0.588-0.359,1.015-0.842,1.282-1.445v-2.219h-1.995
				c-1.113,0.012-1.983,0.215-2.611,0.611c-0.629,0.395-0.942,0.936-0.942,1.627c0,0.566,0.21,1.035,0.63,1.408
				C264.826,50.116,265.372,50.302,266.043,50.302z"/>
			<path fill="#231F20" d="M278.095,41.964c-0.236-0.043-0.488-0.064-0.756-0.064c-0.696,0-1.285,0.195-1.767,0.584
				c-0.482,0.387-0.826,0.951-1.031,1.691v6.93h-1.109V41.013h1.091l0.019,1.605c0.591-1.193,1.539-1.791,2.845-1.791
				c0.311,0,0.557,0.041,0.736,0.121L278.095,41.964z"/>
			<path fill="#231F20" d="M283.526,50.349c0.777,0,1.428-0.219,1.954-0.656c0.524-0.439,0.81-1.006,0.853-1.703h1.073
				c-0.031,0.615-0.225,1.178-0.578,1.684c-0.354,0.508-0.826,0.902-1.413,1.189c-0.588,0.285-1.218,0.43-1.889,0.43
				c-1.324,0-2.374-0.461-3.147-1.381c-0.774-0.92-1.161-2.158-1.161-3.713v-0.336c0-0.994,0.174-1.873,0.522-2.639
				c0.348-0.764,0.847-1.355,1.496-1.771s1.41-0.625,2.28-0.625c1.106,0,2.02,0.33,2.737,0.988c0.719,0.66,1.103,1.527,1.152,2.602
				h-1.073c-0.05-0.789-0.334-1.426-0.853-1.912c-0.52-0.484-1.174-0.727-1.964-0.727c-1.007,0-1.789,0.363-2.346,1.092
				c-0.556,0.727-0.834,1.746-0.834,3.059v0.326c0,1.287,0.278,2.291,0.834,3.012C281.727,49.989,282.512,50.349,283.526,50.349z"/>
			<path fill="#231F20" d="M290.891,42.72c0.367-0.602,0.836-1.068,1.408-1.398s1.197-0.494,1.875-0.494
				c1.082,0,1.887,0.305,2.415,0.914s0.796,1.523,0.803,2.742v6.621h-1.11v-6.631c-0.006-0.902-0.197-1.572-0.573-2.014
				s-0.978-0.662-1.805-0.662c-0.69,0-1.301,0.215-1.833,0.646c-0.531,0.434-0.925,1.016-1.18,1.75v6.91h-1.109V36.78h1.109V42.72z"
				/>
			<path fill="#231F20" d="M314.971,49.491c-0.397,0.566-1.021,1.008-1.87,1.324c-0.849,0.316-1.798,0.477-2.849,0.477
				c-1.063,0-2.009-0.256-2.835-0.766c-0.827-0.51-1.468-1.23-1.922-2.164c-0.453-0.932-0.684-2.002-0.689-3.207v-1.717
				c0-1.885,0.476-3.371,1.427-4.463s2.229-1.637,3.833-1.637c1.398,0,2.524,0.355,3.376,1.068c0.852,0.711,1.358,1.693,1.521,2.941
				h-1.147c-0.168-0.998-0.573-1.754-1.217-2.268c-0.644-0.516-1.484-0.771-2.522-0.771c-1.269,0-2.273,0.451-3.013,1.354
				c-0.74,0.902-1.11,2.174-1.11,3.816v1.605c0,1.033,0.176,1.945,0.527,2.74c0.352,0.793,0.854,1.406,1.511,1.842
				s1.41,0.654,2.262,0.654c0.988,0,1.837-0.156,2.546-0.467c0.46-0.205,0.802-0.443,1.026-0.719V45.63h-3.646v-0.971h4.793V49.491z
				"/>
			<path fill="#231F20" d="M322.747,41.964c-0.236-0.043-0.488-0.064-0.756-0.064c-0.696,0-1.285,0.195-1.767,0.584
				c-0.482,0.387-0.826,0.951-1.031,1.691v6.93h-1.109V41.013h1.091l0.019,1.605c0.591-1.193,1.539-1.791,2.845-1.791
				c0.311,0,0.557,0.041,0.736,0.121L322.747,41.964z"/>
			<path fill="#231F20" d="M323.785,45.909c0-0.969,0.188-1.842,0.563-2.619s0.908-1.383,1.595-1.814
				c0.688-0.432,1.466-0.648,2.337-0.648c1.343,0,2.431,0.471,3.264,1.412c0.833,0.943,1.25,2.191,1.25,3.746v0.232
				c0,0.977-0.188,1.854-0.564,2.635c-0.376,0.779-0.906,1.381-1.59,1.805c-0.685,0.422-1.465,0.635-2.341,0.635
				c-1.337,0-2.424-0.473-3.26-1.414s-1.254-2.189-1.254-3.744V45.909z M324.904,46.218c0,1.207,0.312,2.195,0.937,2.971
				c0.625,0.773,1.444,1.16,2.458,1.16c1.007,0,1.823-0.387,2.448-1.16c0.624-0.775,0.937-1.795,0.937-3.064v-0.215
				c0-0.77-0.143-1.477-0.429-2.117c-0.286-0.639-0.688-1.135-1.203-1.486s-1.106-0.527-1.771-0.527
				c-0.995,0-1.807,0.391-2.435,1.17c-0.628,0.781-0.941,1.803-0.941,3.064V46.218z"/>
			<path fill="#231F20" d="M341.688,49.827c-0.672,0.977-1.744,1.465-3.218,1.465c-1.076,0-1.894-0.313-2.453-0.938
				s-0.846-1.551-0.857-2.775v-6.566h1.109v6.426c0,1.922,0.777,2.883,2.332,2.883c1.616,0,2.639-0.668,3.068-2.006v-7.303h1.119
				v10.092h-1.082L341.688,49.827z"/>
			<path fill="#231F20" d="M353.871,46.161c0,1.574-0.348,2.822-1.044,3.744c-0.696,0.924-1.629,1.387-2.798,1.387
				c-1.381,0-2.438-0.486-3.171-1.455v5.146h-1.11V41.013h1.035l0.057,1.428c0.727-1.076,1.781-1.613,3.161-1.613
				c1.206,0,2.152,0.457,2.84,1.371c0.687,0.914,1.03,2.182,1.03,3.805V46.161z M352.751,45.966c0-1.287-0.264-2.303-0.792-3.049
				c-0.529-0.746-1.266-1.119-2.211-1.119c-0.684,0-1.271,0.164-1.763,0.494c-0.491,0.328-0.867,0.807-1.128,1.436v4.84
				c0.267,0.578,0.649,1.02,1.146,1.324c0.498,0.305,1.085,0.457,1.763,0.457c0.939,0,1.671-0.375,2.196-1.123
				C352.489,48.476,352.751,47.39,352.751,45.966z"/>
			<path fill="#231F20" d="M360.371,45.909c0-0.969,0.188-1.842,0.564-2.619s0.908-1.383,1.595-1.814
				c0.688-0.432,1.466-0.648,2.337-0.648c1.343,0,2.431,0.471,3.264,1.412c0.833,0.943,1.25,2.191,1.25,3.746v0.232
				c0,0.977-0.188,1.854-0.564,2.635c-0.376,0.779-0.906,1.381-1.59,1.805c-0.685,0.422-1.465,0.635-2.341,0.635
				c-1.337,0-2.424-0.473-3.26-1.414s-1.255-2.189-1.255-3.744V45.909z M361.49,46.218c0,1.207,0.313,2.195,0.938,2.971
				c0.625,0.773,1.444,1.16,2.458,1.16c1.007,0,1.823-0.387,2.448-1.16c0.624-0.775,0.937-1.795,0.937-3.064v-0.215
				c0-0.77-0.143-1.477-0.429-2.117c-0.286-0.639-0.688-1.135-1.203-1.486s-1.106-0.527-1.771-0.527
				c-0.995,0-1.807,0.391-2.435,1.17c-0.628,0.781-0.942,1.803-0.942,3.064V46.218z"/>
			<path fill="#231F20" d="M372.886,41.013l0.038,1.727c0.379-0.621,0.852-1.096,1.417-1.422c0.566-0.326,1.19-0.49,1.875-0.49
				c1.082,0,1.887,0.305,2.415,0.914s0.796,1.523,0.803,2.742v6.621h-1.11v-6.631c-0.006-0.902-0.197-1.572-0.573-2.014
				s-0.978-0.662-1.805-0.662c-0.69,0-1.301,0.215-1.833,0.646c-0.531,0.434-0.925,1.016-1.18,1.75v6.91h-1.109V41.013H372.886z"/>
		</g>
		<g>
			<path fill="#231F20" d="M239.623,64.319h-7.077v19.25h-4.761v-19.25h-6.982v-3.855h18.82V64.319z"/>
			<path fill="#231F20" d="M247.023,83.886c-2.518,0-4.567-0.771-6.149-2.316c-1.581-1.545-2.372-3.602-2.372-6.172v-0.445
				c0-1.725,0.333-3.266,1-4.625c0.666-1.359,1.61-2.408,2.832-3.143c1.223-0.734,2.616-1.104,4.182-1.104
				c2.349,0,4.197,0.74,5.547,2.223c1.349,1.48,2.023,3.58,2.023,6.299v1.873h-10.935c0.148,1.121,0.596,2.021,1.341,2.697
				c0.746,0.678,1.69,1.016,2.833,1.016c1.767,0,3.147-0.639,4.142-1.92l2.254,2.523c-0.688,0.975-1.619,1.732-2.793,2.277
				C249.752,83.614,248.452,83.886,247.023,83.886z M246.5,69.778c-0.91,0-1.647,0.309-2.214,0.926
				c-0.566,0.615-0.929,1.498-1.087,2.646h6.379v-0.367c-0.021-1.021-0.296-1.811-0.824-2.367
				C248.224,70.058,247.473,69.778,246.5,69.778z"/>
			<path fill="#231F20" d="M265.905,78.825c0-0.561-0.277-1.004-0.833-1.326s-1.446-0.611-2.674-0.865
				c-4.084-0.855-6.125-2.592-6.125-5.205c0-1.523,0.632-2.795,1.896-3.816c1.265-1.02,2.918-1.531,4.96-1.531
				c2.179,0,3.922,0.514,5.229,1.539c1.307,1.027,1.96,2.359,1.96,4h-4.587c0-0.656-0.211-1.199-0.635-1.627
				c-0.423-0.428-1.084-0.643-1.983-0.643c-0.772,0-1.37,0.174-1.793,0.523s-0.635,0.793-0.635,1.334
				c0,0.508,0.24,0.918,0.722,1.229c0.481,0.313,1.294,0.582,2.437,0.811c1.143,0.227,2.104,0.482,2.888,0.77
				c2.423,0.889,3.635,2.428,3.635,4.617c0,1.566-0.673,2.832-2.016,3.801c-1.344,0.969-3.079,1.451-5.205,1.451
				c-1.439,0-2.717-0.256-3.833-0.77c-1.116-0.512-1.991-1.215-2.626-2.109s-0.952-1.859-0.952-2.896h4.349
				c0.042,0.814,0.343,1.439,0.904,1.873c0.561,0.434,1.312,0.65,2.253,0.65c0.878,0,1.542-0.166,1.992-0.5
				C265.68,79.8,265.905,79.364,265.905,78.825z"/>
			<path fill="#231F20" d="M279.047,62.179v4.221h2.937v3.363h-2.937v8.57c0,0.635,0.122,1.09,0.365,1.365
				c0.243,0.273,0.709,0.412,1.396,0.412c0.508,0,0.957-0.037,1.349-0.111v3.475c-0.899,0.275-1.824,0.412-2.777,0.412
				c-3.216,0-4.855-1.623-4.919-4.871v-9.252h-2.507v-3.363h2.507v-4.221H279.047z"/>
			<path fill="#231F20" d="M285.988,89.362l-2.396-1.254l0.571-1.031c0.708-1.291,1.073-2.576,1.095-3.857v-3.555h3.872
				l-0.016,3.174c-0.011,1.176-0.308,2.359-0.889,3.555C287.644,87.589,286.898,88.579,285.988,89.362z"/>
			<path fill="#231F20" d="M303.49,77.841l5.236-17.377h5.301l-8.046,23.105h-4.967L293,60.464h5.284L303.49,77.841z"/>
			<path fill="#231F20" d="M324.546,83.569c-0.212-0.412-0.365-0.926-0.461-1.539c-1.11,1.238-2.555,1.855-4.332,1.855
				c-1.682,0-3.076-0.486-4.182-1.459s-1.658-2.201-1.658-3.682c0-1.82,0.675-3.217,2.023-4.189s3.298-1.465,5.848-1.477h2.11
				v-0.982c0-0.795-0.203-1.43-0.61-1.904c-0.408-0.477-1.051-0.715-1.929-0.715c-0.772,0-1.378,0.186-1.816,0.555
				c-0.439,0.371-0.659,0.879-0.659,1.523h-4.586c0-0.994,0.307-1.914,0.92-2.76c0.614-0.848,1.481-1.512,2.604-1.992
				c1.121-0.48,2.38-0.723,3.776-0.723c2.116,0,3.795,0.531,5.038,1.596c1.243,1.063,1.865,2.557,1.865,4.482v7.443
				c0.01,1.629,0.238,2.861,0.682,3.697v0.27H324.546z M320.753,80.38c0.677,0,1.301-0.15,1.872-0.453
				c0.571-0.301,0.994-0.705,1.27-1.213v-2.953h-1.714c-2.296,0-3.518,0.795-3.666,2.381l-0.016,0.27
				c0,0.572,0.201,1.043,0.604,1.412C319.504,80.194,320.055,80.38,320.753,80.38z"/>
			<path fill="#231F20" d="M336.786,83.569h-4.603V59.194h4.603V83.569z"/>
			<path fill="#231F20" d="M340.342,61.956c0-0.688,0.23-1.254,0.69-1.699c0.46-0.443,1.087-0.666,1.881-0.666
				c0.782,0,1.406,0.223,1.872,0.666c0.466,0.445,0.698,1.012,0.698,1.699c0,0.697-0.235,1.27-0.706,1.713
				c-0.471,0.445-1.093,0.666-1.864,0.666c-0.772,0-1.395-0.221-1.865-0.666C340.578,63.226,340.342,62.653,340.342,61.956z
				 M345.214,83.569h-4.602v-17.17h4.602V83.569z"/>
			<path fill="#231F20" d="M348.16,74.856c0-2.676,0.601-4.807,1.802-6.395c1.2-1.588,2.843-2.381,4.927-2.381
				c1.672,0,3.053,0.625,4.143,1.873v-8.76h4.602v24.375h-4.142l-0.222-1.824c-1.143,1.428-2.613,2.141-4.412,2.141
				c-2.021,0-3.642-0.795-4.864-2.387C348.771,79.907,348.16,77.692,348.16,74.856z M352.747,75.198c0,1.611,0.28,2.846,0.841,3.703
				c0.561,0.859,1.375,1.287,2.443,1.287c1.418,0,2.418-0.598,3-1.795v-6.787c-0.571-1.197-1.561-1.795-2.968-1.795
				C353.852,69.812,352.747,71.606,352.747,75.198z"/>
			<path fill="#231F20" d="M377.136,83.569c-0.211-0.412-0.364-0.926-0.46-1.539c-1.11,1.238-2.555,1.855-4.332,1.855
				c-1.683,0-3.076-0.486-4.182-1.459s-1.658-2.201-1.658-3.682c0-1.82,0.675-3.217,2.023-4.189s3.298-1.465,5.848-1.477h2.11
				v-0.982c0-0.795-0.203-1.43-0.61-1.904c-0.408-0.477-1.051-0.715-1.929-0.715c-0.772,0-1.378,0.186-1.816,0.555
				c-0.439,0.371-0.659,0.879-0.659,1.523h-4.586c0-0.994,0.307-1.914,0.921-2.76c0.613-0.848,1.48-1.512,2.602-1.992
				c1.122-0.48,2.381-0.723,3.777-0.723c2.116,0,3.795,0.531,5.038,1.596c1.243,1.063,1.865,2.557,1.865,4.482v7.443
				c0.01,1.629,0.237,2.861,0.683,3.697v0.27H377.136z M373.344,80.38c0.677,0,1.301-0.15,1.872-0.453
				c0.571-0.301,0.994-0.705,1.27-1.213v-2.953h-1.714c-2.296,0-3.518,0.795-3.665,2.381l-0.017,0.27
				c0,0.572,0.201,1.043,0.604,1.412C372.095,80.194,372.646,80.38,373.344,80.38z"/>
			<path fill="#231F20" d="M390.046,62.179v4.221h2.936v3.363h-2.936v8.57c0,0.635,0.122,1.09,0.365,1.365
				c0.243,0.273,0.709,0.412,1.396,0.412c0.508,0,0.957-0.037,1.349-0.111v3.475c-0.899,0.275-1.825,0.412-2.776,0.412
				c-3.217,0-4.856-1.623-4.92-4.871v-9.252h-2.508v-3.363h2.508v-4.221H390.046z"/>
			<path fill="#231F20" d="M395.34,61.956c0-0.688,0.23-1.254,0.69-1.699c0.46-0.443,1.087-0.666,1.881-0.666
				c0.782,0,1.406,0.223,1.872,0.666c0.466,0.445,0.698,1.012,0.698,1.699c0,0.697-0.235,1.27-0.706,1.713
				c-0.471,0.445-1.093,0.666-1.864,0.666c-0.772,0-1.395-0.221-1.865-0.666C395.576,63.226,395.34,62.653,395.34,61.956z
				 M400.212,83.569h-4.602v-17.17h4.602V83.569z"/>
			<path fill="#231F20" d="M403.095,74.825c0-1.703,0.328-3.221,0.984-4.555c0.656-1.332,1.6-2.363,2.833-3.094
				c1.232-0.73,2.663-1.096,4.292-1.096c2.317,0,4.208,0.709,5.674,2.127c1.465,1.418,2.282,3.344,2.451,5.775l0.032,1.176
				c0,2.633-0.735,4.748-2.206,6.34s-3.443,2.387-5.919,2.387s-4.451-0.793-5.928-2.379c-1.476-1.588-2.214-3.746-2.214-6.475
				V74.825z M407.682,75.151c0,1.631,0.307,2.879,0.92,3.742s1.492,1.295,2.635,1.295c1.11,0,1.978-0.426,2.603-1.279
				c0.624-0.852,0.936-2.217,0.936-4.092c0-1.6-0.312-2.84-0.936-3.719c-0.625-0.879-1.503-1.32-2.635-1.32
				c-1.121,0-1.989,0.438-2.603,1.313C407.989,71.964,407.682,73.317,407.682,75.151z"/>
			<path fill="#231F20" d="M426.476,66.399l0.143,1.982c1.228-1.533,2.873-2.301,4.936-2.301c1.819,0,3.174,0.535,4.063,1.604
				s1.344,2.666,1.365,4.793v11.092h-4.586v-10.98c0-0.975-0.212-1.68-0.635-2.119c-0.424-0.439-1.127-0.658-2.111-0.658
				c-1.291,0-2.259,0.549-2.904,1.65v12.107h-4.586v-17.17H426.476z"/>
			<path fill="#231F20" d="M456.224,83.569c-0.211-0.412-0.364-0.926-0.46-1.539c-1.11,1.238-2.555,1.855-4.332,1.855
				c-1.683,0-3.076-0.486-4.182-1.459s-1.658-2.201-1.658-3.682c0-1.82,0.675-3.217,2.023-4.189s3.298-1.465,5.848-1.477h2.11
				v-0.982c0-0.795-0.203-1.43-0.61-1.904c-0.408-0.477-1.051-0.715-1.929-0.715c-0.772,0-1.378,0.186-1.816,0.555
				c-0.439,0.371-0.659,0.879-0.659,1.523h-4.586c0-0.994,0.307-1.914,0.921-2.76c0.613-0.848,1.48-1.512,2.602-1.992
				c1.122-0.48,2.381-0.723,3.777-0.723c2.116,0,3.795,0.531,5.038,1.596c1.243,1.063,1.865,2.557,1.865,4.482v7.443
				c0.01,1.629,0.237,2.861,0.683,3.697v0.27H456.224z M452.432,80.38c0.677,0,1.301-0.15,1.872-0.453
				c0.571-0.301,0.994-0.705,1.27-1.213v-2.953h-1.714c-2.296,0-3.518,0.795-3.665,2.381l-0.017,0.27
				c0,0.572,0.201,1.043,0.604,1.412C451.183,80.194,451.734,80.38,452.432,80.38z"/>
			<path fill="#231F20" d="M467.979,66.399l0.144,1.982c1.227-1.533,2.872-2.301,4.935-2.301c1.819,0,3.174,0.535,4.063,1.604
				s1.344,2.666,1.365,4.793v11.092h-4.587v-10.98c0-0.975-0.211-1.68-0.635-2.119c-0.423-0.439-1.126-0.658-2.11-0.658
				c-1.291,0-2.259,0.549-2.903,1.65v12.107h-4.587v-17.17H467.979z"/>
			<path fill="#231F20" d="M481.304,74.856c0-2.676,0.601-4.807,1.802-6.395c1.2-1.588,2.843-2.381,4.927-2.381
				c1.672,0,3.053,0.625,4.143,1.873v-8.76h4.602v24.375h-4.142l-0.222-1.824c-1.143,1.428-2.613,2.141-4.412,2.141
				c-2.021,0-3.642-0.795-4.864-2.387C481.916,79.907,481.304,77.692,481.304,74.856z M485.891,75.198
				c0,1.611,0.28,2.846,0.841,3.703c0.561,0.859,1.375,1.287,2.443,1.287c1.418,0,2.418-0.598,3-1.795v-6.787
				c-0.571-1.197-1.561-1.795-2.968-1.795C486.997,69.812,485.891,71.606,485.891,75.198z"/>
			<path fill="#231F20" d="M518.521,78.808h-8.348l-1.586,4.762h-5.063l8.601-23.105h4.412l8.648,23.105h-5.063L518.521,78.808z
				 M511.459,74.952h5.776l-2.904-8.648L511.459,74.952z"/>
			<path fill="#231F20" d="M531.546,66.399l0.143,1.982c1.228-1.533,2.873-2.301,4.936-2.301c1.819,0,3.174,0.535,4.063,1.604
				s1.344,2.666,1.365,4.793v11.092h-4.586v-10.98c0-0.975-0.212-1.68-0.635-2.119c-0.424-0.439-1.127-0.658-2.111-0.658
				c-1.291,0-2.259,0.549-2.904,1.65v12.107h-4.586v-17.17H531.546z"/>
			<path fill="#231F20" d="M555.416,83.569c-0.212-0.412-0.365-0.926-0.461-1.539c-1.11,1.238-2.555,1.855-4.332,1.855
				c-1.682,0-3.076-0.486-4.182-1.459s-1.658-2.201-1.658-3.682c0-1.82,0.675-3.217,2.023-4.189s3.298-1.465,5.848-1.477h2.11
				v-0.982c0-0.795-0.203-1.43-0.61-1.904c-0.408-0.477-1.051-0.715-1.929-0.715c-0.772,0-1.378,0.186-1.816,0.555
				c-0.439,0.371-0.659,0.879-0.659,1.523h-4.586c0-0.994,0.307-1.914,0.92-2.76c0.614-0.848,1.481-1.512,2.604-1.992
				c1.121-0.48,2.38-0.723,3.776-0.723c2.116,0,3.795,0.531,5.038,1.596c1.243,1.063,1.865,2.557,1.865,4.482v7.443
				c0.01,1.629,0.238,2.861,0.682,3.697v0.27H555.416z M551.623,80.38c0.677,0,1.301-0.15,1.872-0.453
				c0.571-0.301,0.994-0.705,1.27-1.213v-2.953h-1.714c-2.296,0-3.518,0.795-3.666,2.381l-0.016,0.27
				c0,0.572,0.201,1.043,0.604,1.412C550.374,80.194,550.924,80.38,551.623,80.38z"/>
			<path fill="#231F20" d="M567.655,83.569h-4.603V59.194h4.603V83.569z"/>
			<path fill="#231F20" d="M577.843,77.079l3.174-10.68h4.919l-6.903,19.836l-0.381,0.904c-1.025,2.242-2.719,3.365-5.078,3.365
				c-0.666,0-1.343-0.102-2.031-0.303v-3.475l0.699,0.016c0.867,0,1.515-0.133,1.943-0.396c0.429-0.266,0.765-0.703,1.008-1.316
				l0.539-1.414l-6.014-17.217h4.936L577.843,77.079z"/>
			<path fill="#231F20" d="M596.712,78.825c0-0.561-0.277-1.004-0.833-1.326s-1.446-0.611-2.674-0.865
				c-4.084-0.855-6.126-2.592-6.126-5.205c0-1.523,0.633-2.795,1.896-3.816c1.265-1.02,2.918-1.531,4.959-1.531
				c2.18,0,3.923,0.514,5.229,1.539c1.307,1.027,1.96,2.359,1.96,4h-4.586c0-0.656-0.212-1.199-0.635-1.627
				c-0.424-0.428-1.085-0.643-1.984-0.643c-0.772,0-1.37,0.174-1.793,0.523s-0.635,0.793-0.635,1.334
				c0,0.508,0.24,0.918,0.722,1.229c0.481,0.313,1.294,0.582,2.437,0.811c1.143,0.227,2.104,0.482,2.888,0.77
				c2.423,0.889,3.634,2.428,3.634,4.617c0,1.566-0.672,2.832-2.015,3.801c-1.344,0.969-3.079,1.451-5.205,1.451
				c-1.439,0-2.717-0.256-3.833-0.77c-1.116-0.512-1.991-1.215-2.626-2.109s-0.952-1.859-0.952-2.896h4.348
				c0.043,0.814,0.344,1.439,0.905,1.873c0.561,0.434,1.312,0.65,2.253,0.65c0.878,0,1.542-0.166,1.992-0.5
				C596.488,79.8,596.712,79.364,596.712,78.825z"/>
			<path fill="#231F20" d="M603.961,61.956c0-0.688,0.23-1.254,0.69-1.699c0.46-0.443,1.087-0.666,1.881-0.666
				c0.782,0,1.406,0.223,1.872,0.666c0.466,0.445,0.698,1.012,0.698,1.699c0,0.697-0.235,1.27-0.706,1.713
				c-0.471,0.445-1.093,0.666-1.864,0.666c-0.772,0-1.395-0.221-1.865-0.666C604.197,63.226,603.961,62.653,603.961,61.956z
				 M608.833,83.569h-4.602v-17.17h4.602V83.569z"/>
			<path fill="#231F20" d="M621.748,78.825c0-0.561-0.277-1.004-0.833-1.326s-1.446-0.611-2.674-0.865
				c-4.084-0.855-6.126-2.592-6.126-5.205c0-1.523,0.633-2.795,1.896-3.816c1.265-1.02,2.918-1.531,4.959-1.531
				c2.18,0,3.923,0.514,5.229,1.539c1.307,1.027,1.96,2.359,1.96,4h-4.586c0-0.656-0.212-1.199-0.635-1.627
				c-0.424-0.428-1.085-0.643-1.984-0.643c-0.772,0-1.37,0.174-1.793,0.523s-0.635,0.793-0.635,1.334
				c0,0.508,0.24,0.918,0.722,1.229c0.481,0.313,1.294,0.582,2.437,0.811c1.143,0.227,2.104,0.482,2.888,0.77
				c2.423,0.889,3.634,2.428,3.634,4.617c0,1.566-0.672,2.832-2.015,3.801c-1.344,0.969-3.079,1.451-5.205,1.451
				c-1.439,0-2.717-0.256-3.833-0.77c-1.116-0.512-1.991-1.215-2.626-2.109s-0.952-1.859-0.952-2.896h4.348
				c0.043,0.814,0.344,1.439,0.905,1.873c0.561,0.434,1.312,0.65,2.253,0.65c0.878,0,1.542-0.166,1.992-0.5
				C621.523,79.8,621.748,79.364,621.748,78.825z"/>
		</g>
		<g>
			<path fill="#231F20" d="M371.295,101.511c0-0.969,0.188-1.842,0.564-2.619s0.908-1.383,1.595-1.814
				c0.688-0.432,1.466-0.648,2.337-0.648c1.343,0,2.431,0.471,3.264,1.412c0.833,0.943,1.25,2.191,1.25,3.746v0.232
				c0,0.977-0.188,1.854-0.564,2.635c-0.376,0.779-0.906,1.381-1.59,1.805c-0.685,0.422-1.465,0.635-2.341,0.635
				c-1.337,0-2.424-0.473-3.26-1.414s-1.255-2.189-1.255-3.744V101.511z M372.415,101.819c0,1.207,0.313,2.195,0.938,2.971
				c0.625,0.773,1.444,1.16,2.458,1.16c1.007,0,1.823-0.387,2.448-1.16c0.624-0.775,0.937-1.795,0.937-3.064v-0.215
				c0-0.77-0.143-1.477-0.429-2.117c-0.286-0.639-0.688-1.135-1.203-1.486s-1.106-0.527-1.771-0.527
				c-0.995,0-1.807,0.391-2.435,1.17c-0.628,0.781-0.942,1.803-0.942,3.064V101.819z"/>
			<path fill="#231F20" d="M383.177,106.706v-9.178h-1.669v-0.914h1.669v-1.221c0-1.031,0.263-1.824,0.788-2.379
				c0.525-0.553,1.258-0.83,2.196-0.83c0.423,0,0.817,0.053,1.185,0.158l-0.084,0.924c-0.311-0.074-0.649-0.111-1.017-0.111
				c-0.615,0-1.095,0.191-1.437,0.574c-0.342,0.385-0.513,0.928-0.513,1.633v1.252h2.406v0.914h-2.406v9.178H383.177z"/>
			<path fill="#231F20" d="M401.289,103.368c0-0.754-0.264-1.348-0.792-1.787c-0.529-0.438-1.496-0.855-2.9-1.25
				c-1.405-0.395-2.432-0.824-3.078-1.291c-0.92-0.658-1.38-1.523-1.38-2.592c0-1.039,0.427-1.883,1.282-2.533
				c0.854-0.65,1.947-0.975,3.278-0.975c0.901,0,1.708,0.174,2.42,0.523c0.712,0.348,1.264,0.832,1.655,1.453
				c0.392,0.623,0.588,1.316,0.588,2.08h-1.157c0-0.928-0.316-1.676-0.951-2.24c-0.634-0.564-1.485-0.846-2.555-0.846
				c-1.039,0-1.865,0.23-2.481,0.695c-0.615,0.465-0.923,1.07-0.923,1.816c0,0.691,0.276,1.256,0.83,1.691
				c0.553,0.436,1.439,0.82,2.658,1.154c1.218,0.332,2.142,0.678,2.77,1.035s1.101,0.785,1.418,1.283
				c0.316,0.496,0.476,1.084,0.476,1.762c0,1.07-0.428,1.928-1.283,2.574c-0.854,0.646-1.981,0.971-3.38,0.971
				c-0.958,0-1.836-0.172-2.635-0.514s-1.405-0.82-1.819-1.436c-0.413-0.617-0.62-1.322-0.62-2.117h1.147
				c0,0.957,0.357,1.713,1.072,2.266s1.666,0.83,2.854,0.83c1.057,0,1.905-0.232,2.546-0.699
				C400.968,104.757,401.289,104.138,401.289,103.368z"/>
			<path fill="#231F20" d="M404.434,101.511c0-0.969,0.188-1.842,0.563-2.619s0.908-1.383,1.595-1.814
				c0.688-0.432,1.466-0.648,2.337-0.648c1.343,0,2.431,0.471,3.264,1.412c0.833,0.943,1.25,2.191,1.25,3.746v0.232
				c0,0.977-0.188,1.854-0.564,2.635c-0.376,0.779-0.906,1.381-1.59,1.805c-0.685,0.422-1.465,0.635-2.341,0.635
				c-1.337,0-2.424-0.473-3.26-1.414s-1.254-2.189-1.254-3.744V101.511z M405.553,101.819c0,1.207,0.312,2.195,0.937,2.971
				c0.625,0.773,1.444,1.16,2.458,1.16c1.007,0,1.823-0.387,2.448-1.16c0.624-0.775,0.937-1.795,0.937-3.064v-0.215
				c0-0.77-0.143-1.477-0.429-2.117c-0.286-0.639-0.688-1.135-1.203-1.486s-1.106-0.527-1.771-0.527
				c-0.995,0-1.807,0.391-2.435,1.17c-0.628,0.781-0.941,1.803-0.941,3.064V101.819z"/>
			<path fill="#231F20" d="M416.315,106.706v-9.178h-1.669v-0.914h1.669v-1.221c0-1.031,0.263-1.824,0.788-2.379
				c0.525-0.553,1.258-0.83,2.196-0.83c0.423,0,0.817,0.053,1.185,0.158l-0.084,0.924c-0.311-0.074-0.649-0.111-1.017-0.111
				c-0.615,0-1.095,0.191-1.437,0.574c-0.342,0.385-0.513,0.928-0.513,1.633v1.252h2.406v0.914h-2.406v9.178H416.315z"/>
			<path fill="#231F20" d="M424.214,94.032v2.582h2.089v0.914h-2.089v6.732c0,0.561,0.102,0.977,0.303,1.252
				c0.202,0.273,0.54,0.41,1.013,0.41c0.187,0,0.487-0.031,0.904-0.094l0.047,0.906c-0.293,0.105-0.69,0.158-1.194,0.158
				c-0.765,0-1.321-0.223-1.669-0.668c-0.349-0.443-0.522-1.1-0.522-1.963v-6.734h-1.855v-0.914h1.855v-2.582H424.214z"/>
			<path fill="#231F20" d="M431.355,104.384l0.168,0.867l0.224-0.914l2.425-7.723h0.951l2.397,7.658l0.261,1.063l0.215-0.979
				l2.07-7.742h1.156l-2.938,10.092h-0.951l-2.593-8.002l-0.121-0.551l-0.121,0.561l-2.547,7.992H431l-2.928-10.092h1.146
				L431.355,104.384z"/>
			<path fill="#231F20" d="M449.548,106.706c-0.111-0.316-0.183-0.787-0.214-1.408c-0.392,0.51-0.891,0.902-1.497,1.18
				s-1.248,0.416-1.926,0.416c-0.97,0-1.755-0.271-2.354-0.813c-0.601-0.541-0.9-1.225-0.9-2.051c0-0.982,0.409-1.76,1.227-2.332
				s1.957-0.857,3.418-0.857h2.023v-1.148c0-0.721-0.222-1.287-0.667-1.701c-0.444-0.414-1.093-0.621-1.944-0.621
				c-0.777,0-1.421,0.199-1.931,0.598s-0.765,0.877-0.765,1.436l-1.119-0.01c0-0.801,0.373-1.496,1.119-2.084
				s1.663-0.881,2.752-0.881c1.125,0,2.013,0.281,2.662,0.844s0.984,1.348,1.003,2.355v4.775c0,0.975,0.103,1.705,0.308,2.191v0.111
				H449.548z M446.042,105.903c0.746,0,1.412-0.18,2-0.541c0.588-0.359,1.015-0.842,1.282-1.445v-2.219h-1.995
				c-1.113,0.012-1.983,0.215-2.611,0.611c-0.629,0.395-0.942,0.936-0.942,1.627c0,0.566,0.21,1.035,0.63,1.408
				C444.825,105.718,445.371,105.903,446.042,105.903z"/>
			<path fill="#231F20" d="M458.093,97.565c-0.236-0.043-0.488-0.064-0.756-0.064c-0.696,0-1.285,0.195-1.767,0.584
				c-0.482,0.387-0.826,0.951-1.031,1.691v6.93h-1.109V96.614h1.091l0.019,1.605c0.591-1.193,1.539-1.791,2.845-1.791
				c0.311,0,0.557,0.041,0.736,0.121L458.093,97.565z"/>
			<path fill="#231F20" d="M463.645,106.894c-0.857,0-1.634-0.213-2.326-0.635c-0.693-0.424-1.233-1.012-1.618-1.768
				c-0.386-0.756-0.579-1.604-0.579-2.541v-0.402c0-0.969,0.188-1.842,0.564-2.619s0.9-1.389,1.571-1.834
				c0.672-0.443,1.399-0.666,2.183-0.666c1.225,0,2.196,0.418,2.915,1.254c0.718,0.836,1.077,1.979,1.077,3.428v0.625h-7.2v0.215
				c0,1.145,0.328,2.096,0.983,2.857c0.656,0.762,1.481,1.143,2.477,1.143c0.597,0,1.124-0.107,1.581-0.326
				c0.457-0.217,0.872-0.566,1.245-1.045l0.699,0.531C466.397,106.3,465.206,106.894,463.645,106.894z M463.44,97.38
				c-0.839,0-1.547,0.309-2.121,0.924c-0.575,0.615-0.926,1.441-1.05,2.48h6.053v-0.121c-0.031-0.971-0.308-1.76-0.83-2.369
				S464.286,97.38,463.44,97.38z"/>
			<path fill="#231F20" d="M473.872,101.185h-4.467v-0.941h4.467V101.185z"/>
			<path fill="#231F20" d="M478.006,106.706h-1.147V93.128h1.147V106.706z"/>
			<path fill="#231F20" d="M482.477,96.614l0.037,1.727c0.379-0.621,0.852-1.096,1.417-1.422c0.566-0.326,1.19-0.49,1.875-0.49
				c1.082,0,1.887,0.305,2.415,0.914s0.796,1.523,0.803,2.742v6.621h-1.11v-6.631c-0.006-0.902-0.197-1.572-0.573-2.014
				s-0.978-0.662-1.805-0.662c-0.69,0-1.301,0.215-1.833,0.646c-0.531,0.434-0.925,1.016-1.18,1.75v6.91h-1.109V96.614H482.477z"/>
			<path fill="#231F20" d="M493.625,94.032v2.582h2.089v0.914h-2.089v6.732c0,0.561,0.102,0.977,0.303,1.252
				c0.202,0.273,0.54,0.41,1.013,0.41c0.187,0,0.487-0.031,0.904-0.094l0.047,0.906c-0.293,0.105-0.69,0.158-1.194,0.158
				c-0.765,0-1.321-0.223-1.669-0.668c-0.349-0.443-0.522-1.1-0.522-1.963v-6.734h-1.855v-0.914h1.855v-2.582H493.625z"/>
			<path fill="#231F20" d="M501.559,106.894c-0.857,0-1.634-0.213-2.326-0.635c-0.693-0.424-1.233-1.012-1.618-1.768
				c-0.386-0.756-0.579-1.604-0.579-2.541v-0.402c0-0.969,0.188-1.842,0.564-2.619s0.9-1.389,1.571-1.834
				c0.672-0.443,1.399-0.666,2.183-0.666c1.225,0,2.196,0.418,2.915,1.254c0.718,0.836,1.077,1.979,1.077,3.428v0.625h-7.2v0.215
				c0,1.145,0.328,2.096,0.983,2.857c0.656,0.762,1.481,1.143,2.477,1.143c0.597,0,1.124-0.107,1.581-0.326
				c0.457-0.217,0.872-0.566,1.245-1.045l0.699,0.531C504.311,106.3,503.12,106.894,501.559,106.894z M501.354,97.38
				c-0.839,0-1.547,0.309-2.121,0.924c-0.575,0.615-0.926,1.441-1.05,2.48h6.053v-0.121c-0.031-0.971-0.308-1.76-0.83-2.369
				S502.2,97.38,501.354,97.38z"/>
			<path fill="#231F20" d="M508.733,96.614l0.038,1.727c0.379-0.621,0.852-1.096,1.417-1.422c0.566-0.326,1.19-0.49,1.875-0.49
				c1.082,0,1.887,0.305,2.415,0.914s0.796,1.523,0.803,2.742v6.621h-1.11v-6.631c-0.006-0.902-0.197-1.572-0.573-2.014
				s-0.978-0.662-1.805-0.662c-0.69,0-1.301,0.215-1.833,0.646c-0.531,0.434-0.925,1.016-1.18,1.75v6.91h-1.109V96.614H508.733z"/>
			<path fill="#231F20" d="M524.19,104.142c0-0.553-0.223-0.998-0.667-1.334s-1.114-0.598-2.01-0.787
				c-0.895-0.191-1.59-0.408-2.084-0.654c-0.494-0.244-0.861-0.545-1.101-0.898c-0.239-0.355-0.359-0.785-0.359-1.287
				c0-0.797,0.333-1.455,0.998-1.973c0.665-0.52,1.518-0.779,2.556-0.779c1.125,0,2.028,0.277,2.709,0.834s1.021,1.283,1.021,2.178
				h-1.119c0-0.59-0.247-1.082-0.741-1.473c-0.494-0.393-1.118-0.588-1.87-0.588c-0.733,0-1.323,0.164-1.768,0.49
				s-0.667,0.75-0.667,1.271c0,0.504,0.186,0.895,0.556,1.172c0.369,0.275,1.044,0.529,2.023,0.76s1.713,0.475,2.201,0.736
				c0.487,0.262,0.85,0.576,1.086,0.941c0.236,0.367,0.354,0.813,0.354,1.334c0,0.852-0.344,1.533-1.03,2.043
				c-0.688,0.51-1.584,0.766-2.69,0.766c-1.176,0-2.128-0.285-2.858-0.854c-0.731-0.57-1.096-1.289-1.096-2.16h1.119
				c0.043,0.652,0.318,1.162,0.825,1.525s1.177,0.545,2.01,0.545c0.777,0,1.405-0.17,1.884-0.512S524.19,104.663,524.19,104.142z"/>
			<path fill="#231F20" d="M527.71,93.7c0-0.209,0.068-0.387,0.205-0.533c0.137-0.145,0.323-0.217,0.56-0.217
				s0.425,0.072,0.564,0.217c0.14,0.146,0.21,0.324,0.21,0.533c0,0.211-0.07,0.387-0.21,0.529s-0.328,0.213-0.564,0.213
				s-0.423-0.07-0.56-0.213S527.71,93.911,527.71,93.7z M529.026,106.706h-1.119V96.614h1.119V106.706z"/>
			<path fill="#231F20" d="M535.284,105.167l3.068-8.553h1.147l-3.768,10.092h-0.905l-3.786-10.092h1.147L535.284,105.167z"/>
			<path fill="#231F20" d="M545.062,106.894c-0.857,0-1.634-0.213-2.326-0.635c-0.693-0.424-1.233-1.012-1.618-1.768
				c-0.386-0.756-0.578-1.604-0.578-2.541v-0.402c0-0.969,0.188-1.842,0.563-2.619s0.9-1.389,1.571-1.834
				c0.672-0.443,1.399-0.666,2.183-0.666c1.225,0,2.196,0.418,2.915,1.254c0.718,0.836,1.077,1.979,1.077,3.428v0.625h-7.2v0.215
				c0,1.145,0.328,2.096,0.983,2.857c0.656,0.762,1.481,1.143,2.477,1.143c0.597,0,1.124-0.107,1.581-0.326
				c0.457-0.217,0.872-0.566,1.245-1.045l0.699,0.531C547.813,106.3,546.623,106.894,545.062,106.894z M544.857,97.38
				c-0.839,0-1.547,0.309-2.121,0.924c-0.575,0.615-0.926,1.441-1.05,2.48h6.053v-0.121c-0.031-0.971-0.308-1.76-0.83-2.369
				S545.703,97.38,544.857,97.38z"/>
			<path fill="#231F20" d="M563.612,103.368c0-0.754-0.264-1.348-0.792-1.787c-0.529-0.438-1.496-0.855-2.9-1.25
				c-1.405-0.395-2.432-0.824-3.078-1.291c-0.92-0.658-1.38-1.523-1.38-2.592c0-1.039,0.427-1.883,1.282-2.533
				c0.854-0.65,1.947-0.975,3.278-0.975c0.901,0,1.708,0.174,2.42,0.523c0.712,0.348,1.264,0.832,1.655,1.453
				c0.392,0.623,0.588,1.316,0.588,2.08h-1.157c0-0.928-0.316-1.676-0.951-2.24c-0.634-0.564-1.485-0.846-2.555-0.846
				c-1.039,0-1.865,0.23-2.481,0.695c-0.615,0.465-0.923,1.07-0.923,1.816c0,0.691,0.276,1.256,0.83,1.691
				c0.553,0.436,1.439,0.82,2.658,1.154c1.218,0.332,2.142,0.678,2.77,1.035s1.101,0.785,1.418,1.283
				c0.316,0.496,0.476,1.084,0.476,1.762c0,1.07-0.428,1.928-1.283,2.574c-0.854,0.646-1.981,0.971-3.38,0.971
				c-0.958,0-1.836-0.172-2.635-0.514s-1.405-0.82-1.819-1.436c-0.413-0.617-0.62-1.322-0.62-2.117h1.147
				c0,0.957,0.357,1.713,1.072,2.266s1.666,0.83,2.854,0.83c1.057,0,1.905-0.232,2.546-0.699
				C563.292,104.757,563.612,104.138,563.612,103.368z"/>
			<path fill="#231F20" d="M570.818,105.103l2.947-8.488h1.203l-4.309,11.809l-0.224,0.521c-0.554,1.225-1.408,1.838-2.564,1.838
				c-0.268,0-0.554-0.045-0.858-0.131l-0.009-0.924l0.578,0.057c0.547,0,0.989-0.135,1.328-0.406
				c0.339-0.27,0.627-0.734,0.863-1.395l0.494-1.361l-3.805-10.008h1.222L570.818,105.103z"/>
			<path fill="#231F20" d="M582.702,104.142c0-0.553-0.223-0.998-0.667-1.334s-1.114-0.598-2.01-0.787
				c-0.895-0.191-1.59-0.408-2.084-0.654c-0.494-0.244-0.861-0.545-1.101-0.898c-0.239-0.355-0.359-0.785-0.359-1.287
				c0-0.797,0.333-1.455,0.998-1.973c0.665-0.52,1.518-0.779,2.556-0.779c1.125,0,2.028,0.277,2.709,0.834s1.021,1.283,1.021,2.178
				h-1.119c0-0.59-0.247-1.082-0.741-1.473c-0.494-0.393-1.118-0.588-1.87-0.588c-0.733,0-1.323,0.164-1.768,0.49
				s-0.667,0.75-0.667,1.271c0,0.504,0.186,0.895,0.556,1.172c0.369,0.275,1.044,0.529,2.023,0.76s1.713,0.475,2.201,0.736
				c0.487,0.262,0.85,0.576,1.086,0.941c0.236,0.367,0.354,0.813,0.354,1.334c0,0.852-0.344,1.533-1.03,2.043
				c-0.688,0.51-1.584,0.766-2.69,0.766c-1.176,0-2.128-0.285-2.858-0.854c-0.731-0.57-1.096-1.289-1.096-2.16h1.119
				c0.043,0.652,0.318,1.162,0.825,1.525s1.177,0.545,2.01,0.545c0.777,0,1.405-0.17,1.884-0.512S582.702,104.663,582.702,104.142z"
				/>
			<path fill="#231F20" d="M588.167,94.032v2.582h2.089v0.914h-2.089v6.732c0,0.561,0.102,0.977,0.303,1.252
				c0.202,0.273,0.54,0.41,1.013,0.41c0.187,0,0.487-0.031,0.904-0.094l0.047,0.906c-0.293,0.105-0.69,0.158-1.194,0.158
				c-0.765,0-1.321-0.223-1.669-0.668c-0.349-0.443-0.522-1.1-0.522-1.963v-6.734h-1.855v-0.914h1.855v-2.582H588.167z"/>
			<path fill="#231F20" d="M596.103,106.894c-0.857,0-1.634-0.213-2.326-0.635c-0.693-0.424-1.233-1.012-1.618-1.768
				c-0.386-0.756-0.578-1.604-0.578-2.541v-0.402c0-0.969,0.188-1.842,0.563-2.619s0.9-1.389,1.571-1.834
				c0.672-0.443,1.399-0.666,2.183-0.666c1.225,0,2.196,0.418,2.915,1.254c0.718,0.836,1.077,1.979,1.077,3.428v0.625h-7.2v0.215
				c0,1.145,0.328,2.096,0.983,2.857c0.656,0.762,1.481,1.143,2.477,1.143c0.597,0,1.124-0.107,1.581-0.326
				c0.457-0.217,0.872-0.566,1.245-1.045l0.699,0.531C598.854,106.3,597.664,106.894,596.103,106.894z M595.898,97.38
				c-0.839,0-1.547,0.309-2.121,0.924c-0.575,0.615-0.926,1.441-1.05,2.48h6.053v-0.121c-0.031-0.971-0.308-1.76-0.83-2.369
				S596.744,97.38,595.898,97.38z"/>
			<path fill="#231F20" d="M603.257,96.614l0.037,1.643c0.373-0.609,0.839-1.066,1.398-1.371s1.182-0.457,1.865-0.457
				c1.592,0,2.603,0.652,3.031,1.959c0.36-0.629,0.843-1.111,1.445-1.451c0.604-0.338,1.269-0.508,1.996-0.508
				c2.164,0,3.268,1.182,3.311,3.543v6.734h-1.119v-6.65c-0.006-0.9-0.2-1.568-0.582-2.004c-0.383-0.436-1.006-0.652-1.87-0.652
				c-0.803,0.012-1.48,0.271-2.033,0.777c-0.554,0.508-0.861,1.125-0.924,1.852v6.678h-1.119v-6.734
				c-0.006-0.863-0.209-1.508-0.61-1.934s-1.019-0.639-1.852-0.639c-0.702,0-1.306,0.199-1.81,0.602
				c-0.503,0.4-0.876,0.996-1.119,1.785v6.92h-1.119V96.614H603.257z"/>
			<path fill="#231F20" d="M625.224,104.142c0-0.553-0.223-0.998-0.667-1.334s-1.114-0.598-2.01-0.787
				c-0.895-0.191-1.59-0.408-2.084-0.654c-0.494-0.244-0.861-0.545-1.101-0.898c-0.239-0.355-0.359-0.785-0.359-1.287
				c0-0.797,0.333-1.455,0.998-1.973c0.665-0.52,1.518-0.779,2.556-0.779c1.125,0,2.028,0.277,2.709,0.834s1.021,1.283,1.021,2.178
				h-1.119c0-0.59-0.247-1.082-0.741-1.473c-0.494-0.393-1.118-0.588-1.87-0.588c-0.733,0-1.323,0.164-1.768,0.49
				s-0.667,0.75-0.667,1.271c0,0.504,0.186,0.895,0.556,1.172c0.369,0.275,1.044,0.529,2.023,0.76s1.713,0.475,2.201,0.736
				c0.487,0.262,0.85,0.576,1.086,0.941c0.236,0.367,0.354,0.813,0.354,1.334c0,0.852-0.344,1.533-1.03,2.043
				c-0.688,0.51-1.584,0.766-2.69,0.766c-1.176,0-2.128-0.285-2.858-0.854c-0.731-0.57-1.096-1.289-1.096-2.16h1.119
				c0.043,0.652,0.318,1.162,0.825,1.525s1.177,0.545,2.01,0.545c0.777,0,1.405-0.17,1.884-0.512S625.224,104.663,625.224,104.142z"
				/>
		</g>
	</g>
	<g>
		<path fill="#231F20" d="M190.84,14.169l-45.072,69.404h17.989l4.484-6.906h21.748v6.902h16.571v-69.4H190.84z M189.99,62.866
			h-12.786l12.786-19.689V62.866z"/>
		<polygon fill="#231F20" points="161.751,14.169 135.519,54.56 135.519,37.304 118.948,37.304 118.942,83.569 118.948,83.569 
			134.668,83.569 179.737,14.169 		"/>
		<polygon fill="#231F20" points="69.773,14.169 69.773,27.97 92.908,27.97 92.908,83.573 109.479,83.573 109.479,27.97 
			135.519,27.97 135.519,14.169 		"/>
		<g>
			<polygon fill="#225B34" points="69.773,37.304 69.773,69.769 37.308,69.769 37.308,83.569 83.574,83.569 83.574,37.304 			"/>
			<path fill="#017C3F" d="M14.173,14.169v46.264h46.266V14.169H14.173z M46.642,46.636H27.974V27.97h18.668V46.636z"/>
		</g>
	</g>
</g>
</svg>
