<?xml version="1.0" encoding="utf-8"?>
<!-- Generator: Adobe Illustrator 16.0.0, SVG Export Plug-In . SVG Version: 6.00 Build 0)  -->
<!DOCTYPE svg PUBLIC "-//W3C//DTD SVG 1.1//EN" "http://www.w3.org/Graphics/SVG/1.1/DTD/svg11.dtd">
<svg version="1.1" id="Ebene_1" xmlns="http://www.w3.org/2000/svg" xmlns:xlink="http://www.w3.org/1999/xlink" x="0px" y="0px"
	 width="770.512px" height="403.561px" viewBox="0 0 770.512 403.561" enable-background="new 0 0 770.512 403.561"
	 xml:space="preserve">
<polygon fill="#999999" points="183.16,98.465 210.238,98.465 178.238,245.938 151.16,245.938 "/>
<polygon fill="none" stroke="#FFFFFF" stroke-miterlimit="10" points="183.16,98.465 210.238,98.465 178.238,245.938 
	151.16,245.938 "/>
<path fill="#999999" d="M229.258,216.398c8.504,5.148,18.347,9.176,30.656,9.176c12.758,0,26.855-4.694,26.855-20.14
	c0-27.302-47.891-26.407-47.891-64.673c0-24.616,18.351-43.637,50.578-43.637c15.215,0,27.749,3.355,36.698,7.832l-4.699,23.047
	c-9.397-5.594-21.262-8.5-31.555-8.5c-14.097,0-22.823,7.384-22.823,17.23c0,24.84,48.112,25.734,48.112,65.344
	c0,30.66-24.394,46.103-54.828,46.103c-17.901,0-31.776-4.927-41.847-10.521L229.258,216.398z"/>
<path fill="none" stroke="#FFFFFF" stroke-miterlimit="10" d="M229.258,216.398c8.504,5.148,18.347,9.176,30.656,9.176
	c12.758,0,26.855-4.694,26.855-20.14c0-27.302-47.891-26.407-47.891-64.673c0-24.616,18.351-43.637,50.578-43.637
	c15.215,0,27.749,3.355,36.698,7.832l-4.699,23.047c-9.397-5.594-21.262-8.5-31.555-8.5c-14.097,0-22.823,7.384-22.823,17.23
	c0,24.84,48.112,25.734,48.112,65.344c0,30.66-24.394,46.103-54.828,46.103c-17.901,0-31.776-4.927-41.847-10.521L229.258,216.398z"
	/>
<polygon fill="#999999" points="374.488,98.465 452.141,98.465 444.531,120.395 396.641,120.395 388.137,159.781 434.909,159.781 
	430.211,181.488 383.438,181.488 369.566,245.938 342.488,245.938 374.488,98.469 "/>
<polygon fill="none" stroke="#FFFFFF" stroke-miterlimit="10" points="374.488,98.465 452.141,98.465 444.531,120.395 
	396.641,120.395 388.137,159.781 434.909,159.781 430.211,181.488 383.438,181.488 369.566,245.938 342.488,245.938 374.488,98.469 
	"/>
<path fill="#999999" d="M0,250.016l0.449,21.937c15.745-0.327,31.495-0.887,47.223-1.698l-1.129-21.91
	C31.047,249.141,15.523,249.695,0,250.016"/>
<path fill="#999999" d="M0.535,276.336l0.444,21.938c16.028-0.328,32.043-0.902,48.047-1.727l-1.129-21.91
	C32.125,275.449,16.328,276.016,0.535,276.336"/>
<path fill="#999999" d="M1.07,302.656l0.446,21.938c16.297-0.336,32.589-0.918,48.863-1.758l-1.125-21.91
	C33.207,301.754,17.141,302.328,1.07,302.656"/>
<path fill="#999999" d="M1.605,328.984l0.446,21.938c16.57-0.34,33.133-0.938,49.683-1.789l-1.129-21.909
	C34.285,328.063,17.949,328.652,1.605,328.984"/>
<path fill="#999999" d="M2.141,355.305l0.449,21.933c16.84-0.347,33.672-0.949,50.496-1.815l-1.125-21.909
	c-16.599,0.851-33.203,1.448-49.816,1.793"/>
<path fill="#999999" d="M2.68,381.625l0.445,21.935c17.112-0.349,34.215-0.966,51.315-1.845l-1.125-21.905
	C36.441,380.676,19.566,381.281,2.68,381.625"/>
<path fill="#999999" d="M74.395,249.215l1.23,17.513c12.547-0.892,25.069-1.931,37.574-3.134l-1.688-17.474
	C99.164,247.309,86.789,248.336,74.395,249.215"/>
<path fill="#999999" d="M76.246,275.48l1.23,17.508c12.766-0.897,25.52-1.961,38.25-3.188l-1.688-17.469
	C101.461,273.543,88.859,274.594,76.246,275.48"/>
<path fill="#999999" d="M78.09,301.742l1.234,17.513c12.988-0.918,25.969-2,38.934-3.246l-1.692-17.47
	C103.758,299.773,90.934,300.84,78.09,301.742"/>
<path fill="#999999" d="M79.941,328l1.231,17.508c13.215-0.935,26.418-2.03,39.613-3.306l-1.688-17.469
	C106.059,325.988,93.004,327.078,79.941,328"/>
<path fill="#999999" d="M81.793,354.273l1.227,17.508c13.441-0.948,26.875-2.065,40.293-3.358l-1.684-17.474
	C108.359,352.227,95.078,353.333,81.793,354.273"/>
<path fill="#999999" d="M83.633,380.52l1.234,17.507c13.659-0.961,27.316-2.097,40.969-3.414l-1.685-17.468
	C110.648,378.445,97.145,379.566,83.633,380.52"/>
<path fill="#999999" d="M150.168,270.039l1.711,13.938c10.129-1.239,20.242-2.591,30.332-4.06l-2.023-13.897
	C170.207,267.477,160.199,268.813,150.168,270.039"/>
<path fill="#999999" d="M153.367,296.176l1.711,13.938c10.319-1.261,20.633-2.636,30.922-4.136l-2.023-13.899
	C173.793,293.563,163.59,294.926,153.367,296.176"/>
<path fill="#999999" d="M156.574,322.313l1.706,13.933c10.517-1.284,21.017-2.687,31.509-4.215l-2.02-13.897
	C177.387,319.645,166.988,321.035,156.574,322.313"/>
<path fill="#999999" d="M159.777,348.441l1.707,13.938c10.707-1.313,21.407-2.737,32.099-4.297l-2.023-13.897
	C180.973,345.727,170.383,347.141,159.777,348.441"/>
<path fill="#999999" d="M162.977,374.566l1.707,13.946c10.898-1.332,21.796-2.789,32.684-4.375l-2.023-13.903
	C184.563,371.805,173.773,373.25,162.977,374.566"/>
<path fill="#999999" d="M237.633,284.191l2.082,11.043c8.164-1.539,16.312-3.164,24.44-4.871l-2.308-10.996
	C253.797,281.055,245.723,282.672,237.633,284.191"/>
<path fill="#999999" d="M242.504,310.063l2.082,11.039c8.34-1.567,16.664-3.231,24.969-4.974l-2.305-10.996
	C259.02,306.859,250.77,308.508,242.504,310.063"/>
<path fill="#999999" d="M247.383,335.938l2.086,11.039c8.508-1.603,17.011-3.302,25.496-5.082l-2.31-10.997
	C264.246,332.664,255.82,334.352,247.383,335.938"/>
<path fill="#999999" d="M252.266,361.809l2.082,11.03c8.679-1.633,17.355-3.366,26.023-5.185l-2.313-10.992
	C269.473,358.469,260.871,360.188,252.266,361.809"/>
<path fill="#999999" d="M325.48,265.535l2.356,8.681c6.401-1.75,12.797-3.526,19.164-5.401l-2.521-8.629
	C338.168,262.039,331.831,263.801,325.48,265.535"/>
<path fill="#999999" d="M332.383,290.953l2.351,8.677c6.567-1.797,13.118-3.616,19.653-5.543l-2.524-8.621
	C345.391,287.363,338.891,289.176,332.383,290.953"/>
<path fill="#999999" d="M339.273,316.359l2.356,8.676c6.719-1.836,13.434-3.702,20.133-5.672l-2.521-8.633
	C352.598,312.688,345.938,314.539,339.273,316.359"/>
<path fill="#999999" d="M346.176,341.77l2.351,8.671c6.883-1.882,13.754-3.796,20.618-5.813l-2.52-8.625
	C359.82,338.004,353.004,339.898,346.176,341.77"/>
<polygon fill="#999999" points="419.383,235.824 421.969,242.527 436.723,236.676 434.008,230.027 "/>
<polygon fill="#999999" points="428.87,260.383 431.452,267.086 446.659,261.055 443.948,254.406 "/>
<polygon fill="#999999" points="438.344,284.945 440.934,291.641 456.59,285.438 453.879,278.781 "/>
<polygon fill="#999999" points="447.831,309.504 450.413,316.208 466.527,309.816 463.816,303.164 "/>
<polygon fill="#999999" points="499.245,140.719 502.12,145.707 512.159,139.797 509.191,134.859 499.25,140.719 "/>
<polygon fill="#999999" points="512.391,163.535 515.27,168.523 525.727,162.359 522.762,157.426 512.395,163.535 "/>
<polygon fill="#999999" points="525.527,186.344 528.398,191.332 539.293,184.914 536.32,179.98 "/>
<polygon fill="#999999" points="538.672,209.16 541.547,214.148 552.863,207.477 549.898,202.543 "/>
<polygon fill="#999999" points="551.809,231.977 554.68,236.965 566.43,230.043 563.461,225.105 "/>
<polygon fill="#999999" points="564.952,254.793 567.82,259.773 579.995,252.602 577.034,247.672 "/>
<polygon fill="#999999" points="587.456,79.289 590.488,82.75 597.281,76.707 594.188,73.297 "/>
<polygon fill="#999999" points="604.801,99.098 607.827,102.563 614.988,96.188 611.891,92.781 "/>
<polygon fill="#999999" points="622.137,118.91 625.168,122.379 632.691,115.68 629.598,112.273 "/>
<polygon fill="#999999" points="639.48,138.719 642.512,142.184 650.395,135.164 647.301,131.758 "/>
<polygon fill="#999999" points="656.816,158.535 659.848,162 668.094,154.66 665,151.254 "/>
<polygon fill="#999999" points="674.159,178.344 677.191,181.809 685.805,174.141 682.706,170.734 "/>
<polygon fill="#999999" points="655.87,5.777 658.84,7.945 663.023,2.121 660.023,0 "/>
<polygon fill="#999999" points="677.12,21.328 680.086,23.496 684.523,17.324 681.523,15.203 "/>
<polygon fill="#999999" points="698.366,36.875 701.336,39.047 706.023,32.52 703.02,30.398 "/>
<polygon fill="#999999" points="719.609,52.426 722.573,54.594 727.512,47.723 724.516,45.598 "/>
<polygon fill="#999999" points="740.855,67.973 743.82,70.141 749.016,62.922 746.016,60.801 "/>
<polygon fill="#999999" points="762.105,83.52 765.073,85.695 770.516,78.125 767.512,75.996 "/>
</svg>
