<?xml version="1.0" encoding="UTF-8" standalone="no"?>
<!-- Created with Inkscape (http://www.inkscape.org/) -->
<svg xmlns:dc="http://purl.org/dc/elements/1.1/" xmlns:cc="http://creativecommons.org/ns#" xmlns:rdf="http://www.w3.org/1999/02/22-rdf-syntax-ns#" xmlns:svg="http://www.w3.org/2000/svg" xmlns="http://www.w3.org/2000/svg" xmlns:sodipodi="http://sodipodi.sourceforge.net/DTD/sodipodi-0.dtd" xmlns:inkscape="http://www.inkscape.org/namespaces/inkscape" width="496.0625" height="184.2525" id="svg2" version="1.1" inkscape:version="0.47 r22583" sodipodi:docname="TU Braunschweig Logo.svg">
  <defs id="defs4">
    <inkscape:perspective sodipodi:type="inkscape:persp3d" inkscape:vp_x="0 : 526.18109 : 1" inkscape:vp_y="0 : 1000 : 0" inkscape:vp_z="744.09448 : 526.18109 : 1" inkscape:persp3d-origin="372.04724 : 350.78739 : 1" id="perspective10"/>
    <clipPath id="clipPath4338" clipPathUnits="userSpaceOnUse">
      <path id="path4340" d="m 623.622,663.307 99.213,0 0,36.851 -99.213,0 0,-36.851 z"/>
    </clipPath>
    <clipPath id="clipPath4024" clipPathUnits="userSpaceOnUse">
      <path id="path4026" d="m 623.622,325.984 396.85,0 0,147.401 -396.85,0 0,-147.401 z"/>
    </clipPath>
    <clipPath id="clipPath3710" clipPathUnits="userSpaceOnUse">
      <path id="path3712" d="m 878.74,104.882 99.212,0 0,36.85 -99.212,0 0,-36.85 z"/>
    </clipPath>
    <clipPath id="clipPath3396" clipPathUnits="userSpaceOnUse">
      <path id="path3398" d="m 623.622,104.882 198.426,0 0,73.701 -198.426,0 0,-73.701 z"/>
    </clipPath>
    <clipPath id="clipPath3082" clipPathUnits="userSpaceOnUse">
      <path id="path3084" d="m 623.622,535.748 198.426,0 0,73.7 -198.426,0 0,-73.7 z"/>
    </clipPath>
    <clipPath id="clipPath3062" clipPathUnits="userSpaceOnUse">
      <path id="path3064" d="m 0,0 1190.551,0 0,841.89 L 0,841.89 0,0 z"/>
    </clipPath>
    <clipPath id="clipPath3044" clipPathUnits="userSpaceOnUse">
      <path id="path3046" d="m 0,0 1190.551,0 0,841.89 L 0,841.89 0,0 z"/>
    </clipPath>
    <clipPath id="clipPath3026" clipPathUnits="userSpaceOnUse">
      <path id="path3028" d="m 0,0 1190.551,0 0,841.89 L 0,841.89 0,0 z"/>
    </clipPath>
    <clipPath id="clipPath3008" clipPathUnits="userSpaceOnUse">
      <path id="path3010" d="m 0,0 1190.551,0 0,841.89 L 0,841.89 0,0 z"/>
    </clipPath>
    <clipPath id="clipPath2990" clipPathUnits="userSpaceOnUse">
      <path id="path2992" d="m 0,0 1190.551,0 0,841.89 L 0,841.89 0,0 z"/>
    </clipPath>
    <clipPath id="clipPath2972" clipPathUnits="userSpaceOnUse">
      <path id="path2974" d="m 0,0 1190.551,0 0,841.89 L 0,841.89 0,0 z"/>
    </clipPath>
    <clipPath id="clipPath2954" clipPathUnits="userSpaceOnUse">
      <path id="path2956" d="m 0,0 1190.551,0 0,841.89 L 0,841.89 0,0 z"/>
    </clipPath>
    <clipPath id="clipPath2936" clipPathUnits="userSpaceOnUse">
      <path id="path2938" d="m 0,0 1190.551,0 0,841.89 L 0,841.89 0,0 z"/>
    </clipPath>
    <clipPath id="clipPath2918" clipPathUnits="userSpaceOnUse">
      <path id="path2920" d="m 0,0 1190.551,0 0,841.89 L 0,841.89 0,0 z"/>
    </clipPath>
    <clipPath id="clipPath2900" clipPathUnits="userSpaceOnUse">
      <path id="path2902" d="m 0,0 1190.551,0 0,841.89 L 0,841.89 0,0 z"/>
    </clipPath>
    <clipPath id="clipPath2882" clipPathUnits="userSpaceOnUse">
      <path id="path2884" d="m 0,0 1190.551,0 0,841.89 L 0,841.89 0,0 z"/>
    </clipPath>
    <clipPath id="clipPath2864" clipPathUnits="userSpaceOnUse">
      <path id="path2866" d="m 0,0 1190.551,0 0,841.89 L 0,841.89 0,0 z"/>
    </clipPath>
    <clipPath id="clipPath2834" clipPathUnits="userSpaceOnUse">
      <path id="path2836" d="m 0,0 1190.551,0 0,841.89 L 0,841.89 0,0 z"/>
    </clipPath>
    <inkscape:perspective id="perspective2824" inkscape:persp3d-origin="0.5 : 0.33333333 : 1" inkscape:vp_z="1 : 0.5 : 1" inkscape:vp_y="0 : 1000 : 0" inkscape:vp_x="0 : 0.5 : 1" sodipodi:type="inkscape:persp3d"/>
  </defs>
  <sodipodi:namedview id="base" pagecolor="#ffffff" bordercolor="#666666" borderopacity="1.0" inkscape:pageopacity="0.0" inkscape:pageshadow="2" inkscape:zoom="3.0238125" inkscape:cx="184.7006" inkscape:cy="92.126252" inkscape:document-units="px" inkscape:current-layer="layer1" showgrid="false" inkscape:window-width="1600" inkscape:window-height="1138" inkscape:window-x="-8" inkscape:window-y="-8" inkscape:window-maximized="1"/>
  <metadata id="metadata7">
    <rdf:RDF>
      <cc:Work rdf:about="">
        <dc:format>image/svg+xml</dc:format>
        <dc:type rdf:resource="http://purl.org/dc/dcmitype/StillImage"/>
        <dc:title/>
      </cc:Work>
    </rdf:RDF>
  </metadata>
  <g inkscape:label="Ebene 1" inkscape:groupmode="layer" id="layer1" transform="translate(244.5669,94.30129)">
    <g id="g2830" transform="matrix(1.25,0,0,-1.25,-1024.0944,497.42996)">
      <g id="g2832" clip-path="url(#clipPath2834)">
        <g id="g2854" transform="translate(0,784.94679)"/>
      </g>
    </g>
    <g id="g2914" transform="matrix(1.25,0,0,-1.25,-1024.0944,497.42996)">
      <g id="g2916" clip-path="url(#clipPath2918)"/>
    </g>
    <g id="g2932" transform="matrix(1.25,0,0,-1.25,-1024.0944,497.42996)">
      <g id="g2934" clip-path="url(#clipPath2936)"/>
    </g>
    <g id="g2950" transform="matrix(1.25,0,0,-1.25,-1024.0944,497.42996)">
      <g id="g2952" clip-path="url(#clipPath2954)"/>
    </g>
    <g id="g2968" transform="matrix(1.25,0,0,-1.25,-1024.0944,497.42996)">
      <g id="g2970" clip-path="url(#clipPath2972)"/>
    </g>
    <g id="g2986" transform="matrix(1.25,0,0,-1.25,-1024.0944,497.42996)">
      <g id="g2988" clip-path="url(#clipPath2990)"/>
    </g>
    <g id="g3004" transform="matrix(1.25,0,0,-1.25,-1024.0944,497.42996)">
      <g id="g3006" clip-path="url(#clipPath3008)"/>
    </g>
    <g id="g3022" transform="matrix(1.25,0,0,-1.25,-1024.0944,497.42996)">
      <g id="g3024" clip-path="url(#clipPath3026)"/>
    </g>
    <g id="g3040" transform="matrix(1.25,0,0,-1.25,-1024.0944,497.42996)">
      <g id="g3042" clip-path="url(#clipPath3044)"/>
    </g>
    <g id="g3951">
      <path id="path4018" style="fill:#be1e3c;fill-opacity:1;fill-rule:nonzero;stroke:none" d="m 251.4956,89.95121 -496.0625,0 0,-184.2525 496.0625,0 0,184.2525 z"/>
      <g transform="matrix(1.25,0,0,-1.25,-1024.0944,497.42996)" id="g4020">
        <g clip-path="url(#clipPath4024)" id="g4022">
          <g transform="translate(705.6552,406.7872)" id="g4028">
            <path id="path4030" style="fill:#ffffff;fill-opacity:1;fill-rule:evenodd;stroke:none" d="M 0,0 C 0.863,0.51 1.906,1.09 2.508,1.588 3.252,2.199 4.266,3.541 4.271,4.057 3.127,5.355 3.318,6.641 3.254,7.865 3.24,8.139 2.896,8.426 2.416,8.193 1.102,7.557 -0.426,7.086 -0.426,7.086 c 0,0 -0.32,-1.9 0.106,-2.346 C 0.119,4.273 1.121,4.437 1.043,3.758 0.99,3.32 0.342,2.568 -0.076,2.238 -0.783,1.678 -1.633,1.205 -2.07,0.998 c 0,0 -1.295,0.461 -3.053,0.293 C -5.812,1.227 -5.85,0.662 -5.85,0.662 c 0,0 -0.232,-0.01 -0.408,-0.086 -0.199,-0.086 -0.34,-0.281 -0.34,-0.281 0,0 0.145,-0.182 0.381,-0.276 0.156,-0.062 0.381,-0.05 0.381,-0.05 0.066,-0.254 0.305,-0.522 0.652,-0.571 0.872,-0.125 1.45,-0.031 1.916,0.082 0.266,0.067 0.452,0.028 0.522,-0.183 0.068,-0.209 -0.125,-0.373 -0.297,-0.477 -0.67,-0.394 -1.141,-0.687 -1.414,-1.023 -0.275,-0.332 -0.414,-0.776 -0.277,-1.123 -0.069,-0.108 -0.166,-0.235 -0.213,-0.414 -0.049,-0.18 -0.037,-0.36 0.013,-0.549 0.131,-0.006 0.254,0.014 0.393,0.068 0.141,0.055 0.279,0.131 0.387,0.299 0.351,-0.115 0.808,-0.035 1.14,0.451 0.28,0.405 0.61,1.127 0.705,1.418 0.094,0.293 0.219,0.358 0.387,0.322 0.149,-0.031 0.27,-0.13 0.186,-0.597 -0.061,-0.336 -0.053,-1.041 0.006,-1.363 0.209,-1.149 0.834,-1.077 0.834,-1.077 0,0 0.046,-0.203 0.175,-0.365 0.135,-0.162 0.307,-0.269 0.463,-0.312 0.071,0.156 0.129,0.39 0.106,0.584 -0.024,0.193 -0.082,0.324 -0.082,0.324 0.154,0.119 0.355,0.359 0.261,0.846 -0.172,0.834 -0.498,1.222 -0.736,1.589 -0.152,0.245 -0.098,0.432 0.049,0.539 0.148,0.104 0.369,0.073 0.562,-0.209 0.223,-0.314 0.528,-0.748 1.129,-1.037 0.407,-0.195 0.727,-0.127 0.918,0.032 0,0 0.174,-0.104 0.322,-0.153 C 2.418,-2.981 2.586,-3 2.762,-2.981 2.734,-2.814 2.688,-2.652 2.621,-2.5 c -0.07,0.146 -0.144,0.238 -0.258,0.344 0.03,0.224 -0.021,0.65 -0.209,0.84 C 1.492,-0.648 0,0 0,0"/>
          </g>
          <g transform="translate(698.87,434.1721)" id="g4032">
            <path id="path4034" style="fill:#ffffff;fill-opacity:1;fill-rule:evenodd;stroke:none" d="M 0,0 C 0,0 0.984,-1.303 1.541,-0.906 1.986,-0.588 1.748,-0.068 1.406,0.289 0.941,0.779 0.455,0.422 0,0 m 19.416,-30.219 c -0.18,-0.017 -0.348,0 -0.494,0.049 -0.149,0.053 -0.322,0.156 -0.322,0.156 -0.192,-0.162 -0.512,-0.228 -0.92,-0.031 -0.6,0.289 -0.905,0.721 -1.129,1.039 -0.195,0.277 -0.414,0.311 -0.563,0.205 -0.148,-0.107 -0.201,-0.295 -0.048,-0.539 0.236,-0.369 0.564,-0.754 0.736,-1.592 0.097,-0.482 -0.11,-0.726 -0.262,-0.843 0,0 0.061,-0.135 0.084,-0.327 0.024,-0.193 -0.037,-0.427 -0.103,-0.584 -0.161,0.043 -0.334,0.151 -0.465,0.313 -0.133,0.162 -0.178,0.365 -0.178,0.365 0,0 -0.625,-0.072 -0.834,1.076 -0.061,0.323 -0.066,1.032 -0.006,1.367 0.084,0.463 -0.037,0.565 -0.185,0.596 -0.17,0.039 -0.295,-0.029 -0.391,-0.32 -0.094,-0.293 -0.426,-1.014 -0.703,-1.422 -0.334,-0.486 -0.793,-0.568 -1.141,-0.451 -0.107,-0.168 -0.25,-0.244 -0.388,-0.299 -0.141,-0.055 -0.264,-0.076 -0.391,-0.068 -0.055,0.193 -0.066,0.373 -0.018,0.548 0.047,0.18 0.145,0.307 0.211,0.415 -0.134,0.349 0.004,0.792 0.282,1.126 0.275,0.336 0.744,0.627 1.416,1.024 0.169,0.101 0.367,0.267 0.298,0.476 -0.072,0.213 -0.257,0.25 -0.525,0.184 -0.465,-0.115 -1.045,-0.205 -1.916,-0.084 -0.35,0.049 -0.59,0.318 -0.656,0.574 0,0 -0.223,-0.011 -0.381,0.051 -0.234,0.096 -0.377,0.275 -0.377,0.275 0,0 0.137,0.194 0.338,0.282 0.176,0.076 0.408,0.086 0.408,0.086 0,0 0.031,0.515 0.717,0.613 1.336,0.184 2.601,-0.262 3.019,-0.385 0.34,0.776 0.784,2.813 0.582,3.979 -0.209,1.211 -1.802,0.879 -2.367,2.008 -0.707,1.414 -0.551,3.556 -1.517,3.74 -1.592,0.302 -0.305,-0.948 -5.916,-2.323 -1.719,-0.421 -3.061,-0.181 -4.018,-1.167 -0.375,-0.389 -1.029,-2.196 -1.943,-3.368 -1.61,-2.064 -2.825,-2.662 -2.825,-2.662 0.231,-0.097 1.118,-0.502 1.608,-1.094 0.172,-0.201 0.238,-0.613 0.209,-0.841 0.115,-0.102 0.187,-0.194 0.254,-0.344 0.07,-0.149 0.117,-0.313 0.148,-0.481 -0.179,-0.015 -0.347,0 -0.494,0.051 -0.148,0.053 -0.322,0.156 -0.322,0.156 -0.192,-0.162 -0.512,-0.228 -0.92,-0.035 -0.6,0.293 -0.906,0.725 -1.129,1.043 -0.195,0.278 -0.414,0.311 -0.563,0.205 -0.148,-0.105 -0.205,-0.295 -0.048,-0.539 0.234,-0.369 0.564,-0.754 0.736,-1.591 0.098,-0.485 -0.109,-0.727 -0.262,-0.844 0,0 0.059,-0.135 0.082,-0.328 0.022,-0.192 -0.035,-0.428 -0.105,-0.586 -0.156,0.045 -0.33,0.154 -0.463,0.316 -0.131,0.162 -0.18,0.365 -0.18,0.365 0,0 -0.623,-0.072 -0.834,1.077 -0.056,0.322 -0.066,1.031 -0.006,1.365 0.084,0.465 -0.035,0.566 -0.185,0.597 -0.168,0.036 -0.293,-0.029 -0.387,-0.32 -0.096,-0.293 -0.426,-1.017 -0.703,-1.422 -0.334,-0.486 -0.795,-0.566 -1.145,-0.451 -0.107,-0.168 -0.246,-0.244 -0.384,-0.299 -0.143,-0.054 -0.264,-0.078 -0.395,-0.072 -0.051,0.195 -0.062,0.375 -0.017,0.553 0.05,0.179 0.148,0.306 0.214,0.414 -0.138,0.349 0.002,0.793 0.278,1.127 0.279,0.332 0.748,0.629 1.416,1.023 0.174,0.102 0.367,0.268 0.299,0.479 -0.071,0.211 -0.254,0.246 -0.522,0.181 -0.467,-0.111 -1.049,-0.207 -1.92,-0.082 -0.349,0.047 -0.586,0.317 -0.654,0.573 0,0 -0.223,-0.012 -0.381,0.052 -0.234,0.092 -0.379,0.274 -0.379,0.274 0,0 0.139,0.195 0.338,0.281 0.18,0.076 0.408,0.088 0.408,0.088 0,0 0.139,0.545 0.789,0.631 1.762,0.236 3.285,-0.387 3.285,-0.387 0,0 2.133,1.42 2.799,2.387 0.528,0.765 0.957,1.679 1.102,2.502 0.18,1.017 -0.11,1.119 -0.422,1.357 -0.432,0.32 -1.121,0.762 -1.975,1.766 -0.49,0.574 -1.13,1.992 -1.154,3.386 -0.684,0.602 -1.574,1.639 -2.205,2.463 0.018,-0.369 0.055,-1.109 -0.254,-1.912 -0.094,-0.248 -0.471,-0.457 -0.691,-0.521 -0.053,-0.145 -0.11,-0.248 -0.221,-0.369 -0.109,-0.122 -0.242,-0.227 -0.385,-0.321 -0.084,0.157 -0.135,0.317 -0.144,0.473 -0.012,0.158 0.017,0.355 0.017,0.355 -0.222,0.116 -0.412,0.385 -0.39,0.836 0.035,0.666 0.312,1.116 0.515,1.446 0.182,0.289 0.127,0.504 -0.029,0.599 -0.156,0.096 -0.354,0.069 -0.512,-0.166 -0.252,-0.361 -0.478,-0.816 -1.179,-1.299 -0.411,-0.281 -0.711,-0.185 -0.881,-0.089 0,0 -0.102,-0.108 -0.27,-0.204 -0.168,-0.095 -0.408,-0.136 -0.578,-0.132 -0.021,0.162 0.01,0.361 0.107,0.55 0.098,0.186 0.268,0.307 0.268,0.307 0,0 -0.311,0.543 0.664,1.186 0.274,0.179 0.924,0.464 1.254,0.543 0.461,0.103 0.508,0.252 0.479,0.402 -0.032,0.17 -0.139,0.256 -0.446,0.23 -0.308,-0.025 -1.101,-0.002 -1.584,0.094 -0.58,0.115 -0.832,0.51 -0.863,0.873 -0.197,0.035 -0.32,0.133 -0.426,0.24 -0.105,0.11 -0.174,0.215 -0.219,0.336 0.159,0.125 0.319,0.203 0.502,0.229 0.184,0.029 0.338,-0.014 0.465,-0.033 0.268,0.261 0.729,0.306 1.147,0.181 0.412,-0.121 0.867,-0.437 1.492,-0.9 0.162,-0.119 0.392,-0.234 0.557,-0.09 0.167,0.15 0.13,0.332 -0.036,0.553 -0.285,0.385 -0.597,0.883 -0.824,1.734 -0.094,0.342 0.063,0.666 0.27,0.824 0,0 -0.096,0.204 -0.1,0.371 -0.006,0.254 0.104,0.458 0.104,0.458 0,0 0.236,-0.051 0.392,-0.204 0.139,-0.132 0.24,-0.341 0.24,-0.341 0,0 0.659,0.138 0.987,-0.471 0.638,-1.18 0.521,-2.117 0.455,-2.496 0.484,-0.91 0.976,-1.344 1.558,-1.903 0.336,-0.32 0.885,-0.642 1.524,-0.953 0.414,0.657 0.99,1.278 1.717,1.991 0.855,0.841 1.464,1.207 2.099,1.791 0.762,0.701 1.143,1.412 1.143,1.412 0,0 -1.305,0.392 -2.674,-0.03 -0.152,0.25 -0.439,0.784 -0.188,1.125 1.024,0.42 2.543,0.352 3.233,0.143 0.228,0.355 0.695,1.236 0.142,1.711 -0.707,0.607 -2.498,0.746 -3.781,0.078 -0.316,0.17 -0.763,0.791 -0.463,1.467 -0.695,0.754 -0.238,1.006 0.008,1.109 0.805,0.348 1.465,0.221 2.209,0.254 0.012,0.299 0.01,0.465 0.151,0.817 C -0.758,1.994 1.461,1.725 2.293,1.73 2.865,1.734 3.35,1.842 3.84,1.937 4.502,2.078 4.537,1.416 4.363,1.15 L 3.922,0.564 C 4.59,0.295 5.277,-0.109 5.529,-0.834 5.721,-1.389 5.576,-2.02 5.721,-2.522 5.883,-3.088 6.178,-3.283 6.436,-3.754 6.838,-4.492 6.916,-5.059 7.01,-5.842 7.09,-6.514 6.43,-6.522 6.176,-6.326 6.035,-6.219 5.633,-5.691 5.193,-5.744 4.916,-5.775 4.699,-6.174 4.592,-6.463 c 0,0 0.627,-1.119 0.83,-2.084 0.174,-0.82 0.1,-1.492 0.012,-2.164 -0.08,-0.67 -0.768,-0.49 -0.938,-0.227 -0.133,0.206 -0.348,0.731 -0.791,0.797 -0.469,0.063 -0.879,-0.447 -0.935,-0.966 -0.061,-0.563 0,-1.051 0.308,-1.499 1.358,-1.988 7.567,1.784 10.256,-0.355 0.166,0.721 0.246,1.488 0.096,2.139 -0.328,1.433 -2.799,2.119 -3.967,3.756 l 0,0.005 c -0.227,0.329 -0.414,0.698 -0.512,1.114 -0.449,1.908 0.828,4.57 1.49,5.769 -0.515,0.813 -0.277,2.426 0.016,3.127 0.35,0.85 0.633,1.279 1.045,1.85 0.414,0.572 1.441,0.504 1.441,0.156 0,0 -1.195,-1.385 -0.746,-1.869 0.403,-0.434 2.602,1.08 1.004,-2.287 -0.576,-1.201 -1.328,-1.573 -1.955,-1.483 -0.656,-1.304 -1.467,-3.349 -1.082,-4.875 0.156,-0.619 0.553,-1.088 1.051,-1.502 l 0.006,0 c 1.254,-1.037 3.162,-1.722 3.554,-3.601 0.229,-1.117 -0.099,-2.602 -0.427,-3.672 0.476,-1.084 0.498,-2.273 0.787,-3.293 0.142,-0.402 0.437,-1.049 0.918,-0.996 0.433,0.047 0.662,0.492 0.834,0.75 0.219,0.332 0.818,0.392 0.918,-0.276 0.101,-0.669 0.349,-1.322 0.349,-2.046 -0.007,-2.893 -0.941,-5.174 -1.65,-6.954 0,0 0.83,-0.207 1.969,-0.984 0.804,-0.549 0.574,-1.035 0.543,-1.262 0.113,-0.103 0.185,-0.197 0.256,-0.343 0.066,-0.151 0.115,-0.315 0.144,-0.481"/>
          </g>
          <g transform="translate(692.6631,430.209)" id="g4036">
            <path id="path4038" style="fill:#ffffff;fill-opacity:1;fill-rule:evenodd;stroke:none" d="M 0,0 C 1.619,-0.682 3.621,0.371 3.619,0.594 1.139,0.229 0.217,0.934 0.809,2.156 -0.969,1.945 -0.82,0.346 0,0"/>
          </g>
          <g transform="translate(705.6552,368.7628)" id="g4040">
            <path id="path4042" style="fill:#ffffff;fill-opacity:1;fill-rule:evenodd;stroke:none" d="M 0,0 C 0.863,0.51 1.906,1.09 2.508,1.588 3.252,2.199 4.266,3.539 4.271,4.055 3.127,5.355 3.318,6.641 3.254,7.865 3.24,8.137 2.896,8.426 2.416,8.191 1.102,7.557 -0.426,7.084 -0.426,7.084 c 0,0 -0.32,-1.9 0.106,-2.346 C 0.119,4.273 1.121,4.437 1.043,3.758 0.99,3.32 0.342,2.566 -0.076,2.236 -0.783,1.676 -1.633,1.205 -2.07,0.996 c 0,0 -1.295,0.461 -3.053,0.295 C -5.812,1.227 -5.85,0.662 -5.85,0.662 c 0,0 -0.232,-0.012 -0.408,-0.086 -0.199,-0.088 -0.34,-0.281 -0.34,-0.281 0,0 0.145,-0.184 0.379,-0.276 0.158,-0.064 0.383,-0.052 0.383,-0.052 0.066,-0.254 0.305,-0.52 0.652,-0.569 0.872,-0.125 1.45,-0.031 1.916,0.08 0.266,0.067 0.452,0.03 0.522,-0.181 0.068,-0.209 -0.125,-0.373 -0.297,-0.479 -0.67,-0.394 -1.139,-0.685 -1.414,-1.021 -0.275,-0.334 -0.414,-0.778 -0.277,-1.125 -0.067,-0.106 -0.166,-0.235 -0.213,-0.412 -0.049,-0.18 -0.037,-0.36 0.013,-0.551 0.133,-0.006 0.254,0.016 0.393,0.07 0.141,0.055 0.279,0.129 0.387,0.297 0.351,-0.115 0.808,-0.033 1.142,0.453 0.278,0.405 0.606,1.125 0.703,1.418 0.094,0.293 0.219,0.356 0.387,0.321 0.149,-0.032 0.27,-0.129 0.186,-0.596 -0.061,-0.336 -0.053,-1.043 0.006,-1.363 0.209,-1.151 0.834,-1.079 0.834,-1.079 0,0 0.046,-0.201 0.175,-0.363 0.133,-0.162 0.307,-0.269 0.463,-0.312 0.071,0.154 0.129,0.39 0.106,0.584 -0.024,0.191 -0.082,0.324 -0.082,0.324 0.154,0.119 0.355,0.359 0.261,0.846 -0.172,0.834 -0.498,1.22 -0.736,1.589 -0.152,0.243 -0.098,0.43 0.049,0.537 0.148,0.106 0.369,0.075 0.562,-0.207 0.223,-0.316 0.528,-0.748 1.129,-1.037 0.407,-0.195 0.727,-0.127 0.918,0.032 0,0 0.174,-0.104 0.322,-0.153 0.147,-0.052 0.315,-0.07 0.491,-0.052 -0.028,0.167 -0.074,0.33 -0.141,0.48 -0.07,0.148 -0.144,0.24 -0.258,0.344 0.028,0.226 -0.021,0.652 -0.209,0.84 C 1.492,-0.648 0,0 0,0"/>
          </g>
          <g transform="translate(700.411,395.2395)" id="g4044">
            <path id="path4046" style="fill:#ffffff;fill-opacity:1;fill-rule:evenodd;stroke:none" d="M 0,0 C -0.557,-0.395 -1.541,0.908 -1.541,0.908 -1.086,1.33 -0.6,1.685 -0.135,1.197 0.207,0.838 0.443,0.318 0,0 m 17.731,-28.83 c -0.071,0.146 -0.143,0.238 -0.256,0.344 0.031,0.226 0.261,0.711 -0.543,1.259 -1.137,0.778 -1.969,0.985 -1.969,0.985 0.709,1.781 1.641,4.06 1.65,6.953 0,0.726 -0.248,1.379 -0.349,2.049 -0.1,0.668 -0.699,0.607 -0.918,0.273 -0.172,-0.258 -0.401,-0.701 -0.836,-0.75 -0.479,-0.053 -0.774,0.594 -0.916,0.996 -0.227,0.799 -0.315,1.692 -0.551,2.569 0.838,0.189 1.522,0.627 2.117,1.13 1.092,0.93 1.002,2.37 0.414,3.522 -0.48,0.922 -1.082,1.289 -3.992,2.369 -1.16,0.432 -2.002,0.934 -2.6,1.588 -0.222,0.258 -0.449,0.59 -0.601,0.902 -0.301,0.614 -0.072,1.317 0.437,1.785 0.122,0.108 0.373,0.288 0.668,0.491 0.895,-0.651 3.334,-0.307 4.282,0.027 1.093,0.387 1.933,0.883 2.711,1.326 0.771,0.457 0.648,1.365 0.23,1.362 0,0 -2.848,-1.202 -3.334,-0.729 C 12.934,0.051 13.93,1.59 10.908,0.258 9.818,-0.223 9.014,-0.883 9.065,-1.516 8.008,-2.086 6.99,-3.014 7.143,-4.258 7.188,-4.672 7.391,-5.19 7.672,-5.608 l 0.012,0 c 0.826,-1.181 2.474,-2.07 4.271,-2.656 1.723,-0.564 2.389,-0.877 2.688,-2.021 0.394,-1.498 -0.418,-2.414 -2.063,-2.668 -0.199,0.367 -0.433,0.674 -0.644,0.89 -2.327,2.401 -9.041,-1.623 -10.399,0.366 -0.308,0.445 -0.369,0.935 -0.308,1.498 0.054,0.519 0.466,1.029 0.935,0.965 0.443,-0.067 0.658,-0.59 0.791,-0.795 0.17,-0.264 0.856,-0.444 0.938,0.224 0.088,0.672 0.162,1.344 -0.012,2.166 -0.203,0.965 -0.83,2.082 -0.83,2.082 0.107,0.289 0.324,0.69 0.601,0.721 0.44,0.051 0.842,-0.475 0.983,-0.582 0.254,-0.197 0.914,-0.188 0.832,0.484 -0.092,0.784 -0.17,1.35 -0.572,2.086 -0.258,0.473 -0.553,0.666 -0.715,1.233 -0.145,0.502 0,1.132 -0.192,1.689 C 3.736,0.797 3.047,1.203 2.381,1.473 L 2.822,2.057 C 2.996,2.323 2.961,2.987 2.299,2.845 1.809,2.749 1.324,2.642 0.752,2.64 -0.078,2.634 -2.299,2.903 -2.644,2.051 -2.785,1.697 -2.783,1.533 -2.795,1.234 -3.539,1.199 -4.199,1.328 -5.004,0.978 -5.25,0.875 -5.707,0.623 -5.012,-0.129 c -0.3,-0.678 0.147,-1.297 0.463,-1.469 1.283,0.67 3.074,0.532 3.781,-0.078 0.553,-0.474 0.086,-1.353 -0.142,-1.711 -0.69,0.209 -2.209,0.279 -3.233,-0.14 -0.251,-0.342 0.034,-0.875 0.188,-1.127 1.369,0.421 2.674,0.031 2.674,0.031 0,0 -0.381,-0.713 -1.143,-1.414 -0.636,-0.584 -1.244,-0.947 -2.099,-1.789 -0.828,-0.815 -1.463,-1.508 -1.883,-2.272 -1.057,0.254 -2.049,0.557 -2.6,0.934 -0.67,0.453 -1.226,0.797 -1.857,1.613 0.002,0.383 -0.039,1.328 -0.865,2.385 -0.426,0.547 -1.053,0.301 -1.053,0.301 0,0 -0.135,0.187 -0.293,0.297 -0.18,0.121 -0.42,0.132 -0.42,0.132 0,0 -0.074,-0.216 -0.025,-0.466 0.029,-0.166 0.158,-0.35 0.158,-0.35 -0.176,-0.191 -0.276,-0.537 -0.127,-0.857 0.365,-0.803 0.756,-1.241 1.103,-1.573 0.2,-0.189 0.268,-0.361 0.127,-0.539 -0.138,-0.17 -0.383,-0.094 -0.562,-0.006 -0.696,0.354 -1.198,0.588 -1.625,0.639 -0.432,0.053 -0.879,-0.066 -1.098,-0.371 -0.129,-0.002 -0.289,0.016 -0.465,-0.045 -0.176,-0.055 -0.322,-0.16 -0.455,-0.309 0.065,-0.113 0.149,-0.203 0.272,-0.293 0.121,-0.089 0.259,-0.166 0.459,-0.168 0.091,-0.353 0.408,-0.699 0.996,-0.716 0.494,-0.014 1.277,0.097 1.578,0.174 0.297,0.076 0.418,0.009 0.478,-0.155 0.053,-0.142 0.032,-0.297 -0.404,-0.476 -0.314,-0.133 -0.906,-0.522 -1.144,-0.743 -0.856,-0.798 -0.459,-1.283 -0.459,-1.283 0,0 -0.147,-0.146 -0.211,-0.347 -0.065,-0.202 -0.063,-0.403 -0.014,-0.559 0.168,0.025 0.398,0.105 0.547,0.229 0.15,0.121 0.232,0.244 0.232,0.244 0.182,-0.067 0.496,-0.11 0.852,0.234 0.611,0.596 0.758,1.082 0.947,1.481 0.117,0.257 0.307,0.316 0.477,0.248 0.17,-0.069 0.259,-0.27 0.129,-0.586 -0.145,-0.36 -0.344,-0.848 -0.266,-1.51 0.055,-0.449 0.285,-0.684 0.523,-0.76 0,0 0.006,-0.199 0.043,-0.355 0.035,-0.153 0.114,-0.299 0.223,-0.44 0.125,0.113 0.238,0.242 0.326,0.381 0.088,0.135 0.127,0.248 0.154,0.398 0.207,0.102 0.543,0.372 0.596,0.631 0.17,0.844 0.01,1.567 -0.072,1.928 0.951,-0.883 2.351,-2.025 3.103,-2.332 0.041,-0.018 0.084,-0.035 0.125,-0.053 0.131,-1.242 0.688,-2.427 1.127,-2.941 0.854,-1.006 1.543,-1.445 1.975,-1.768 0.312,-0.236 0.602,-0.338 0.422,-1.357 -0.145,-0.822 -0.574,-1.734 -1.102,-2.5 -0.666,-0.969 -2.799,-2.387 -2.799,-2.387 0,0 -1.523,0.621 -3.285,0.387 -0.65,-0.088 -0.789,-0.633 -0.789,-0.633 0,0 -0.228,-0.012 -0.408,-0.086 -0.199,-0.088 -0.34,-0.281 -0.34,-0.281 0,0 0.147,-0.182 0.381,-0.276 0.158,-0.064 0.381,-0.052 0.381,-0.052 0.066,-0.254 0.305,-0.524 0.654,-0.573 0.871,-0.125 1.453,-0.029 1.92,0.084 0.266,0.063 0.451,0.03 0.522,-0.183 0.068,-0.211 -0.125,-0.375 -0.299,-0.477 -0.668,-0.396 -1.139,-0.691 -1.416,-1.025 -0.276,-0.332 -0.416,-0.775 -0.278,-1.127 -0.066,-0.105 -0.164,-0.234 -0.214,-0.412 -0.045,-0.18 -0.034,-0.36 0.017,-0.553 0.131,-0.006 0.252,0.018 0.395,0.072 0.138,0.055 0.277,0.131 0.384,0.299 0.35,-0.117 0.811,-0.035 1.145,0.449 0.277,0.407 0.607,1.131 0.703,1.424 0.096,0.291 0.219,0.356 0.387,0.321 0.15,-0.032 0.269,-0.133 0.185,-0.6 -0.06,-0.334 -0.05,-1.043 0.006,-1.363 0.211,-1.151 0.834,-1.076 0.834,-1.076 0,0 0.049,-0.204 0.18,-0.366 0.133,-0.162 0.307,-0.273 0.463,-0.316 0.07,0.156 0.127,0.394 0.103,0.584 -0.021,0.195 -0.08,0.328 -0.08,0.328 0.153,0.119 0.36,0.359 0.26,0.846 -0.17,0.836 -0.5,1.22 -0.734,1.591 -0.157,0.245 -0.1,0.432 0.048,0.54 0.149,0.103 0.368,0.072 0.563,-0.206 0.223,-0.318 0.529,-0.75 1.129,-1.042 0.408,-0.196 0.728,-0.127 0.92,0.035 0,0 0.174,-0.106 0.322,-0.157 0.147,-0.052 0.315,-0.066 0.494,-0.052 -0.031,0.168 -0.078,0.334 -0.148,0.48 -0.067,0.151 -0.139,0.244 -0.254,0.344 0.029,0.228 -0.037,0.641 -0.209,0.844 -0.49,0.591 -1.377,0.994 -1.608,1.093 0,0 1.215,0.596 2.827,2.663 0.912,1.171 1.566,2.978 1.941,3.365 0.957,0.986 2.299,0.748 4.018,1.17 5.611,1.375 4.324,2.625 5.916,2.322 0.966,-0.184 0.81,-2.328 1.517,-3.74 0.565,-1.129 2.158,-0.797 2.367,-2.01 0.202,-1.166 -0.242,-3.201 -0.582,-3.979 -0.418,0.125 -1.683,0.569 -3.019,0.385 -0.686,-0.096 -0.717,-0.611 -0.717,-0.611 0,0 -0.232,-0.012 -0.41,-0.086 -0.199,-0.088 -0.336,-0.281 -0.336,-0.281 0,0 0.143,-0.18 0.377,-0.276 0.158,-0.064 0.381,-0.052 0.381,-0.052 0.066,-0.254 0.306,-0.524 0.656,-0.575 0.871,-0.121 1.449,-0.031 1.916,0.086 0.268,0.067 0.453,0.03 0.525,-0.185 0.069,-0.209 -0.129,-0.373 -0.298,-0.475 -0.672,-0.396 -1.141,-0.689 -1.416,-1.025 -0.278,-0.332 -0.418,-0.776 -0.282,-1.127 -0.066,-0.106 -0.164,-0.235 -0.211,-0.414 -0.048,-0.174 -0.037,-0.356 0.018,-0.549 0.127,-0.006 0.25,0.015 0.391,0.07 0.138,0.055 0.281,0.131 0.388,0.299 0.348,-0.117 0.807,-0.035 1.141,0.449 0.277,0.41 0.611,1.131 0.703,1.422 0.096,0.293 0.221,0.359 0.391,0.322 0.148,-0.033 0.269,-0.132 0.185,-0.597 -0.06,-0.334 -0.055,-1.045 0.006,-1.366 0.207,-1.148 0.834,-1.076 0.834,-1.076 0,0 0.045,-0.203 0.178,-0.365 0.131,-0.162 0.304,-0.269 0.465,-0.312 0.066,0.156 0.127,0.39 0.103,0.584 -0.023,0.191 -0.084,0.324 -0.084,0.324 0.152,0.119 0.359,0.363 0.26,0.845 -0.17,0.836 -0.496,1.221 -0.734,1.592 -0.155,0.244 -0.1,0.432 0.048,0.539 0.149,0.104 0.368,0.073 0.563,-0.205 0.224,-0.318 0.529,-0.752 1.129,-1.041 0.408,-0.197 0.728,-0.131 0.92,0.033 0,0 0.173,-0.105 0.322,-0.156 0.146,-0.051 0.314,-0.066 0.494,-0.051 -0.029,0.166 -0.078,0.33 -0.144,0.483"/>
          </g>
          <g transform="translate(692.6631,392.1846)" id="g4048">
            <path id="path4050" style="fill:#ffffff;fill-opacity:1;fill-rule:evenodd;stroke:none" d="M 0,0 C 1.631,-0.654 3.621,0.369 3.619,0.592 1.139,0.227 0.217,0.934 0.809,2.156 -0.969,1.945 -0.885,0.354 0,0"/>
          </g>
          <g transform="translate(745.9404,423.1602)" id="g4052">
            <path id="path4054" style="fill:#ffffff;fill-opacity:1;fill-rule:nonzero;stroke:none" d="M 0,0 C -0.055,0.748 -0.57,1.115 -3.172,0.609 -6.289,0.166 -7.895,1.402 -6.981,2.811 -9.342,2.674 -9.441,-0.512 -6.879,-0.6 -4.32,-0.686 -2.793,0.406 0,0"/>
          </g>
          <g transform="translate(749.3506,393.24519)" id="g4056">
            <path id="path4058" style="fill:#ffffff;fill-opacity:1;fill-rule:nonzero;stroke:none" d="m 0,0 c -0.418,0.139 -1.713,0.553 -1.713,0.553 0,0 -2.193,-2.746 -6.193,-4.125 -3.369,-1.16 -4.879,-2.145 -5.645,-3.422 -0.648,-1.084 -0.982,-2.149 -1.031,-2.811 -0.082,-1.125 0.014,-1.861 0.146,-2.754 0.139,-0.935 1.19,-0.826 1.332,-0.166 0.104,0.479 0.413,1.02 0.895,1.075 0.482,0.054 0.935,-0.477 0.935,-0.477 0,0 -0.474,-1.967 -1.96,-3.893 -0.473,-0.611 -2.596,-2.847 -3.387,-3.248 -0.985,0.454 -2.293,0.936 -2.947,1.006 -0.526,0.059 -1.342,0.098 -1.594,-0.306 -0.354,0.023 -0.709,-0.151 -1.012,-0.397 0.287,-0.359 0.818,-0.541 0.818,-0.541 0.092,-0.639 0.692,-0.937 1.401,-1.004 0.738,-0.072 1.34,-0.041 1.654,-0.019 0.324,0.023 0.516,-0.16 0.553,-0.368 0.041,-0.228 -0.102,-0.484 -0.457,-0.535 -1.836,-0.261 -2.492,-1.189 -2.436,-2.179 -0.203,-0.231 -0.496,-0.696 -0.441,-1.176 0.293,-0.004 0.867,0.101 1.16,0.375 1.201,-0.164 2.055,1.098 2.398,1.758 0.17,0.332 0.336,0.494 0.602,0.377 0.225,-0.1 0.281,-0.311 0.141,-0.686 -0.168,-0.453 -0.36,-1.049 -0.368,-1.596 -0.009,-0.853 0.323,-1.296 0.791,-1.533 0,0 0.297,-0.73 0.661,-0.896 0.224,0.345 0.193,0.98 0.193,0.98 0.414,0.227 0.621,0.93 0.533,1.58 -0.054,0.41 -0.33,0.987 -0.551,1.457 -0.138,0.299 -0.08,0.539 0.112,0.629 0.238,0.115 0.459,-0.008 0.648,-0.443 0.117,-0.274 0.451,-0.893 0.694,-1.129 0.328,-0.318 1.054,-0.754 1.576,-0.443 0,0 0.47,-0.307 0.955,-0.25 -0.008,0.41 -0.162,0.695 -0.395,0.988 0.141,0.469 0.157,0.992 -0.5,1.613 -0.545,0.516 -1.191,0.99 -1.908,1.418 1.359,0.449 3.502,2.051 4.322,3.014 0.707,0.828 1.455,2.283 1.455,2.283 0.612,-0.139 0.782,-0.814 0.823,-1.258 0.035,-0.373 0.777,-0.545 0.955,0.119 0.177,0.658 0.299,1.319 0.277,2.174 -0.016,0.559 -0.082,1.766 -0.629,2.779 0.147,0.309 0.358,0.569 0.641,0.545 0.449,-0.031 0.75,-0.566 0.871,-0.828 0.371,-0.801 1.471,-0.529 1.441,0.287 -0.023,0.684 -0.027,1.213 -0.256,2.127 -0.107,0.426 -0.587,1.315 -0.994,1.649 0.241,1.55 1.254,1.597 3.295,3.232 0.76,0.606 1.832,1.485 2.604,2.494 0.226,0.297 0.594,0.883 0.539,1.334 C 0.967,-0.318 0.453,-0.15 0,0"/>
          </g>
          <g transform="translate(746.0674,428.53529)" id="g4060">
            <path id="path4062" style="fill:#ffffff;fill-opacity:1;fill-rule:nonzero;stroke:none" d="M 0,0 C 0,0 1.123,-1.818 1.98,-1.264 2.592,-0.869 2.289,-0.168 1.859,0.314 1.267,0.98 0.611,0.537 0,0 m 15.623,-32.118 c -0.357,-1.824 -1.754,-3.02 -3.652,-3.795 0.093,-3.457 -2.024,-5.143 -2.061,-6.35 -0.029,-0.888 0.779,-1.154 1.674,-2.367 0.861,-1.168 1.183,-3.072 0.937,-4.578 -0.183,-1.115 -0.431,-1.697 -0.863,-2.488 -0.433,-0.795 -1.387,-0.473 -1.332,0.138 0.154,1.702 -1.055,1.11 -1.055,1.11 0,0 0.045,-1.799 -1.191,-4.217 -0.744,-1.453 -2.832,-3.367 -2.832,-3.367 0,0 1.715,-0.268 2.227,-0.49 0.83,-0.364 1.007,-1.018 1.013,-1.506 0.311,-0.209 0.563,-0.477 0.694,-0.867 -0.368,-0.145 -1.008,-0.006 -1.008,-0.006 0,0 -0.606,-0.549 -1.692,0.107 -0.394,0.238 -0.716,0.607 -0.914,0.828 -0.279,0.313 -0.547,0.338 -0.738,0.168 -0.154,-0.137 -0.186,-0.4 0.049,-0.658 0.347,-0.383 0.803,-0.981 0.947,-1.242 0.223,-0.414 0.342,-1.36 0.014,-1.696 0,0 0.244,-0.685 0.131,-1.078 -0.395,0.047 -0.942,0.713 -0.942,0.713 -0.517,0.084 -1.021,0.598 -1.162,1.192 -0.162,0.679 -0.072,1.244 -0.062,1.722 0.009,0.442 -0.104,0.651 -0.387,0.672 -0.334,0.026 -0.459,-0.195 -0.496,-0.527 -0.096,-0.875 -0.709,-2.285 -1.905,-2.485 -0.197,-0.343 -0.64,-0.591 -0.921,-0.675 -0.194,0.443 -0.053,0.972 0.072,1.254 -0.348,0.929 0.076,1.867 1.68,2.806 0.23,0.133 0.337,0.397 0.214,0.613 -0.107,0.184 -0.314,0.235 -0.593,0.141 -0.303,-0.098 -0.84,-0.246 -1.567,-0.396 -0.695,-0.143 -1.355,-0.039 -1.635,0.545 0,0 -0.56,0.015 -0.941,0.275 0.217,0.324 0.5,0.596 0.848,0.678 0.121,0.461 0.836,0.793 1.365,0.851 1.457,0.158 3.318,-0.172 3.318,-0.172 0,0 0.959,0.934 1.868,2.409 1.169,1.896 1.001,3.978 1.001,3.978 0,0 -0.236,0.34 -0.632,0.361 -0.448,0.026 -0.768,-0.423 -0.969,-0.628 -0.225,-0.231 -0.863,-0.256 -0.861,0.431 0,0.412 0.062,1.045 0.334,1.854 0.177,0.533 0.455,1.002 0.896,1.638 -0.228,0.309 -0.633,0.584 -0.893,0.51 -0.365,-0.107 -0.566,-0.387 -0.697,-0.754 -0.179,-0.496 -0.986,-0.582 -1.152,0.153 -0.151,0.668 -0.195,1.291 -0.098,2.164 0.168,1.505 0.405,3.046 2.096,5.355 0.814,1.111 2.734,3.389 2.771,4.766 0.039,1.306 -4.377,1.459 -7.658,3.633 -2.701,1.79 -3.33,4.635 -3.33,4.635 0,0 -0.967,-1.261 -3.076,-2.527 -1.391,-0.836 -4.033,-1.463 -4.033,-1.463 0.468,-0.606 0.824,-1.325 1.033,-1.938 0.322,-0.944 0.088,-1.461 -0.26,-1.801 0.065,-0.373 -0.058,-0.778 -0.25,-1.139 -0.365,0.234 -0.597,0.758 -0.597,0.758 -0.608,-0.02 -0.924,0.34 -1.086,1.072 -0.094,0.416 -0.155,1.104 -0.147,1.401 0.012,0.464 -0.148,0.671 -0.379,0.671 -0.199,0 -0.357,-0.168 -0.377,-0.472 -0.033,-0.516 -0.127,-1.25 -0.217,-1.539 -0.142,-0.446 -0.546,-1.147 -1.019,-1.147 0,0 -0.303,-0.705 -0.67,-0.898 -0.236,0.318 -0.137,1.174 -0.137,1.174 -0.306,0.242 -0.476,0.775 -0.052,1.726 0.312,0.713 0.546,0.899 0.871,1.248 0.297,0.321 0.425,0.536 0.216,0.749 -0.164,0.17 -0.324,0.115 -0.595,-0.066 -0.619,-0.419 -2.151,-1.116 -3.127,-0.396 -0.385,-0.097 -0.764,0.086 -1.02,0.23 0.186,0.449 0.588,0.763 0.953,0.822 0.418,0.625 1.327,1.002 3.184,0.738 0.25,-0.035 0.539,-0.004 0.617,0.25 0.07,0.239 -0.004,0.459 -0.322,0.606 -0.287,0.133 -0.776,0.375 -1.389,0.795 -0.588,0.4 -0.97,0.947 -0.744,1.556 0,0 -0.377,0.413 -0.455,0.868 0.383,0.068 0.777,0.05 1.074,-0.141 0.418,0.234 1.139,0.002 1.613,-0.424 0.491,-0.439 1.211,-1.314 1.86,-2.187 0,0 2.432,0.316 4.351,2.433 1.18,1.303 1.422,3.418 1.485,5.28 0.012,0.308 -0.115,0.605 -0.369,0.718 -0.412,0.182 -0.866,-0.131 -1.125,-0.256 -0.293,-0.14 -0.905,0.055 -0.664,0.698 0.24,0.644 0.423,0.982 0.982,1.625 0.313,0.357 1.022,1.086 1.92,1.582 -0.768,0.574 -1.65,1.371 -2.457,2.16 -0.691,0.674 -1.842,2.439 -2.436,3.816 -0.13,-0.441 -0.261,-1.045 -0.422,-1.439 -0.343,-0.84 -0.769,-1.008 -1.255,-1.049 -0.19,-0.32 -0.543,-0.555 -0.924,-0.711 -0.129,0.416 0.068,1.035 0.068,1.035 -0.478,0.373 -0.381,0.957 -0.131,1.561 0.223,0.531 0.522,0.857 0.731,1.068 0.345,0.348 0.379,0.602 0.185,0.768 -0.185,0.16 -0.42,0.115 -0.627,-0.139 -0.328,-0.402 -0.904,-0.879 -1.156,-1.039 -0.396,-0.254 -1.308,-0.387 -1.668,-0.082 0,0 -0.631,-0.277 -1.033,-0.193 0.019,0.396 0.594,0.925 0.594,0.925 0.047,0.522 0.148,0.76 1.076,1.244 0.422,0.223 1.133,0.377 1.609,0.364 0.502,-0.016 0.715,0.207 0.717,0.429 0,0.266 -0.219,0.43 -0.588,0.415 -0.883,-0.041 -2.346,0.449 -2.629,1.628 -0.359,0.172 -0.531,0.555 -0.633,0.831 0.43,0.226 0.967,0.121 1.258,0.017 0.901,0.41 1.865,0.051 2.912,-1.48 0.274,-0.399 0.977,-0.182 0.729,0.431 -0.117,0.295 -0.305,0.821 -0.506,1.535 -0.193,0.684 -0.133,1.35 0.43,1.67 0,0 -0.022,0.559 0.211,0.955 0.334,-0.193 0.627,-0.457 0.732,-0.796 0.471,-0.086 0.895,-0.79 1.02,-1.338 0.127,-0.567 0.273,-1.594 0.031,-2.869 0.353,-1.243 1.183,-2.293 1.791,-2.961 1.096,-1.207 3.308,-2.594 4.851,-3.489 0.174,0.192 0.36,0.383 0.561,0.576 0.166,0.159 0.129,0.428 0.021,0.614 -0.222,0.39 -0.775,0.402 -1.058,0.455 -0.319,0.056 -0.686,0.555 -0.127,0.955 0.557,0.398 1.195,0.617 2.027,0.807 0.559,0.128 1.625,0.281 2.84,-0.04 0,0 0.688,0.799 0.352,1.059 -1.25,0.965 -3.647,0.365 -3.647,0.365 -0.941,1.282 -0.111,1.621 1.213,1.666 1.088,0.041 2.297,-0.14 3.57,-0.601 0.848,0.677 0.588,2.676 -0.586,3.228 -2.582,1.221 -4.57,-0.027 -4.57,-0.027 -0.576,0.088 -1.107,0.371 -1.383,0.992 -0.314,0.707 -0.103,1.484 -0.103,1.484 -0.594,0.422 -0.576,1.747 3.308,1.471 0,0 -0.402,1.094 -0.101,1.973 C -1.225,3.256 3,2.639 3.971,2.855 4.215,2.91 4.687,3.076 4.928,3.146 5.531,3.328 5.734,2.742 5.539,2.4 5.213,1.828 5.103,1.096 5.103,1.096 c 0,0 1.581,-0.412 2.957,-2.098 C 8.801,-1.91 9.08,-3.35 9.217,-4.02 9.355,-4.693 8.666,-4.75 8.416,-4.551 8.191,-4.369 7.82,-3.963 7.377,-4.049 7.115,-4.098 6.818,-4.553 6.728,-4.832 8.262,-5.65 8.822,-7.508 8.947,-8.283 c 0.133,-0.838 0.098,-1.51 0.01,-2.192 -0.086,-0.675 -0.758,-0.509 -0.932,-0.236 -0.154,0.242 -0.373,0.748 -0.816,0.811 -0.406,0.056 -0.684,-0.276 -0.861,-0.657 0.601,-0.91 0.816,-1.986 0.88,-2.515 0.104,-0.85 0.047,-1.518 -0.066,-2.192 -0.111,-0.675 -0.777,-0.484 -0.939,-0.207 -0.147,0.25 -0.346,0.762 -0.789,0.84 -0.422,0.076 -0.778,-0.418 -0.963,-0.801 0.933,-0.943 1.259,-2.338 1.359,-2.964 0.135,-0.842 0.1,-1.512 0.014,-2.192 -0.088,-0.68 -0.782,-0.633 -0.934,-0.24 -0.131,0.336 -0.33,0.789 -0.771,0.853 -0.254,0.039 -0.625,-0.22 -0.78,-0.404 -0.156,-0.935 0.043,-1.781 0.209,-2.613 0.285,-1.424 1.043,-2.793 2.84,-4.098 2,-1.455 4.477,-3.828 5.291,-6.708 1.717,0.762 3.281,2.401 1.281,5.148 -1.939,2.658 -3.463,3.504 -4.279,6.617 -0.476,1.814 -0.164,3.717 1.387,5.705 -0.215,0.318 -0.313,0.732 -0.344,1.189 -0.051,0.799 0.033,1.926 0.793,3.196 0.684,1.15 1.924,2.668 3.768,3.5 0.462,-0.272 0.498,-1.153 0.396,-1.348 -0.557,-1.072 -2.685,-2.607 -2.713,-3.24 -0.015,-0.358 0.836,-0.889 1.143,-0.787 0.578,0.193 1.234,1.754 1.474,2.072 0.196,0.26 0.918,0.258 0.864,-0.426 -0.057,-0.683 -0.164,-1.346 -0.469,-2.142 -0.303,-0.784 -1.318,-2.332 -3.361,-2.629 -0.221,-0.032 -0.42,-0.028 -0.6,0.002 -1.215,-1.664 -1.029,-3.356 -0.857,-4.327 0.357,-2.015 1.71,-3.144 3.476,-5.414 1.59,-2.043 2.406,-3.197 1.965,-5.436"/>
          </g>
          <g transform="translate(730.39751,441.3652)" id="g4064">
            <path id="path4066" style="fill:#ffffff;fill-opacity:1;fill-rule:nonzero;stroke:none" d="m 0,0 c -0.605,0.932 -1.41,1.848 -2.078,2.816 -0.738,1.073 -0.613,2.45 0.689,2.702 0.401,0.076 0.94,-0.092 1.325,-0.487 0.035,-0.035 0.089,-0.035 0.13,0 C 0.453,5.426 0.992,5.594 1.391,5.518 2.695,5.266 2.82,3.889 2.08,2.816 1.414,1.848 0.609,0.932 0,0"/>
          </g>
          <g transform="translate(730.3994,351.7961)" id="g4068">
            <path id="path4070" style="fill:#ffffff;fill-opacity:1;fill-rule:nonzero;stroke:none" d="m 0,0 c -0.607,0.934 -1.412,1.848 -2.08,2.814 -0.738,1.077 -0.615,2.452 0.689,2.702 0.399,0.078 0.94,-0.09 1.325,-0.485 0.035,-0.033 0.089,-0.033 0.13,0 C 0.451,5.426 0.99,5.594 1.389,5.516 2.693,5.266 2.818,3.891 2.078,2.814 1.412,1.848 0.607,0.934 0,0"/>
          </g>
          <g transform="translate(739.9502,356.2043)" id="g4072">
            <path id="path4074" style="fill:#ffffff;fill-opacity:1;fill-rule:nonzero;stroke:none" d="m 0,0 c -0.607,0.932 -1.412,1.848 -2.08,2.816 -0.738,1.075 -0.613,2.45 0.689,2.7 0.401,0.078 0.94,-0.088 1.326,-0.485 0.034,-0.033 0.09,-0.033 0.129,0 C 0.451,5.428 0.99,5.594 1.391,5.516 2.693,5.266 2.818,3.891 2.08,2.816 1.412,1.848 0.607,0.932 0,0"/>
          </g>
          <g transform="translate(730.3994,406.5139)" id="g4076">
            <path id="path4078" style="fill:#ffffff;fill-opacity:1;fill-rule:nonzero;stroke:none" d="m 0,0 c -0.607,0.934 -1.412,1.85 -2.08,2.818 -0.74,1.073 -0.613,2.448 0.689,2.701 0.399,0.077 0.938,-0.091 1.325,-0.486 0.035,-0.035 0.091,-0.035 0.13,0 C 0.451,5.428 0.99,5.596 1.389,5.519 2.693,5.266 2.818,3.891 2.078,2.818 1.41,1.85 0.607,0.934 0,0"/>
          </g>
          <g transform="translate(739.9502,436.3009)" id="g4080">
            <path id="path4082" style="fill:#ffffff;fill-opacity:1;fill-rule:nonzero;stroke:none" d="m 0,0 c -0.607,0.934 -1.412,1.85 -2.08,2.816 -0.738,1.077 -0.613,2.45 0.689,2.702 0.401,0.076 0.94,-0.09 1.325,-0.485 0.035,-0.035 0.091,-0.035 0.13,0 C 0.451,5.428 0.99,5.594 1.391,5.518 2.693,5.266 2.818,3.893 2.078,2.816 1.412,1.85 0.607,0.934 0,0"/>
          </g>
          <g transform="translate(740.6221,391.0031)" id="g4084">
            <path id="path4086" style="fill:#ffffff;fill-opacity:1;fill-rule:nonzero;stroke:none" d="m 0,0 c -0.607,0.932 -1.412,1.848 -2.08,2.816 -0.74,1.073 -0.613,2.448 0.689,2.7 0.399,0.078 0.94,-0.09 1.325,-0.485 0.035,-0.035 0.089,-0.035 0.13,0 C 0.451,5.426 0.99,5.594 1.389,5.516 2.693,5.264 2.818,3.889 2.078,2.816 1.412,1.848 0.607,0.932 0,0"/>
          </g>
          <g transform="translate(722.4306,447.5724)" id="g4088">
            <path id="path4090" style="fill:#ffffff;fill-opacity:1;fill-rule:nonzero;stroke:none" d="m 0,0 c 0,0 0.512,-0.051 0.775,-0.149 l 0,-95.649 C 0.244,-95.97 -0.01,-95.97 -0.01,-95.97 c 0,0 -0.234,0.014 -0.781,0.172 l 0,95.649 C -0.541,-0.057 0,0 0,0"/>
          </g>
          <g transform="translate(678.4503,378.83701)" id="g4092">
            <path id="path4094" style="fill:#ffffff;fill-opacity:1;fill-rule:nonzero;stroke:none" d="M 0,0 C -0.1,0.314 -0.215,0.623 -0.315,0.936 L -2.666,0.191 -2.42,-0.586 c 0.219,-0.693 0.971,-0.836 1.578,-0.643 C -0.266,-1.047 0.215,-0.676 0,0 m -3.322,-0.998 -0.282,0.891 -2.32,-0.735 c -0.459,-0.146 -0.451,-0.344 -0.248,-0.988 0.258,-0.809 0.883,-1.356 1.869,-1.041 0.807,0.254 1.242,1.047 0.981,1.873 m -3.534,-1.811 c -0.273,0.858 -0.505,1.709 -0.779,2.569 l -0.871,2.631 0.807,0.255 0.576,-1.416 6.068,1.924 -0.547,1.553 0.838,0.266 c 0.635,-1.598 1.256,-3.217 1.776,-4.852 0.564,-1.783 0.156,-3.293 -1.077,-3.684 -0.789,-0.25 -1.601,0.2 -2.117,0.799 0.045,-1.056 -0.336,-2.14 -1.42,-2.484 -1.646,-0.522 -2.814,1.053 -3.254,2.439"/>
          </g>
          <g transform="translate(682.5909,369.03999)" id="g4096">
            <path id="path4098" style="fill:#ffffff;fill-opacity:1;fill-rule:nonzero;stroke:none" d="m 0,0 -0.225,0.428 -2.824,-1.486 0.186,-0.354 c 0.468,-0.889 1.396,-0.947 2.144,-0.553 C -0.063,-1.621 0.477,-0.906 0,0 m -5.106,-8.033 -0.48,1.469 c -0.432,1.259 1.609,3.861 2.205,4.879 l -0.185,0.353 -2.366,-1.246 0.369,-0.961 -0.763,-0.4 -0.996,2 -1.215,2.197 0.762,0.402 0.753,-1.17 5.661,2.983 -0.813,1.431 0.779,0.411 C -0.938,3.557 -0.375,2.6 -0.023,2.041 0.105,1.836 0.764,0.734 0.982,0.32 2.322,-2.225 1.877,-3.416 0.611,-4.084 -0.518,-4.678 -1.481,-4.48 -2.252,-3.496 -2.43,-3.826 -4.43,-6.797 -4.418,-7.045 c 0.01,-0.387 0.025,-0.379 0.166,-0.834 l -0.854,-0.154 z"/>
          </g>
          <g transform="translate(687.245,360.01089)" id="g4100">
            <path id="path4102" style="fill:#ffffff;fill-opacity:1;fill-rule:nonzero;stroke:none" d="M 0,0 -2.596,-0.783 -1.43,-2.248 0,0 z m -2.789,-6.717 -1.721,2.106 0.66,0.527 0.827,-0.871 1.058,1.773 -1.693,2.127 -1.986,-0.607 0.835,-1.215 -0.662,-0.527 -1.16,1.511 -0.988,1.161 0.646,0.515 0.571,-0.519 7.572,2.175 C 1.594,1.156 2.131,1.01 2.537,0.912 l 0.227,-0.285 -4.278,-7.481 0.434,-0.738 -0.66,-0.527 -1.049,1.402 z"/>
          </g>
          <g transform="translate(698.70399,350.13589)" id="g4104">
            <path id="path4106" style="fill:#ffffff;fill-opacity:1;fill-rule:nonzero;stroke:none" d="m 0,0 -2.811,-3.361 c -1.292,-1.551 -3.085,-1.535 -4.96,0.031 -1.752,1.465 -2.331,3.476 -1.256,4.76 l 3.008,3.601 -1.036,1 0.541,0.649 1.891,-1.625 2.082,-1.696 -0.541,-0.648 -1.143,0.82 -2.789,-3.336 c -1.027,-1.23 -0.412,-2.33 0.147,-2.797 0.57,-0.476 2.092,-1.142 3.109,0.077 L -0.971,0.811 -1.939,1.756 -1.398,2.404 0.014,1.203 1.578,-0.082 1.037,-0.73 0,0 z"/>
          </g>
          <g transform="translate(709.7216,344.5031)" id="g4108">
            <path id="path4110" style="fill:#ffffff;fill-opacity:1;fill-rule:nonzero;stroke:none" d="m 0,0 -3.041,-6.842 -1.328,0.59 -2.045,7.385 -1.977,-4.446 1.129,-0.615 -0.349,-0.789 -1.625,0.779 -1.858,0.768 0.344,0.774 1.213,-0.426 2.521,5.676 c -0.099,0.328 -0.474,0.55 -1.25,0.894 l 0.358,0.805 3.133,-1.393 1.88,-6.687 1.788,4.019 -1.131,0.615 0.343,0.772 L -0.254,1.133 1.572,0.34 1.229,-0.434 0,0 z"/>
          </g>
          <g transform="translate(715.47951,335.4874)" id="g4112">
            <path id="path4114" style="fill:#ffffff;fill-opacity:1;fill-rule:nonzero;stroke:none" d="m 0,0 c -0.752,0.117 -1.27,0.285 -2.207,0.674 l -0.074,-0.25 -0.873,0.137 0.177,0.582 0.409,1.945 0.838,-0.131 C -1.865,1.861 -1.217,1.08 -0.309,0.937 0.615,0.795 1.104,1.225 1.203,1.873 1.322,2.639 0.1,3.336 -0.877,4.273 -1.625,4.982 -2.227,5.844 -2.07,6.85 -1.844,8.299 -0.551,8.953 1.332,8.66 1.844,8.58 2.873,8.314 3.256,8.186 L 3.432,8.525 4.219,8.402 3.82,5.848 2.982,5.977 C 3.014,6.967 2.566,7.578 1.658,7.719 0.717,7.865 0.398,7.164 0.34,6.789 0.225,6.057 1.174,5.402 2.084,4.598 2.943,3.818 3.752,2.926 3.578,1.818 3.338,0.268 1.918,-0.299 0,0"/>
          </g>
          <g transform="translate(727.3524,335.2023)" id="g4116">
            <path id="path4118" style="fill:#ffffff;fill-opacity:1;fill-rule:nonzero;stroke:none" d="m 0,0 c -2.793,-0.26 -5.027,1.316 -5.268,3.893 -0.207,2.214 1.317,4.541 4.334,4.822 1.381,0.129 1.625,0.117 2.536,0.062 L 1.623,9.109 2.451,9.186 2.522,8.412 2.764,6.391 1.936,6.314 C 1.713,7.574 0.623,7.889 -0.601,7.775 -1.894,7.654 -2.996,6.219 -2.809,4.209 -2.631,2.285 -1.141,0.865 0.188,0.988 c 1.31,0.123 1.97,0.514 1.968,0.53 0.08,0.25 0.094,1.412 0.092,1.621 L 3.076,3.215 3.285,0.965 C 2.063,0.471 1.691,0.158 0,0"/>
          </g>
          <g transform="translate(743.6221,340.0674)" id="g4120">
            <path id="path4122" style="fill:#ffffff;fill-opacity:1;fill-rule:nonzero;stroke:none" d="m 0,0 -2.42,-1.037 -0.322,0.781 1.25,0.649 -1.047,2.533 -3.731,-1.543 1.049,-2.533 1.326,0.418 0.323,-0.782 -2.35,-0.933 -2.371,-1.02 -0.322,0.781 1.234,0.641 -2.453,5.93 -1.318,-0.434 -0.325,0.781 2.399,0.956 2.322,0.998 0.324,-0.782 -1.24,-0.625 1.027,-2.486 3.729,1.541 L -3.943,6.322 -5.279,5.881 -5.604,6.662 -3.27,7.59 -0.865,8.621 -0.543,7.84 -1.799,7.209 0.652,1.279 1.994,1.703 2.318,0.922 0,0 z"/>
          </g>
          <g transform="translate(754.46181,357.0715)" id="g4124">
            <path id="path4126" style="fill:#ffffff;fill-opacity:1;fill-rule:nonzero;stroke:none" d="m 0,0 2.658,-7.713 -0.982,-0.85 -3.522,1.747 1.268,-3.694 -1.063,-0.918 -7.361,3.649 -0.711,-0.477 -0.553,0.641 1.452,1.207 1.509,1.351 0.553,-0.64 -0.441,-0.494 4.957,-2.559 -1.006,2.621 -2.445,1.215 -0.567,-0.352 -0.553,0.639 1.309,1.084 1.746,1.555 0.553,-0.641 L -3.943,-3.385 1,-5.953 -0.932,-0.805 -1.824,-1.44 -2.377,-0.801 -1.018,0.328 0.012,1.309 0.588,0.643 0,0 z"/>
          </g>
          <g transform="translate(764.2684,358.08121)" id="g4128">
            <path id="path4130" style="fill:#ffffff;fill-opacity:1;fill-rule:nonzero;stroke:none" d="m 0,0 -0.695,-0.951 -1.569,-2.264 -0.689,0.49 0.775,1.297 -5.244,3.729 -0.914,-1.049 -0.689,0.488 1.556,2.102 1.006,1.474 1.125,1.58 -0.33,0.342 0.492,0.692 0.547,-0.391 1.705,-1.147 -0.482,-0.677 -1.153,0.523 -1.464,-2.062 2.121,-1.508 1.093,1.537 -0.701,0.648 0.481,0.678 2.404,-1.709 -0.48,-0.678 -0.887,0.483 -1.094,-1.539 1.983,-1.41 c 0.111,-0.08 0.224,-0.161 0.248,-0.157 0.115,0.133 0.244,0.254 0.484,0.592 0.342,0.481 0.828,1.133 0.867,1.19 C 0.637,2.502 0.877,2.84 0.859,2.873 0.838,2.932 0.078,3.621 -0.08,3.754 L 0.412,4.445 2.238,3.146 0,0 z"/>
          </g>
          <g transform="translate(769.64549,367.12601)" id="g4132">
            <path id="path4134" style="fill:#ffffff;fill-opacity:1;fill-rule:nonzero;stroke:none" d="m 0,0 -1.111,-2.328 -0.758,0.373 0.506,1.297 -5.756,2.84 L -7.824,0.984 -8.582,1.359 -7.41,3.658 -6.322,5.941 -5.564,5.568 -6.084,4.279 -0.33,1.438 0.393,2.627 1.15,2.254 0,0 z"/>
          </g>
          <g transform="translate(771.9756,381.7198)" id="g4136">
            <path id="path4138" style="fill:#ffffff;fill-opacity:1;fill-rule:nonzero;stroke:none" d="M 0,0 C 0.23,-0.072 0.57,-0.197 0.967,-0.322 L 1.262,-0.414 C 1.832,-0.557 2.375,-0.674 2.836,-0.527 2.519,-1.535 2.562,-1.457 2.418,-2.32 2.275,-3.238 2.258,-3.578 1.922,-4.65 c -1.08,-3.438 -3.561,-4.202 -5.735,-3.52 -1.941,0.609 -3.685,2.772 -2.689,5.945 0.279,0.893 0.732,1.93 1.023,2.51 l -0.332,0.213 0.235,0.744 0.543,-0.172 2.16,-0.605 -0.25,-0.793 c -1.236,0.207 -1.975,-0.651 -2.401,-2.004 -0.343,-1.092 0.61,-2.897 2.454,-3.475 1.974,-0.621 3.726,0.354 4.095,1.528 0.192,0.611 0.217,1.039 0.162,1.492 l -1.861,0.584 -0.541,-1.319 -0.805,0.252 0.821,2.502 0.652,2.192 L 0.26,1.17 0,0 z"/>
          </g>
          <g transform="translate(676.5536,398.50011)" id="g4140">
            <path id="path4142" style="fill:#ffffff;fill-opacity:1;fill-rule:nonzero;stroke:none" d="m 0,0 c 0.066,-2.819 -1.66,-4.948 -4.246,-5.009 -2.225,-0.052 -4.44,1.633 -4.512,4.677 -0.033,1.391 -0.004,1.635 0.112,2.541 l -0.329,0.045 -0.019,0.834 0.775,0.019 2.033,0.102 0.02,-0.836 c -1.273,-0.135 -1.662,-1.205 -1.633,-2.439 0.031,-1.304 1.389,-2.507 3.406,-2.46 1.932,0.047 3.452,1.442 3.42,2.78 -0.031,1.322 -0.375,2.01 -0.392,2.01 -0.244,0.097 -1.403,0.191 -1.61,0.203 l -0.019,0.836 2.258,0.054 C -0.326,2.096 -0.041,1.703 0,0"/>
          </g>
          <g transform="translate(670.43851,408.57429)" id="g4144">
            <path id="path4146" style="fill:#ffffff;fill-opacity:1;fill-rule:nonzero;stroke:none" d="M 0,0 2.371,-1.318 2.607,0.545 0,0 z M 6.76,2.699 6.449,-0.014 5.611,0.094 5.66,1.297 3.652,0.816 3.307,-1.893 l 1.82,-1.003 0.289,1.455 0.838,-0.108 -0.275,-1.892 -0.143,-1.526 -0.82,0.106 -0.024,0.773 -6.84,3.92 C -1.939,0.334 -2.207,0.824 -2.422,1.186 L -2.377,1.547 5.969,3.713 6.195,4.543 7.033,4.436 6.76,2.699 z"/>
          </g>
          <g transform="translate(672.06149,421.18961)" id="g4148">
            <path id="path4150" style="fill:#ffffff;fill-opacity:1;fill-rule:nonzero;stroke:none" d="m 0,0 -0.139,-0.467 3.057,-0.918 0.113,0.383 C 3.322,-0.035 2.703,0.66 1.893,0.902 1.182,1.115 0.295,0.982 0,0 M 9.281,2.17 8.594,0.777 c -0.58,-1.205 -3.862,-1.636 -5,-1.947 L 3.479,-1.553 6.039,-2.322 6.451,-1.375 7.277,-1.623 6.582,-3.756 5.906,-6.188 5.08,-5.94 l 0.283,1.37 -6.129,1.839 -0.425,-1.597 -0.842,0.254 c 0.205,0.863 0.474,1.945 0.615,2.593 0.055,0.239 0.359,1.491 0.494,1.94 0.83,2.766 1.985,3.308 3.356,2.896 C 3.654,2.988 4.201,2.17 4.061,0.924 4.418,1.033 7.932,1.758 8.096,1.945 8.361,2.228 8.346,2.232 8.563,2.658 L 9.281,2.17 z"/>
          </g>
          <g transform="translate(676.44431,432.70911)" id="g4152">
            <path id="path4154" style="fill:#ffffff;fill-opacity:1;fill-rule:nonzero;stroke:none" d="M 0,0 C -0.711,-1.394 0.492,-2.789 2.029,-3.574 3.551,-4.35 5.434,-4.527 6.145,-3.133 6.85,-1.754 5.543,-0.326 4.068,0.426 2.609,1.17 0.703,1.379 0,0 M 6.975,-3.557 C 5.496,-6.453 2.82,-6.769 0.914,-5.797 -0.99,-4.826 -2.309,-2.475 -0.83,0.424 0.633,3.291 3.293,3.613 5.199,2.641 7.059,1.693 8.438,-0.689 6.975,-3.557"/>
          </g>
          <g transform="translate(690.8643,440.8381)" id="g4156">
            <path id="path4158" style="fill:#ffffff;fill-opacity:1;fill-rule:nonzero;stroke:none" d="m 0,0 -2.217,-2.902 -0.73,-0.932 -1.576,-2.121 -0.672,0.512 0.748,1.179 -5.102,3.893 -0.926,-1.043 -0.671,0.514 1.619,2.066 1.492,2.012 0.672,-0.512 -0.762,-1.17 5.17,-3.945 c 0.086,0.111 1.164,1.584 1.219,1.652 0.146,0.193 0.359,0.557 0.34,0.617 -0.022,0.059 -0.78,1.141 -0.899,1.297 L -1.768,1.809 0,0 z"/>
          </g>
          <g transform="translate(690.10249,450.64841)" id="g4160">
            <path id="path4162" style="fill:#ffffff;fill-opacity:1;fill-rule:nonzero;stroke:none" d="M 0,0 C -1.166,-1.043 -0.547,-2.779 0.604,-4.064 1.74,-5.338 3.432,-6.185 4.6,-5.142 5.752,-4.111 5.051,-2.308 3.947,-1.074 2.856,0.147 1.154,1.031 0,0 M 5.221,-5.838 C 2.795,-8.004 0.186,-7.33 -1.24,-5.734 c -1.426,1.593 -1.805,4.261 0.619,6.429 2.398,2.145 4.998,1.483 6.422,-0.113 1.392,-1.557 1.818,-4.275 -0.58,-6.42"/>
          </g>
          <g transform="translate(698.6064,451.5392)" id="g4164">
            <path id="path4166" style="fill:#ffffff;fill-opacity:1;fill-rule:nonzero;stroke:none" d="M 0,0 -1.004,1.67 2.754,3.928 3.758,2.256 0,0 z"/>
          </g>
          <g transform="translate(713.1163,462.63879)" id="g4168">
            <path id="path4170" style="fill:#ffffff;fill-opacity:1;fill-rule:nonzero;stroke:none" d="m 0,0 -0.416,-8.15 -1.234,-0.424 -2.625,2.929 -0.204,-3.9 -1.332,-0.459 -5.488,6.123 -0.84,-0.18 -0.275,0.799 1.805,0.584 1.914,0.694 0.273,-0.799 -0.598,-0.297 3.657,-4.215 0.047,2.807 -1.823,2.035 -0.658,-0.115 -0.275,0.798 1.623,0.522 2.209,0.795 0.275,-0.799 -0.975,-0.428 3.639,-4.22 0.133,5.5 -1.07,-0.26 -0.276,0.801 1.69,0.543 L 0.502,1.213 0.789,0.381 0,0 z"/>
          </g>
          <g transform="translate(719.6631,455.7404)" id="g4172">
            <path id="path4174" style="fill:#ffffff;fill-opacity:1;fill-rule:nonzero;stroke:none" d="M 0,0 -2.584,-0.213 -2.643,0.629 -1.262,0.848 -1.709,7.25 -3.103,7.256 -3.162,8.1 -0.574,8.244 1.955,8.455 2.014,7.613 0.633,7.412 1.08,1.01 2.477,0.986 2.535,0.143 0,0 z"/>
          </g>
          <g transform="translate(732.077,454.7345)" id="g4176">
            <path id="path4178" style="fill:#ffffff;fill-opacity:1;fill-rule:nonzero;stroke:none" d="M 0,0 -3.605,0.584 -4.769,0.791 -7.385,1.178 -7.25,2.014 -5.855,1.91 -4.83,8.244 -6.187,8.568 -6.053,9.402 -3.465,8.949 -0.986,8.584 -1.121,7.748 -2.512,7.869 -3.553,1.449 c 0.139,-0.021 1.946,-0.279 2.032,-0.293 0.24,-0.039 0.662,-0.054 0.703,-0.01 0.043,0.045 0.638,1.225 0.72,1.405 L 0.762,2.412 0,0 z"/>
          </g>
          <g transform="translate(742.12781,450.5294)" id="g4180">
            <path id="path4182" style="fill:#ffffff;fill-opacity:1;fill-rule:nonzero;stroke:none" d="m 0,0 -2.398,1.113 0.367,0.762 1.32,-0.5 1.19,2.471 -3.653,1.756 -1.187,-2.471 1.201,-0.713 -0.367,-0.762 -2.274,1.133 -2.349,1.092 0.367,0.762 1.305,-0.495 2.781,5.784 -1.209,0.697 0.367,0.762 2.32,-1.155 L 0.084,9.166 -0.283,8.404 -1.582,8.914 -2.748,6.488 0.904,4.732 2.07,7.158 0.846,7.861 1.211,8.623 3.469,7.5 5.852,6.393 5.484,5.631 4.172,6.148 1.391,0.363 2.607,-0.356 2.242,-1.117 0,0 z"/>
          </g>
          <g transform="translate(748.5654,445.8107)" id="g4184">
            <path id="path4186" style="fill:#ffffff;fill-opacity:1;fill-rule:nonzero;stroke:none" d="M 0,0 -0.891,0.779 -3.022,2.541 -2.475,3.186 -1.242,2.299 2.92,7.205 1.947,8.211 2.494,8.855 4.465,7.117 5.853,5.984 7.34,4.725 7.707,5.023 8.357,4.473 7.922,3.959 6.633,2.359 5.996,2.9 6.615,4.004 4.678,5.646 2.992,3.66 4.437,2.434 5.144,3.078 5.781,2.539 3.873,0.289 3.236,0.83 3.791,1.672 2.346,2.898 0.771,1.043 C 0.682,0.938 0.594,0.832 0.596,0.809 0.717,0.684 0.826,0.543 1.144,0.273 1.596,-0.109 2.209,-0.65 2.262,-0.695 c 0.185,-0.159 0.504,-0.428 0.539,-0.412 0.06,0.015 0.812,0.712 0.959,0.861 L 4.41,-0.799 2.959,-2.508 0,0 z"/>
          </g>
          <g transform="translate(757.67081,435.9317)" id="g4188">
            <path id="path4190" style="fill:#ffffff;fill-opacity:1;fill-rule:nonzero;stroke:none" d="m 0,0 -2.285,2.85 -0.725,0.933 -1.681,2.041 0.66,0.53 0.965,-1.01 5.004,4.015 -0.79,1.151 0.661,0.529 L 3.424,8.969 5.018,7.035 4.359,6.506 3.406,7.527 -1.666,3.457 C -1.578,3.35 -0.41,1.945 -0.355,1.879 -0.203,1.688 0.1,1.395 0.16,1.4 0.223,1.406 1.455,1.881 1.637,1.959 L 2.18,1.281 0,0 z"/>
          </g>
          <g transform="translate(763.5106,425.33031)" id="g4192">
            <path id="path4194" style="fill:#ffffff;fill-opacity:1;fill-rule:nonzero;stroke:none" d="M 0,0 -1.008,1.928 -0.254,2.307 0.285,1.469 5.084,3.98 -2.324,3.853 1.789,9.605 -2.748,7.496 l 0.414,-1.057 -0.754,-0.38 -0.596,1.257 -1.015,1.942 0.756,0.381 0.677,-1.12 5.864,2.7 -0.539,1.304 0.754,0.381 0.978,-1.98 L 4.424,9.703 1.066,5.094 6.668,5.246 7.152,4.244 8.498,1.611 7.742,1.23 6.994,2.49 1.316,-0.582 1.881,-1.934 1.127,-2.313 0,0 z"/>
          </g>
          <g transform="translate(765.8232,418.58031)" id="g4196">
            <path id="path4198" style="fill:#ffffff;fill-opacity:1;fill-rule:nonzero;stroke:none" d="M 0,0 -0.773,2.475 0.037,2.715 0.551,1.416 6.701,3.244 6.404,4.607 7.215,4.848 7.92,2.353 8.676,-0.07 7.867,-0.311 7.371,0.994 1.219,-0.834 1.5,-2.201 0.689,-2.443 0,0 z"/>
          </g>
          <g transform="translate(775.72169,406.09579)" id="g4200">
            <path id="path4202" style="fill:#ffffff;fill-opacity:1;fill-rule:nonzero;stroke:none" d="m 0,0 -7.414,-1.031 -0.201,1.447 5.187,5.654 -4.818,-0.668 0.074,-1.289 -0.853,-0.119 -0.198,1.799 -0.33,1.99 0.838,0.115 0.279,-1.259 6.151,0.853 c 0.224,0.26 0.217,0.697 0.099,1.543 L -0.314,9.156 0.16,5.744 -4.523,0.6 -0.168,1.205 -0.242,2.494 0.596,2.609 0.826,0.816 1.119,-1.162 0.281,-1.279 0,0 z"/>
          </g>
          <g transform="translate(774.92081,398.3672)" id="g4204">
            <path id="path4206" style="fill:#ffffff;fill-opacity:1;fill-rule:nonzero;stroke:none" d="M 0,0 -2.494,1.064 -2.537,-0.814 0,0 z m -6.441,-3.388 0.027,2.732 0.844,-0.02 0.078,-1.202 1.947,0.686 0.061,2.731 -1.914,0.807 -0.137,-1.475 -0.846,0.02 0.078,1.912 -0.017,1.531 0.826,-0.02 0.103,-0.767 7.211,-3.188 c 0.145,-0.49 0.463,-0.951 0.713,-1.287 l -0.008,-0.364 -8.072,-3.021 -0.14,-0.85 -0.844,0.019 0.09,1.756 z"/>
          </g>
          <g transform="translate(808.71581,438.715)" id="g4208">
            <path id="path4210" style="fill:#ffffff;fill-opacity:1;fill-rule:nonzero;stroke:none" d="m 0,0 0,-16.709 -3.629,0 0,16.709 -5.82,0 0,3.09 15.299,0 L 5.85,0 0,0 z"/>
          </g>
          <g transform="translate(820.68649,433.256)" id="g4212">
            <path id="path4214" style="fill:#ffffff;fill-opacity:1;fill-rule:nonzero;stroke:none" d="M 0,0 C -0.451,0 -1.41,-0.33 -1.531,-0.421 -1.59,-0.481 -2.49,-1.351 -2.67,-2.61 l 5.399,0 C 2.609,-1.051 2.34,0 0,0 m -2.791,-4.86 c 0.09,-1.86 1.439,-3.69 3.541,-3.69 1.44,0 3.03,0.6 4.71,1.98 l 0.33,-3.54 c -1.62,-0.96 -3.091,-1.53 -5.761,-1.53 -3.81,0 -6.66,2.699 -6.66,7.14 0,4.5 2.76,7.199 6.631,7.199 4.648,0 6,-2.46 6,-7.559 l -8.791,0 z"/>
          </g>
          <g transform="translate(836.70799,421.6163)" id="g4216">
            <path id="path4218" style="fill:#ffffff;fill-opacity:1;fill-rule:nonzero;stroke:none" d="m 0,0 c -3.96,0 -6.72,2.67 -6.72,7.289 0,4.92 3.3,7.05 6.358,7.05 2.792,0 5.132,-0.63 5.132,-2.819 l 0,-0.781 c 0,-0.24 0,-0.48 -0.03,-0.78 l -3.512,0 c 0,1.26 -0.328,1.5 -1.288,1.5 -0.632,0 -0.93,-0.06 -1.142,-0.149 C -1.5,11.19 -2.88,10.44 -2.88,7.379 c 0,-3.51 1.98,-4.289 3.508,-4.289 0.93,0 2.01,0.059 3.992,1.739 L 4.95,1.47 C 3.058,0.359 1.68,0 0,0"/>
          </g>
          <g transform="translate(857.7361,422.006)" id="g4220">
            <path id="path4222" style="fill:#ffffff;fill-opacity:1;fill-rule:nonzero;stroke:none" d="m 0,0 -3.63,0 c 0.06,3.45 0.12,4.17 0.12,6 0,3.84 -0.12,4.8 -1.62,4.8 -0.57,0 -1.47,-0.12 -1.71,-0.3 -0.21,-0.15 -1.17,-0.87 -1.8,-1.62 l 0,-8.88 -3.63,0 0,21.899 3.63,0 0,-9.54 c 1.05,1.05 2.25,1.59 3.72,1.59 4.65,0 5.07,-2.88 5.07,-5.909 C 0.15,7.5 0.12,6.93 0.12,6.39 0.09,4.439 0.09,3.42 0,0"/>
          </g>
          <g transform="translate(874.358,422.006)" id="g4224">
            <path id="path4226" style="fill:#ffffff;fill-opacity:1;fill-rule:nonzero;stroke:none" d="m 0,0 -3.63,0 c 0.09,3.96 0.118,4.319 0.118,6.899 0,0.511 0,1.111 -0.058,1.681 -0.122,1.739 -0.48,2.22 -1.56,2.22 -0.57,0 -1.53,-0.12 -1.71,-0.3 -0.21,-0.15 -1.2,-0.87 -1.8,-1.62 l 0,-8.88 -3.63,0 0,9.569 c 0,1.2 -0.21,3.271 -0.36,4.021 l 3.24,0 0.36,-1.591 c 1.2,1.351 2.55,1.95 4.11,1.95 4.648,0 5.068,-2.88 5.068,-5.909 l 0,-1.65 C 0.12,4.439 0.09,3.42 0,0"/>
          </g>
          <path id="path4228" style="fill:#ffffff;fill-opacity:1;fill-rule:nonzero;stroke:none" d="m 878.588,435.596 3.63,0 0,-13.59 -3.63,0 0,13.59 z m 1.8,2.579 c -1.14,0 -2.13,0.99 -2.13,2.19 0,1.2 0.99,2.16 2.13,2.16 1.17,0 2.1,-0.93 2.1,-2.129 0,-1.201 -0.93,-2.221 -2.1,-2.221"/>
          <g transform="translate(890.52609,421.6163)" id="g4230">
            <path id="path4232" style="fill:#ffffff;fill-opacity:1;fill-rule:nonzero;stroke:none" d="m 0,0 c -1.708,0 -3.448,0.359 -4.978,1.319 l 0.388,3 c 1.592,-0.929 2.522,-1.349 4.5,-1.349 1.74,0 2.132,0.54 2.132,0.99 0,2.159 -7.052,1.56 -7.052,6.449 0,2.43 2.042,3.93 5.612,3.93 1.738,0 2.788,-0.359 4.68,-1.2 l -0.42,-3.18 c -1.83,1.351 -3.452,1.471 -4.44,1.471 -0.602,0 -1.8,-0.151 -1.8,-0.901 0,-2.04 7.108,-1.71 7.108,-6.269 C 5.73,1.98 3.75,0 0,0"/>
          </g>
          <g transform="translate(905.85609,421.6163)" id="g4234">
            <path id="path4236" style="fill:#ffffff;fill-opacity:1;fill-rule:nonzero;stroke:none" d="m 0,0 c -3.96,0 -6.72,2.67 -6.72,7.289 0,4.92 3.3,7.05 6.36,7.05 2.79,0 5.13,-0.63 5.13,-2.819 l 0,-0.781 c 0,-0.24 0,-0.48 -0.03,-0.78 l -3.512,0 c 0,1.26 -0.328,1.5 -1.288,1.5 -0.632,0 -0.93,-0.06 -1.14,-0.149 -0.3,-0.12 -1.68,-0.87 -1.68,-3.931 0,-3.51 1.98,-4.289 3.51,-4.289 0.928,0 2.01,0.059 3.99,1.739 L 4.95,1.47 C 3.058,0.359 1.68,0 0,0"/>
          </g>
          <g transform="translate(926.2841,422.006)" id="g4238">
            <path id="path4240" style="fill:#ffffff;fill-opacity:1;fill-rule:nonzero;stroke:none" d="m 0,0 -3.628,0 c 0.06,3.45 0.118,4.17 0.118,6 0,3.84 -0.118,4.8 -1.618,4.8 C -5.7,10.8 -6.6,10.68 -6.84,10.5 -7.048,10.35 -8.01,9.63 -8.638,8.88 l 0,-8.88 -3.632,0 0,21.899 3.632,0 0,-9.54 c 1.048,1.05 2.25,1.59 3.718,1.59 4.65,0 5.07,-2.88 5.07,-5.909 C 0.15,7.5 0.122,6.93 0.122,6.39 0.09,4.439 0.09,3.42 0,0"/>
          </g>
          <g transform="translate(936.1561,433.256)" id="g4242">
            <path id="path4244" style="fill:#ffffff;fill-opacity:1;fill-rule:nonzero;stroke:none" d="m 0,0 c -0.452,0 -1.41,-0.33 -1.532,-0.421 -0.058,-0.06 -0.96,-0.93 -1.138,-2.189 l 5.398,0 C 2.608,-1.051 2.34,0 0,0 m -2.792,-4.86 c 0.09,-1.86 1.44,-3.69 3.542,-3.69 1.438,0 3.028,0.6 4.708,1.98 l 0.33,-3.54 c -1.618,-0.96 -3.09,-1.53 -5.76,-1.53 -3.81,0 -6.66,2.699 -6.66,7.14 0,4.5 2.76,7.199 6.632,7.199 4.648,0 6,-2.46 6,-7.559 l -8.792,0 z"/>
          </g>
          <g transform="translate(817.4463,397.0538)" id="g4246">
            <path id="path4248" style="fill:#ffffff;fill-opacity:1;fill-rule:nonzero;stroke:none" d="m 0,0 c 0,-5.158 -3.539,-7.408 -8.4,-7.408 -4.049,0 -7.889,2.369 -7.889,6.658 l 0,13.471 3.63,0 0,-12.629 c 0,-3.512 2.489,-4.381 4.38,-4.381 2.279,0 4.648,0.9 4.648,4.41 l 0,12.6 3.631,0 L 0,0 z"/>
          </g>
          <g transform="translate(833.584,390.0051)" id="g4250">
            <path id="path4252" style="fill:#ffffff;fill-opacity:1;fill-rule:nonzero;stroke:none" d="m 0,0 -3.628,0 c 0.09,3.959 0.12,4.32 0.12,6.9 0,0.51 0,1.11 -0.06,1.68 -0.12,1.74 -0.48,2.219 -1.56,2.219 -0.57,0 -1.53,-0.119 -1.708,-0.299 -0.212,-0.15 -1.202,-0.871 -1.802,-1.621 l 0,-8.879 -3.629,0 0,9.57 c 0,1.199 -0.211,3.27 -0.361,4.02 l 3.24,0 0.36,-1.59 c 1.2,1.35 2.55,1.949 4.11,1.949 4.65,0 5.07,-2.879 5.07,-5.91 l 0,-1.648 C 0.122,4.439 0.092,3.42 0,0"/>
          </g>
          <path id="path4254" style="fill:#ffffff;fill-opacity:1;fill-rule:nonzero;stroke:none" d="m 838.026,403.595 3.63,0 0,-13.59 -3.63,0 0,13.59 z m 1.8,2.579 c -1.14,0 -2.13,0.99 -2.13,2.191 0,1.2 0.99,2.159 2.13,2.159 1.17,0 2.098,-0.93 2.098,-2.129 0,-1.201 -0.928,-2.221 -2.098,-2.221"/>
          <g transform="translate(852.274,389.6145)" id="g4256">
            <path id="path4258" style="fill:#ffffff;fill-opacity:1;fill-rule:nonzero;stroke:none" d="m 0,0 -2.728,0 -5.07,13.98 3.9,0 2.61,-8.279 2.67,8.279 3.66,0 L 0,0 z"/>
          </g>
          <g transform="translate(866.0161,401.2551)" id="g4260">
            <path id="path4262" style="fill:#ffffff;fill-opacity:1;fill-rule:nonzero;stroke:none" d="m 0,0 c -0.45,0 -1.41,-0.33 -1.53,-0.42 -0.06,-0.061 -0.96,-0.93 -1.14,-2.191 l 5.4,0 C 2.61,-1.051 2.34,0 0,0 m -2.79,-4.859 c 0.09,-1.862 1.438,-3.692 3.54,-3.692 1.44,0 3.03,0.602 4.71,1.981 l 0.33,-3.539 c -1.62,-0.961 -3.09,-1.532 -5.76,-1.532 -3.81,0 -6.66,2.701 -6.66,7.141 0,4.5 2.76,7.199 6.63,7.199 4.648,0 6,-2.459 6,-7.558 l -8.79,0 z"/>
          </g>
          <g transform="translate(881.46609,399.5148)" id="g4264">
            <path id="path4266" style="fill:#ffffff;fill-opacity:1;fill-rule:nonzero;stroke:none" d="m 0,0 c -0.03,0.66 0.032,1.41 -0.54,1.41 -0.48,0 -0.84,-0.631 -1.41,-1.65 l 0,-9.27 -3.628,0 0,9.6 c 0,1.32 -0.15,2.67 -0.362,3.99 l 3.24,0 0.36,-1.621 C -1.83,3.42 -0.568,4.41 0.54,4.41 2.34,4.41 2.942,3.3 2.942,1.65 2.942,1.23 2.91,0.779 2.85,0.359 L 0,0 z"/>
          </g>
          <g transform="translate(891.754,389.6145)" id="g4268">
            <path id="path4270" style="fill:#ffffff;fill-opacity:1;fill-rule:nonzero;stroke:none" d="m 0,0 c -1.708,0 -3.448,0.361 -4.978,1.32 l 0.388,3 c 1.592,-0.929 2.522,-1.349 4.5,-1.349 1.742,0 2.132,0.539 2.132,0.99 0,2.16 -7.05,1.558 -7.05,6.449 0,2.43 2.04,3.93 5.61,3.93 1.74,0 2.79,-0.36 4.68,-1.2 L 4.862,9.961 C 3.032,11.31 1.41,11.43 0.42,11.43 c -0.598,0 -1.798,-0.151 -1.798,-0.901 0,-2.039 7.11,-1.709 7.11,-6.269 C 5.732,1.98 3.75,0 0,0"/>
          </g>
          <path id="path4272" style="fill:#ffffff;fill-opacity:1;fill-rule:nonzero;stroke:none" d="m 901.236,403.595 3.628,0 0,-13.59 -3.628,0 0,13.59 z m 1.798,2.579 c -1.138,0 -2.128,0.99 -2.128,2.191 0,1.2 0.99,2.159 2.128,2.159 1.17,0 2.1,-0.93 2.1,-2.129 0,-1.201 -0.93,-2.221 -2.1,-2.221"/>
          <g transform="translate(913.774,389.6145)" id="g4274">
            <path id="path4276" style="fill:#ffffff;fill-opacity:1;fill-rule:nonzero;stroke:none" d="m 0,0 c -2.038,0 -3.538,1.291 -3.538,3.81 l 0,7.741 -1.982,0 0,2.399 1.982,0 0,4.62 3.57,0 0,-4.59 2.968,0 0,-2.4 -2.968,0 0,-7.049 c 0,-1.32 0.358,-1.381 0.69,-1.381 0.81,0 1.858,0.6 2.518,0.991 l 0.36,-3 C 2.43,0.48 1.14,0 0,0"/>
          </g>
          <g transform="translate(928.444,405.78419)" id="g4278">
            <path id="path4280" style="fill:#ffffff;fill-opacity:1;fill-rule:nonzero;stroke:none" d="M 0,0 C -1.08,0 -1.92,0.9 -1.92,1.981 -1.92,3.09 -1.14,4.05 0,4.05 1.08,4.05 1.92,3.09 1.92,2.01 1.92,0.9 1.08,0 0,0 m -1.14,-9.84 c -1.44,-0.359 -2.22,-0.599 -3.54,-1.17 -0.15,-0.42 -0.18,-0.57 -0.18,-1.019 0,-0.78 0.18,-1.44 1.08,-1.44 0.662,0 1.59,0.45 2.64,1.619 l 0,2.01 z M -5.07,0 c -1.08,0 -1.92,0.9 -1.92,1.981 0,1.109 0.782,2.069 1.92,2.069 1.08,0 1.92,-0.96 1.92,-2.04 C -3.15,0.9 -3.99,0 -5.07,0 m 4.77,-15.779 c -0.18,0.57 -0.21,0.81 -0.36,1.59 -0.66,-0.959 -2.038,-1.981 -3.78,-1.981 -2.37,0 -3.96,1.442 -3.96,3.391 0,1.199 0.24,2.34 0.66,2.849 0.72,0.961 4.74,2.071 6.6,2.43 l 0,1.02 c 0,1.47 -0.21,1.951 -1.738,1.951 -0.602,0 -1.74,-0.032 -1.92,-0.33 C -4.98,-5.189 -4.948,-5.4 -4.98,-5.91 l -2.94,-0.27 c 0,0.211 -0.028,0.391 -0.028,0.571 0,0.75 0.118,1.379 0.298,2.039 0.15,0.54 2.31,1.74 5.07,1.74 3.18,0 5.1,-1.471 5.1,-3.9 l 0,-6.03 c 0,-1.5 0.27,-3 0.48,-4.019 l -3.3,0 z"/>
          </g>
          <g transform="translate(939.244,389.6145)" id="g4282">
            <path id="path4284" style="fill:#ffffff;fill-opacity:1;fill-rule:nonzero;stroke:none" d="m 0,0 c -2.04,0 -3.54,1.291 -3.54,3.81 l 0,7.741 -1.98,0 0,2.399 1.98,0 0,4.62 3.57,0 0,-4.59 2.97,0 0,-2.4 -2.97,0 0,-7.049 c 0,-1.32 0.36,-1.381 0.69,-1.381 0.81,0 1.86,0.6 2.52,0.991 l 0.358,-3 C 2.428,0.48 1.14,0 0,0"/>
          </g>
          <g transform="translate(808.47569,367.005)" id="g4286">
            <path id="path4288" style="fill:#ffffff;fill-opacity:1;fill-rule:nonzero;stroke:none" d="m 0,0 -3.238,0 0,-6.061 3.058,0 c 2.85,0 3.961,0.93 3.961,3.061 0,2.01 -1.439,3 -3.781,3 m -0.359,7.978 -2.879,-0.029 0,-5.01 2.609,0 c 2.369,0 3.209,1.02 3.209,2.52 0,1.381 -0.988,2.519 -2.939,2.519 M 0.932,-9 l -7.801,0 0,19.648 c 2.34,0.151 4.679,0.272 7.051,0.272 4.468,0 6.269,-2.461 6.269,-5.041 C 6.451,4.17 5.58,2.279 3.932,1.65 6.182,1.35 7.65,-0.811 7.65,-3.391 7.65,-6.75 4.891,-9 0.932,-9"/>
          </g>
          <g transform="translate(825.004,367.5148)" id="g4290">
            <path id="path4292" style="fill:#ffffff;fill-opacity:1;fill-rule:nonzero;stroke:none" d="m 0,0 c -0.028,0.66 0.032,1.41 -0.538,1.41 -0.48,0 -0.84,-0.631 -1.41,-1.65 l 0,-9.27 -3.629,0 0,9.6 c 0,1.32 -0.151,2.67 -0.362,3.99 l 3.241,0 0.359,-1.621 c 0.51,0.961 1.771,1.951 2.881,1.951 1.798,0 2.4,-1.111 2.4,-2.76 C 2.942,1.23 2.91,0.779 2.85,0.359 L 0,0 z"/>
          </g>
          <g transform="translate(836.826,363.9445)" id="g4294">
            <path id="path4296" style="fill:#ffffff;fill-opacity:1;fill-rule:nonzero;stroke:none" d="m 0,0 c -1.44,-0.359 -2.22,-0.6 -3.54,-1.17 -0.15,-0.42 -0.18,-0.57 -0.18,-1.019 0,-0.78 0.18,-1.44 1.08,-1.44 0.66,0 1.59,0.449 2.64,1.619 L 0,0 z M 0.838,-5.939 C 0.66,-5.369 0.63,-5.129 0.48,-4.35 -0.18,-5.309 -1.56,-6.33 -3.3,-6.33 c -2.37,0 -3.96,1.441 -3.96,3.391 0,1.199 0.24,2.339 0.66,2.849 0.72,0.961 4.74,2.07 6.6,2.43 L 0,3.359 C 0,4.83 -0.21,5.311 -1.74,5.311 -2.34,5.311 -3.48,5.279 -3.66,4.98 -3.84,4.65 -3.81,4.439 -3.84,3.93 L -6.78,3.66 c 0,0.211 -0.03,0.391 -0.03,0.57 0,0.75 0.12,1.379 0.3,2.04 0.15,0.541 2.31,1.74 5.07,1.74 3.18,0 5.1,-1.471 5.1,-3.901 l 0,-6.029 c 0,-1.5 0.268,-3 0.48,-4.019 l -3.302,0 z"/>
          </g>
          <g transform="translate(853.774,358.005)" id="g4298">
            <path id="path4300" style="fill:#ffffff;fill-opacity:1;fill-rule:nonzero;stroke:none" d="m 0,0 -0.36,1.59 c -1.08,-1.26 -2.428,-1.981 -4.11,-1.981 -3.6,0 -4.92,1.651 -4.92,5.071 l 0,8.91 3.63,0 0,-8.61 c 0,-1.23 0.09,-2.22 1.53,-2.22 0.39,0 1.29,0.06 1.65,0.269 0.48,0.362 1.41,1.141 1.83,1.651 l 0,8.91 3.63,0 0,-9.571 C 2.88,2.67 3.03,1.32 3.24,0 L 0,0 z"/>
          </g>
          <g transform="translate(873.006,358.005)" id="g4302">
            <path id="path4304" style="fill:#ffffff;fill-opacity:1;fill-rule:nonzero;stroke:none" d="m 0,0 -3.63,0 c 0.09,3.959 0.12,4.32 0.12,6.9 0,0.51 0,1.11 -0.06,1.68 -0.12,1.74 -0.48,2.219 -1.56,2.219 -0.57,0 -1.53,-0.119 -1.71,-0.299 -0.21,-0.15 -1.2,-0.871 -1.8,-1.621 l 0,-8.879 -3.628,0 0,9.57 c 0,1.199 -0.212,3.27 -0.362,4.02 l 3.24,0 0.36,-1.59 c 1.2,1.35 2.55,1.949 4.11,1.949 4.65,0 5.07,-2.879 5.07,-5.91 l 0,-1.648 C 0.12,4.439 0.09,3.42 0,0"/>
          </g>
          <g transform="translate(881.46609,357.6144)" id="g4306">
            <path id="path4308" style="fill:#ffffff;fill-opacity:1;fill-rule:nonzero;stroke:none" d="m 0,0 c -1.71,0 -3.45,0.361 -4.978,1.32 l 0.388,3 c 1.592,-0.929 2.522,-1.349 4.5,-1.349 1.74,0 2.13,0.539 2.13,0.99 0,2.16 -7.05,1.558 -7.05,6.449 0,2.43 2.042,3.93 5.612,3.93 1.74,0 2.788,-0.36 4.68,-1.199 L 4.862,9.961 C 3.032,11.31 1.41,11.43 0.42,11.43 c -0.6,0 -1.8,-0.151 -1.8,-0.901 C -1.38,8.49 5.73,8.82 5.73,4.26 5.73,1.98 3.75,0 0,0"/>
          </g>
          <g transform="translate(896.10609,357.6144)" id="g4310">
            <path id="path4312" style="fill:#ffffff;fill-opacity:1;fill-rule:nonzero;stroke:none" d="m 0,0 c -3.96,0 -6.72,2.67 -6.72,7.291 0,4.92 3.3,7.049 6.36,7.049 2.79,0 5.13,-0.629 5.13,-2.821 l 0,-0.779 c 0,-0.24 0,-0.48 -0.03,-0.779 l -3.512,0 c 0,1.26 -0.328,1.5 -1.288,1.5 -0.632,0 -0.93,-0.061 -1.14,-0.151 -0.3,-0.121 -1.68,-0.871 -1.68,-3.929 0,-3.51 1.98,-4.291 3.51,-4.291 0.928,0 2.01,0.06 3.99,1.74 L 4.95,1.471 C 3.058,0.361 1.68,0 0,0"/>
          </g>
          <g transform="translate(916.444,358.005)" id="g4314">
            <path id="path4316" style="fill:#ffffff;fill-opacity:1;fill-rule:nonzero;stroke:none" d="m 0,0 -3.628,0 c 0.06,3.449 0.118,4.17 0.118,6 0,3.84 -0.118,4.799 -1.618,4.799 -0.57,0 -1.472,-0.119 -1.712,-0.299 -0.208,-0.15 -1.17,-0.871 -1.798,-1.621 l 0,-8.879 -3.632,0 0,21.898 3.632,0 0,-9.539 c 1.048,1.051 2.25,1.59 3.718,1.59 4.65,0 5.07,-2.879 5.07,-5.91 C 0.15,7.5 0.122,6.93 0.122,6.391 0.09,4.439 0.09,3.42 0,0"/>
          </g>
          <g transform="translate(933.396,357.6144)" id="g4318">
            <path id="path4320" style="fill:#ffffff;fill-opacity:1;fill-rule:nonzero;stroke:none" d="M 0,0 -2.042,0 -4.802,6.391 -7.32,0 l -2.072,0 -5.428,13.98 3.838,0 2.882,-7.83 3.298,8.28 3.51,-8.43 2.79,7.98 3.512,0 L 0,0 z"/>
          </g>
          <g transform="translate(946.056,369.255)" id="g4322">
            <path id="path4324" style="fill:#ffffff;fill-opacity:1;fill-rule:nonzero;stroke:none" d="M 0,0 C -0.452,0 -1.41,-0.33 -1.532,-0.42 -1.59,-0.481 -2.49,-1.35 -2.67,-2.611 l 5.398,0 C 2.608,-1.051 2.34,0 0,0 m -2.792,-4.859 c 0.09,-1.862 1.44,-3.692 3.542,-3.692 1.44,0 3.028,0.602 4.708,1.981 l 0.33,-3.539 c -1.618,-0.961 -3.09,-1.532 -5.76,-1.532 -3.81,0 -6.66,2.701 -6.66,7.141 0,4.5 2.76,7.199 6.632,7.199 4.648,0 6,-2.459 6,-7.558 l -8.792,0 z"/>
          </g>
          <path id="path4326" style="fill:#ffffff;fill-opacity:1;fill-rule:nonzero;stroke:none" d="m 955.626,371.595 3.628,0 0,-13.59 -3.628,0 0,13.59 z m 1.798,2.58 c -1.138,0 -2.128,0.99 -2.128,2.189 0,1.2 0.99,2.16 2.128,2.16 1.17,0 2.1,-0.929 2.1,-2.13 0,-1.2 -0.93,-2.219 -2.1,-2.219"/>
          <g transform="translate(969.064,369.2236)" id="g4328">
            <path id="path4330" style="fill:#ffffff;fill-opacity:1;fill-rule:nonzero;stroke:none" d="m 0,0 c -0.96,0 -1.62,-0.33 -1.77,-0.478 -0.15,-0.151 -0.69,-0.93 -0.69,-1.981 0,-1.471 0.9,-2.519 2.46,-2.519 0.81,0 1.59,0.388 1.71,0.48 C 1.86,-4.35 2.4,-3.779 2.4,-2.459 2.4,-1.019 1.74,0 0,0 m 1.92,-12.568 c -1.44,0 -2.22,-0.121 -3.6,-0.151 -0.84,-0.599 -1.47,-1.199 -1.47,-1.98 0,-1.139 0.9,-1.469 2.85,-1.469 2.82,0 4.14,1.529 4.14,2.67 0,0.779 -0.09,0.93 -1.92,0.93 m 4.05,11.699 c 0.18,-0.539 0.27,-0.9 0.27,-1.561 0,-3.209 -2.46,-5.369 -6.33,-5.369 -0.54,0 -1.08,0.03 -1.8,0.24 -0.48,-0.48 -0.87,-0.779 -0.87,-1.38 0,-0.51 0.45,-0.661 0.75,-0.661 1.5,0 2.79,0.151 4.29,0.151 3.238,0 5.25,-0.449 5.25,-3.6 0,-3.929 -4.26,-5.91 -8.19,-5.91 -3.18,0 -5.88,0.57 -5.88,3.27 0,1.98 1.472,2.761 2.43,3.3 -0.78,0.241 -2.07,0.84 -2.07,2.401 0,1.469 1.62,2.189 2.73,3.119 -1.77,0.99 -2.85,2.041 -2.85,4.439 0,2.971 2.55,5.161 6.24,5.161 1.89,0 2.79,-0.481 3.63,-0.991 0.69,0 2.85,0 4.65,0.481 l 0,-3.09 -2.25,0 z"/>
          </g>
        </g>
      </g>
    </g>
  </g>
</svg>