<?xml version="1.0" encoding="utf-8"?>
<!-- Generator: Adobe Illustrator 14.0.0, SVG Export Plug-In . SVG Version: 6.00 Build 43363)  -->
<!DOCTYPE svg PUBLIC "-//W3C//DTD SVG 1.1//EN" "http://www.w3.org/Graphics/SVG/1.1/DTD/svg11.dtd">
<svg version="1.1" id="Layer_1" xmlns="http://www.w3.org/2000/svg" xmlns:xlink="http://www.w3.org/1999/xlink" x="0px" y="0px"
	 width="220.733px" height="122.882px" viewBox="0 0 220.733 122.882" enable-background="new 0 0 220.733 122.882"
	 xml:space="preserve">
<g>
	<g>
		<path fill="#231F20" d="M45.621,95.256h-3.752v10.166h-0.924V95.256h-3.746v-0.783h8.422V95.256z"/>
		<path fill="#231F20" d="M49.324,105.573c-0.691,0-1.318-0.17-1.877-0.512c-0.559-0.34-0.994-0.816-1.305-1.424
			c-0.311-0.609-0.467-1.293-0.467-2.049v-0.324c0-0.781,0.152-1.486,0.455-2.113c0.305-0.627,0.727-1.119,1.268-1.477
			c0.541-0.359,1.129-0.539,1.76-0.539c0.988,0,1.771,0.338,2.35,1.012c0.58,0.674,0.869,1.596,0.869,2.764v0.504h-5.805v0.174
			c0,0.922,0.264,1.689,0.793,2.305c0.529,0.613,1.193,0.92,1.996,0.92c0.48,0,0.906-0.088,1.275-0.264
			c0.367-0.174,0.703-0.455,1.004-0.842l0.563,0.43C51.543,105.094,50.582,105.573,49.324,105.573z M49.158,97.903
			c-0.676,0-1.246,0.248-1.711,0.744c-0.463,0.496-0.746,1.164-0.846,2h4.881v-0.098c-0.025-0.781-0.248-1.418-0.67-1.91
			C50.391,98.149,49.84,97.903,49.158,97.903z"/>
		<path fill="#231F20" d="M59.168,103.354c0-0.445-0.178-0.805-0.537-1.074c-0.357-0.271-0.898-0.482-1.621-0.637
			c-0.721-0.152-1.281-0.328-1.68-0.525s-0.695-0.439-0.887-0.727c-0.193-0.285-0.291-0.631-0.291-1.037
			c0-0.641,0.27-1.172,0.805-1.59c0.537-0.42,1.225-0.629,2.061-0.629c0.908,0,1.637,0.225,2.186,0.674s0.822,1.033,0.822,1.756
			h-0.902c0-0.477-0.199-0.873-0.598-1.188c-0.398-0.316-0.9-0.475-1.508-0.475c-0.592,0-1.066,0.131-1.424,0.395
			c-0.359,0.264-0.539,0.605-0.539,1.027c0,0.406,0.15,0.721,0.449,0.943c0.297,0.223,0.842,0.428,1.631,0.613
			s1.381,0.383,1.775,0.594c0.393,0.211,0.686,0.463,0.875,0.76c0.191,0.295,0.285,0.654,0.285,1.074
			c0,0.688-0.275,1.236-0.83,1.646c-0.555,0.412-1.277,0.617-2.17,0.617c-0.947,0-1.715-0.229-2.305-0.688
			c-0.588-0.459-0.883-1.039-0.883-1.742h0.902c0.035,0.527,0.256,0.938,0.666,1.23c0.408,0.293,0.947,0.439,1.619,0.439
			c0.627,0,1.133-0.137,1.52-0.414C58.977,104.124,59.168,103.776,59.168,103.354z"/>
		<path fill="#231F20" d="M63.711,95.204v2.082h1.684v0.738h-1.684v5.428c0,0.451,0.08,0.787,0.244,1.008
			c0.162,0.221,0.434,0.332,0.816,0.332c0.15,0,0.393-0.025,0.729-0.076l0.037,0.73c-0.234,0.084-0.557,0.127-0.963,0.127
			c-0.615,0-1.064-0.18-1.346-0.537c-0.279-0.359-0.42-0.887-0.42-1.584v-5.428h-1.496v-0.738h1.496v-2.082H63.711z"/>
		<path fill="#231F20" d="M67.379,107.467l-0.533-0.391c0.457-0.611,0.691-1.246,0.707-1.902v-1.166h0.879v0.939
			C68.432,105.991,68.082,106.831,67.379,107.467z"/>
		<path fill="#231F20" d="M75.309,104.069l0.059,0.232l0.068-0.232l3.443-9.596h1.016l-4.076,10.949h-0.887l-4.076-10.949h1.008
			L75.309,104.069z"/>
		<path fill="#231F20" d="M86.191,105.422c-0.09-0.256-0.148-0.635-0.172-1.135c-0.316,0.41-0.719,0.727-1.207,0.951
			c-0.49,0.223-1.008,0.334-1.553,0.334c-0.783,0-1.416-0.219-1.898-0.654c-0.484-0.436-0.727-0.988-0.727-1.654
			c0-0.791,0.33-1.418,0.988-1.879c0.66-0.463,1.578-0.693,2.756-0.693h1.633v-0.924c0-0.582-0.18-1.039-0.539-1.373
			c-0.357-0.332-0.881-0.5-1.566-0.5c-0.627,0-1.146,0.16-1.557,0.482c-0.412,0.32-0.617,0.705-0.617,1.156l-0.902-0.006
			c0-0.646,0.301-1.207,0.902-1.682c0.602-0.473,1.342-0.711,2.219-0.711c0.906,0,1.623,0.227,2.146,0.682
			c0.523,0.453,0.793,1.086,0.809,1.898v3.85c0,0.787,0.082,1.377,0.248,1.768v0.09H86.191z M83.365,104.776
			c0.602,0,1.139-0.146,1.611-0.436c0.475-0.291,0.818-0.68,1.035-1.166v-1.789h-1.609c-0.898,0.01-1.6,0.174-2.105,0.492
			s-0.76,0.756-0.76,1.313c0,0.455,0.17,0.834,0.508,1.135S82.822,104.776,83.365,104.776z"/>
		<path fill="#231F20" d="M90.41,105.422h-0.902V93.872h0.902V105.422z"/>
		<path fill="#231F20" d="M92.885,94.936c0-0.17,0.055-0.313,0.164-0.43c0.111-0.117,0.262-0.176,0.451-0.176
			c0.191,0,0.344,0.059,0.455,0.176c0.113,0.117,0.17,0.26,0.17,0.43s-0.057,0.313-0.17,0.426c-0.111,0.115-0.264,0.172-0.455,0.172
			c-0.189,0-0.34-0.057-0.451-0.172C92.939,95.249,92.885,95.106,92.885,94.936z M93.945,105.422h-0.902v-8.137h0.902V105.422z"/>
		<path fill="#231F20" d="M96.162,101.28c0-1.264,0.281-2.27,0.846-3.02s1.33-1.125,2.297-1.125c1.098,0,1.936,0.434,2.512,1.301
			v-4.564h0.895v11.551h-0.842l-0.037-1.082c-0.576,0.822-1.424,1.232-2.543,1.232c-0.938,0-1.693-0.377-2.266-1.131
			c-0.574-0.756-0.861-1.773-0.861-3.057V101.28z M97.072,101.436c0,1.039,0.207,1.857,0.623,2.457
			c0.416,0.598,1.004,0.898,1.76,0.898c1.107,0,1.895-0.49,2.361-1.467v-3.82c-0.467-1.057-1.248-1.586-2.346-1.586
			c-0.758,0-1.346,0.297-1.768,0.891S97.072,100.28,97.072,101.436z"/>
		<path fill="#231F20" d="M105.162,94.936c0-0.17,0.055-0.313,0.164-0.43c0.111-0.117,0.262-0.176,0.451-0.176
			c0.191,0,0.344,0.059,0.455,0.176c0.113,0.117,0.17,0.26,0.17,0.43s-0.057,0.313-0.17,0.426c-0.111,0.115-0.264,0.172-0.455,0.172
			c-0.189,0-0.34-0.057-0.451-0.172C105.217,95.249,105.162,95.106,105.162,94.936z M106.223,105.422h-0.902v-8.137h0.902V105.422z"
			/>
		<path fill="#231F20" d="M111.986,105.573c-0.691,0-1.318-0.17-1.877-0.512c-0.559-0.34-0.994-0.816-1.305-1.424
			c-0.311-0.609-0.465-1.293-0.465-2.049v-0.324c0-0.781,0.15-1.486,0.453-2.113c0.305-0.627,0.727-1.119,1.268-1.477
			c0.541-0.359,1.129-0.539,1.76-0.539c0.988,0,1.771,0.338,2.35,1.012c0.58,0.674,0.869,1.596,0.869,2.764v0.504h-5.805v0.174
			c0,0.922,0.264,1.689,0.793,2.305c0.529,0.613,1.193,0.92,1.996,0.92c0.48,0,0.906-0.088,1.275-0.264
			c0.367-0.174,0.703-0.455,1.004-0.842l0.563,0.43C114.203,105.094,113.244,105.573,111.986,105.573z M111.82,97.903
			c-0.676,0-1.246,0.248-1.711,0.744c-0.463,0.496-0.746,1.164-0.846,2h4.881v-0.098c-0.025-0.781-0.248-1.418-0.67-1.91
			C113.053,98.149,112.502,97.903,111.82,97.903z"/>
		<path fill="#231F20" d="M120.807,98.053c-0.191-0.035-0.395-0.053-0.609-0.053c-0.563,0-1.037,0.156-1.426,0.471
			c-0.389,0.313-0.666,0.768-0.83,1.363v5.588h-0.895v-8.137h0.879l0.016,1.295c0.477-0.963,1.24-1.445,2.293-1.445
			c0.25,0,0.449,0.033,0.594,0.098L120.807,98.053z"/>
		<path fill="#231F20" d="M127.746,104.393c-0.541,0.787-1.406,1.18-2.594,1.18c-0.867,0-1.527-0.252-1.979-0.756
			s-0.682-1.25-0.691-2.236v-5.295h0.895v5.182c0,1.549,0.627,2.324,1.881,2.324c1.303,0,2.127-0.539,2.473-1.617v-5.889h0.902
			v8.137h-0.871L127.746,104.393z"/>
		<path fill="#231F20" d="M132.012,97.286l0.031,1.393c0.305-0.502,0.688-0.885,1.143-1.148c0.457-0.262,0.961-0.395,1.512-0.395
			c0.873,0,1.521,0.246,1.947,0.738c0.426,0.49,0.643,1.227,0.646,2.211v5.338h-0.895v-5.346c-0.006-0.727-0.158-1.27-0.463-1.625
			c-0.303-0.355-0.787-0.533-1.455-0.533c-0.557,0-1.049,0.174-1.477,0.521c-0.43,0.35-0.746,0.818-0.951,1.41v5.572h-0.895v-8.137
			H132.012z"/>
		<path fill="#231F20" d="M139.455,101.28c0-1.273,0.281-2.283,0.846-3.027s1.33-1.117,2.297-1.117c1.107,0,1.951,0.441,2.527,1.324
			l0.045-1.174h0.842v7.971c0,1.049-0.293,1.877-0.879,2.49c-0.588,0.611-1.383,0.916-2.385,0.916c-0.566,0-1.107-0.125-1.621-0.379
			s-0.918-0.59-1.213-1.012l0.504-0.541c0.637,0.781,1.393,1.174,2.27,1.174c0.752,0,1.34-0.223,1.76-0.666
			c0.422-0.443,0.639-1.059,0.654-1.846v-1.023c-0.576,0.803-1.416,1.203-2.52,1.203c-0.941,0-1.699-0.375-2.27-1.129
			c-0.572-0.75-0.857-1.766-0.857-3.045V101.28z M140.365,101.436c0,1.039,0.207,1.857,0.623,2.457
			c0.416,0.598,1.004,0.898,1.76,0.898c1.107,0,1.893-0.496,2.354-1.49V99.52c-0.211-0.521-0.514-0.92-0.91-1.191
			c-0.395-0.273-0.871-0.41-1.428-0.41c-0.758,0-1.346,0.297-1.768,0.891S140.365,100.28,140.365,101.436z"/>
		<path fill="#231F20" d="M148.514,107.467l-0.533-0.391c0.457-0.611,0.691-1.246,0.707-1.902v-1.166h0.879v0.939
			C149.566,105.991,149.217,106.831,148.514,107.467z"/>
		<path fill="#231F20" d="M160.359,102.346h-4.969l-1.129,3.076h-0.969l4.143-10.949h0.879l4.145,10.949h-0.963L160.359,102.346z
			 M155.676,101.565h4.391l-2.195-5.963L155.676,101.565z"/>
		<path fill="#231F20" d="M165.129,97.286l0.031,1.393c0.305-0.502,0.688-0.885,1.143-1.148c0.457-0.262,0.961-0.395,1.512-0.395
			c0.873,0,1.521,0.246,1.947,0.738c0.426,0.49,0.643,1.227,0.646,2.211v5.338h-0.895v-5.346c-0.006-0.727-0.158-1.27-0.463-1.625
			c-0.303-0.355-0.787-0.533-1.455-0.533c-0.557,0-1.049,0.174-1.477,0.521c-0.43,0.35-0.746,0.818-0.951,1.41v5.572h-0.895v-8.137
			H165.129z"/>
		<path fill="#231F20" d="M178.027,105.422c-0.09-0.256-0.148-0.635-0.172-1.135c-0.316,0.41-0.719,0.727-1.207,0.951
			c-0.49,0.223-1.008,0.334-1.553,0.334c-0.783,0-1.416-0.219-1.898-0.654c-0.484-0.436-0.727-0.988-0.727-1.654
			c0-0.791,0.33-1.418,0.988-1.879c0.66-0.463,1.578-0.693,2.756-0.693h1.633v-0.924c0-0.582-0.18-1.039-0.539-1.373
			c-0.357-0.332-0.881-0.5-1.566-0.5c-0.627,0-1.146,0.16-1.557,0.482c-0.412,0.32-0.617,0.705-0.617,1.156l-0.902-0.006
			c0-0.646,0.301-1.207,0.902-1.682c0.602-0.473,1.342-0.711,2.219-0.711c0.906,0,1.623,0.227,2.146,0.682
			c0.523,0.453,0.793,1.086,0.809,1.898v3.85c0,0.787,0.082,1.377,0.248,1.768v0.09H178.027z M175.201,104.776
			c0.602,0,1.139-0.146,1.611-0.436c0.475-0.291,0.818-0.68,1.035-1.166v-1.789h-1.609c-0.898,0.01-1.6,0.174-2.105,0.492
			s-0.76,0.756-0.76,1.313c0,0.455,0.17,0.834,0.508,1.135S174.658,104.776,175.201,104.776z"/>
		<path fill="#231F20" d="M182.242,105.422h-0.902V93.872h0.902V105.422z"/>
		<path fill="#231F20" d="M187.49,104.129l2.377-6.844h0.969l-3.473,9.52l-0.182,0.422c-0.445,0.988-1.135,1.48-2.066,1.48
			c-0.217,0-0.447-0.035-0.693-0.104l-0.008-0.746l0.467,0.047c0.441,0,0.799-0.109,1.072-0.328s0.504-0.594,0.695-1.125
			l0.398-1.098l-3.068-8.068h0.986L187.49,104.129z"/>
		<path fill="#231F20" d="M197.211,103.354c0-0.445-0.178-0.805-0.537-1.074c-0.357-0.271-0.898-0.482-1.621-0.637
			c-0.721-0.152-1.281-0.328-1.68-0.525s-0.695-0.439-0.887-0.727c-0.193-0.285-0.291-0.631-0.291-1.037
			c0-0.641,0.27-1.172,0.805-1.59c0.537-0.42,1.225-0.629,2.061-0.629c0.908,0,1.637,0.225,2.186,0.674s0.822,1.033,0.822,1.756
			h-0.902c0-0.477-0.199-0.873-0.598-1.188c-0.398-0.316-0.9-0.475-1.508-0.475c-0.592,0-1.066,0.131-1.424,0.395
			c-0.359,0.264-0.539,0.605-0.539,1.027c0,0.406,0.15,0.721,0.449,0.943c0.297,0.223,0.842,0.428,1.631,0.613
			s1.381,0.383,1.775,0.594c0.393,0.211,0.686,0.463,0.875,0.76c0.191,0.295,0.285,0.654,0.285,1.074
			c0,0.688-0.275,1.236-0.83,1.646c-0.555,0.412-1.277,0.617-2.17,0.617c-0.947,0-1.715-0.229-2.305-0.688
			c-0.588-0.459-0.883-1.039-0.883-1.742h0.902c0.035,0.527,0.256,0.938,0.666,1.23c0.408,0.293,0.947,0.439,1.619,0.439
			c0.627,0,1.133-0.137,1.52-0.414C197.02,104.124,197.211,103.776,197.211,103.354z"/>
		<path fill="#231F20" d="M203.445,105.573c-0.691,0-1.318-0.17-1.877-0.512c-0.559-0.34-0.994-0.816-1.305-1.424
			c-0.311-0.609-0.467-1.293-0.467-2.049v-0.324c0-0.781,0.152-1.486,0.455-2.113c0.305-0.627,0.727-1.119,1.268-1.477
			c0.541-0.359,1.129-0.539,1.76-0.539c0.988,0,1.771,0.338,2.35,1.012c0.58,0.674,0.869,1.596,0.869,2.764v0.504h-5.805v0.174
			c0,0.922,0.264,1.689,0.793,2.305c0.529,0.613,1.193,0.92,1.996,0.92c0.48,0,0.906-0.088,1.275-0.264
			c0.367-0.174,0.703-0.455,1.004-0.842l0.563,0.43C205.664,105.094,204.703,105.573,203.445,105.573z M203.279,97.903
			c-0.676,0-1.246,0.248-1.711,0.744c-0.463,0.496-0.746,1.164-0.846,2h4.881v-0.098c-0.025-0.781-0.248-1.418-0.67-1.91
			C204.512,98.149,203.961,97.903,203.279,97.903z"/>
	</g>
	<g>
		<path fill="#231F20" d="M190.84,14.174L145.768,83.58h17.989l4.484-6.906h21.748v6.902h16.571V14.174H190.84z M189.989,62.873
			h-12.786l12.786-19.689V62.873z"/>
		<polygon fill="#231F20" points="161.751,14.174 135.519,54.567 135.519,37.31 118.947,37.31 118.941,83.576 118.947,83.576 
			134.668,83.576 179.736,14.174 		"/>
		<polygon fill="#231F20" points="69.772,14.174 69.772,27.975 92.907,27.975 92.907,83.58 109.479,83.58 109.479,27.975 
			135.519,27.975 135.519,14.174 		"/>
		<g>
			<polygon fill="#225B34" points="69.772,37.31 69.772,69.775 37.308,69.775 37.308,83.576 83.573,83.576 83.573,37.31 			"/>
			<path fill="#017C3F" d="M14.173,14.174v46.265h46.266V14.174H14.173z M46.642,46.642H27.974V27.975h18.668V46.642z"/>
		</g>
	</g>
</g>
</svg>
